<svg width="1025" height="764" viewBox="0 0 1025 764" fill="none" xmlns="http://www.w3.org/2000/svg">
<path d="M1024.56 671.139H0.111115V671.651H1024.56V671.139Z" fill="#EBEBEB"/>
<path d="M921.906 704.106H854.047V704.618H921.906V704.106Z" fill="#EBEBEB"/>
<path d="M678.744 709.679H660.939V710.191H678.744V709.679Z" fill="#EBEBEB"/>
<path d="M851.998 685.092H812.68V685.605H851.998V685.092Z" fill="#EBEBEB"/>
<path d="M196.087 688.535H107.596V689.047H196.087V688.535Z" fill="#EBEBEB"/>
<path d="M227.312 688.535H214.343V689.047H227.312V688.535Z" fill="#EBEBEB"/>
<path d="M461.418 697.181H269.479V697.693H461.418V697.181Z" fill="#EBEBEB"/>
<path d="M485.698 579.759H90.0778C86.9786 579.754 84.0081 578.519 81.8185 576.325C79.6289 574.132 78.3991 571.159 78.3992 568.06V11.93C78.4261 8.84849 79.6678 5.90209 81.8545 3.73076C84.0412 1.55943 86.9962 0.338531 90.0778 0.333252H485.698C488.801 0.333252 491.776 1.56584 493.97 3.75986C496.164 5.95387 497.397 8.9296 497.397 12.0324V568.06C497.397 571.163 496.164 574.138 493.97 576.332C491.776 578.526 488.801 579.759 485.698 579.759ZM90.0778 0.743031C87.1144 0.748459 84.2742 1.92947 82.1807 4.02684C80.0872 6.12421 78.9114 8.96655 78.9114 11.93V568.06C78.9114 571.023 80.0872 573.866 82.1807 575.963C84.2742 578.06 87.1144 579.241 90.0778 579.247H485.698C488.663 579.241 491.505 578.061 493.602 575.964C495.699 573.867 496.879 571.025 496.885 568.06V11.93C496.879 8.96467 495.699 6.12237 493.602 4.02559C491.505 1.9288 488.663 0.748447 485.698 0.743031H90.0778Z" fill="#EBEBEB"/>
<path d="M928.893 579.759H533.252C530.151 579.754 527.179 578.519 524.986 576.326C522.793 574.134 521.559 571.161 521.553 568.06V11.93C521.586 8.84662 522.832 5.90024 525.022 3.72948C527.212 1.55871 530.169 0.338473 533.252 0.333252H928.893C931.971 0.343915 934.921 1.56719 937.103 3.73795C939.285 5.9087 940.524 8.85202 940.551 11.93V568.06C940.551 571.156 939.324 574.125 937.139 576.318C934.954 578.511 931.989 579.748 928.893 579.759ZM533.252 0.743031C530.287 0.748447 527.445 1.9288 525.348 4.02559C523.251 6.12237 522.071 8.96467 522.066 11.93V568.06C522.071 571.025 523.251 573.867 525.348 575.964C527.445 578.061 530.287 579.241 533.252 579.247H928.893C931.858 579.241 934.7 578.061 936.797 575.964C938.894 573.867 940.074 571.025 940.08 568.06V11.93C940.074 8.96467 938.894 6.12237 936.797 4.02559C934.7 1.9288 931.858 0.748447 928.893 0.743031H533.252Z" fill="#EBEBEB"/>
<path d="M878.101 92.9841H569.231V367.064H878.101V92.9841Z" fill="#E6E6E6"/>
<path d="M869.967 100.503H576.955V359.708H869.967V100.503Z" fill="#F0F0F0"/>
<path d="M645.736 100.503L576.955 359.135V237.595L613.262 100.503H645.736Z" fill="white"/>
<path d="M670.077 100.503L600.722 359.708H589.638L659.013 100.503H670.077Z" fill="white"/>
<path d="M869.967 264.046V305.474L855.932 359.708H844.868L869.967 264.046Z" fill="white"/>
<path d="M679.154 95.832H674.216V365.486H679.154V95.832Z" fill="#E6E6E6"/>
<path d="M774.816 95.832H769.879V365.486H774.816V95.832Z" fill="#E6E6E6"/>
<path d="M138.534 671.222H335.186L335.186 137.753H138.534L138.534 671.222Z" fill="#F5F5F5"/>
<path d="M149.311 236.488L324.43 236.488V149.472L149.311 149.472V236.488Z" fill="#EBEBEB"/>
<path d="M248.395 236.488H302.548V182.336H248.395V236.488Z" fill="#F0F0F0"/>
<path d="M190.391 236.488H228.931V197.949H190.391V236.488Z" fill="#F0F0F0"/>
<path d="M149.311 332.622H324.43V245.606L149.311 245.606V332.622Z" fill="#EBEBEB"/>
<path d="M276.465 332.622H302.527V278.47H276.465V332.622Z" fill="#F0F0F0"/>
<path d="M190.391 332.643H248.375V310.453H190.391V332.643Z" fill="#F0F0F0"/>
<path d="M203.095 310.453H259.398V277.343H203.095V310.453Z" fill="#F0F0F0"/>
<path d="M149.311 428.797H324.43V341.781H149.311V428.797Z" fill="#EBEBEB"/>
<path d="M248.375 428.797H259.398V374.645H248.375V428.797Z" fill="#F0F0F0"/>
<path d="M161.318 428.797H228.931V355.508H161.318V428.797Z" fill="#F0F0F0"/>
<path d="M149.311 524.931H324.43V437.914H149.311V524.931Z" fill="#EBEBEB"/>
<path d="M248.395 524.931H302.548V470.778H248.395V524.931Z" fill="#F0F0F0"/>
<path d="M190.391 524.931H228.931V486.391H190.391V524.931Z" fill="#F0F0F0"/>
<path d="M149.311 621.064H324.43V534.048H149.311V621.064Z" fill="#EBEBEB"/>
<path d="M248.395 621.064H302.548V566.912H248.395V621.064Z" fill="#F0F0F0"/>
<path d="M190.391 621.085H228.931V582.545H190.391V621.085Z" fill="#F0F0F0"/>
<path d="M248.395 137.752H307.711V110.932H248.395V137.752Z" fill="#F0F0F0"/>
<path d="M195.124 137.773H225.653V124.352H195.124V137.773Z" fill="#F0F0F0"/>
<path d="M382.454 226.408H482.747L481.211 212.865H380.918L382.454 226.408Z" fill="#F5F5F5"/>
<path d="M389.625 289.8H489.918L488.382 276.237H388.089L389.625 289.8Z" fill="#F5F5F5"/>
<path d="M396.817 353.193H497.11L495.573 339.629H395.28L396.817 353.193Z" fill="#F5F5F5"/>
<path d="M403.988 416.565H504.281L502.745 403.001H402.451L403.988 416.565Z" fill="#F5F5F5"/>
<path d="M411.18 479.958H511.473L509.936 466.394H409.643L411.18 479.958Z" fill="#F5F5F5"/>
<path d="M418.351 543.33H518.644L517.107 529.787H416.814L418.351 543.33Z" fill="#F5F5F5"/>
<path d="M425.542 606.722H525.836L524.299 593.179H424.006L425.542 606.722Z" fill="#F5F5F5"/>
<path d="M526.245 671.221H541.94L486.948 185.881H471.253L526.245 671.221Z" fill="#EBEBEB"/>
<path d="M424.047 671.221H439.741L384.77 185.881H369.055L424.047 671.221Z" fill="#EBEBEB"/>
<path d="M854.682 518.497H684.379V671.221H854.682V518.497Z" fill="#EBEBEB"/>
<path d="M743.653 518.497H684.379V671.221H743.653V518.497Z" fill="#E0E0E0"/>
<path d="M888.571 397.326H718.267V521.652H888.571V397.326Z" fill="#F5F5F5"/>
<path d="M777.542 397.326H718.267V521.652H777.542V397.326Z" fill="#EBEBEB"/>
<path d="M848.597 336.454H684.379V397.306H848.597V336.454Z" fill="#FAFAFA"/>
<path d="M741.543 336.454H684.379V397.306H741.543V336.454Z" fill="#F0F0F0"/>
<path d="M512.333 763.667C731.733 763.667 909.592 753.283 909.592 740.474C909.592 727.664 731.733 717.28 512.333 717.28C292.933 717.28 115.074 727.664 115.074 740.474C115.074 753.283 292.933 763.667 512.333 763.667Z" fill="#F5F5F5"/>
<path d="M630.042 132.835H688.907C693.716 132.835 698.328 134.745 701.728 138.146C705.129 141.546 707.039 146.159 707.039 150.968V202.19C707.039 206.999 705.129 211.611 701.728 215.012C698.328 218.412 693.716 220.323 688.907 220.323H675.876L677.925 236.488L663.582 220.323H630.042C627.662 220.323 625.305 219.853 623.106 218.942C620.907 218.03 618.91 216.694 617.228 215.01C615.545 213.326 614.212 211.327 613.303 209.127C612.394 206.928 611.927 204.57 611.93 202.19V150.968C611.927 148.587 612.394 146.23 613.303 144.03C614.212 141.83 615.545 139.831 617.228 138.147C618.91 136.463 620.907 135.127 623.106 134.216C625.305 133.304 627.662 132.835 630.042 132.835Z" fill="#263238"/>
<path opacity="0.7" d="M630.042 132.835H688.907C693.716 132.835 698.328 134.745 701.728 138.146C705.129 141.546 707.039 146.159 707.039 150.968V202.19C707.039 206.999 705.129 211.611 701.728 215.012C698.328 218.412 693.716 220.323 688.907 220.323H675.876L677.925 236.488L663.582 220.323H630.042C627.662 220.323 625.305 219.853 623.106 218.942C620.907 218.03 618.91 216.694 617.228 215.01C615.545 213.326 614.212 211.327 613.303 209.127C612.394 206.928 611.927 204.57 611.93 202.19V150.968C611.927 148.587 612.394 146.23 613.303 144.03C614.212 141.83 615.545 139.831 617.228 138.147C618.91 136.463 620.907 135.127 623.106 134.216C625.305 133.304 627.662 132.835 630.042 132.835Z" fill="white"/>
<path d="M659.485 166.293C647.662 154 634.406 159.081 634.406 171.047C634.406 183.012 659.485 199.588 659.485 199.588C659.485 199.588 684.563 183.033 684.563 171.047C684.563 159.061 671.307 154 659.485 166.293Z" fill="#263238"/>
<path d="M608.283 360.774L593.613 354.053L592.076 369.481C592.076 369.481 606.849 373.579 609.02 369.317L608.283 360.774Z" fill="#EEC1BB"/>
<path d="M580.418 359.913L582.118 370.916L592.076 369.481L593.613 354.053L580.418 359.913Z" fill="#EEC1BB"/>
<path d="M691.959 327.787C691.959 327.787 666.574 351.062 659.792 354.422C653.01 357.782 605.537 358.889 605.537 358.889L607.299 372.575C607.299 372.575 651.309 377.616 664.976 374.03C678.334 370.526 700.626 351.861 700.626 351.861L691.959 327.787Z" fill="#263238"/>
<path opacity="0.2" d="M700.626 351.759L699.192 352.947C697.143 354.648 692.758 358.049 687.636 361.655C680.445 366.736 671.593 372.186 664.996 373.948C651.289 377.534 607.299 372.493 607.299 372.493L605.537 358.807C605.537 358.807 652.928 358.049 659.792 354.525C666.656 351.001 691.939 327.889 691.939 327.889L697.512 343.235L699.417 348.481L700.626 351.759Z" fill="white"/>
<path opacity="0.2" d="M699.417 348.398C699.485 349.918 699.41 351.441 699.192 352.947C697.143 354.647 692.758 358.049 687.636 361.655C688.907 353.459 695.402 345.509 697.512 343.215C697.922 342.743 698.168 342.498 698.168 342.498C698.921 344.378 699.343 346.374 699.417 348.398Z" fill="black"/>
<path d="M780.963 419.085C780.963 419.085 780.041 434.985 772.276 462.85C767.405 480.068 761.493 496.975 754.574 513.478C750.701 522.8 746.255 532.696 741.153 543.105C738.858 547.837 736.4 552.652 733.818 557.59C730.847 641.922 683.518 727.648 683.518 727.648C680.895 729 671.737 727.525 671.798 724.861C678.806 713.736 692.595 605.678 701.487 554.414C702.04 547.448 702.839 540.072 703.822 532.266C706.425 511.572 710.276 489.075 714.067 469.283C719.947 438.099 725.541 413.656 725.541 413.656L741.133 415.172L780.963 419.085Z" fill="#EEC1BB"/>
<path d="M799.567 535.831C798.31 544.901 796.692 554.606 794.711 564.946C811.615 621.352 776.845 731.438 776.845 731.438C770.965 732.606 765.76 731.848 763.117 729.861C769.674 696.689 764.961 610.451 759.86 558.922C759.409 554.25 758.835 549.108 758.221 543.617C757.176 534.315 755.926 524.07 754.594 513.478C752.34 495.755 749.82 477.11 747.546 460.575C744.759 440.599 742.342 423.695 741.092 415.192C740.58 411.463 740.272 409.353 740.272 409.353L789.077 414.639C789.077 414.639 801.493 428.551 803.419 472.008C804.055 493.355 802.766 514.716 799.567 535.831Z" fill="#EEC1BB"/>
<path opacity="0.2" d="M799.567 535.831C786.215 540.339 772.298 542.959 758.22 543.617C757.176 534.315 755.926 524.07 754.594 513.477C750.722 522.8 746.275 532.696 741.174 543.104C728.152 541.922 715.479 538.249 703.843 532.286C706.445 511.592 710.297 489.096 714.087 469.303C719.261 466.268 724.853 464.01 730.683 462.603C736.227 461.269 741.906 460.581 747.607 460.555C755.911 460.517 764.2 461.278 772.358 462.829C782.953 464.812 793.314 467.888 803.276 472.008C803.959 493.35 802.718 514.711 799.567 535.831Z" fill="black"/>
<path d="M778.054 745.842H775.329L774.571 742.482L765.576 746.58H742.751C742.751 746.58 739.125 742.933 750.004 740.044C750.534 739.893 751.048 739.694 751.541 739.449C757.319 736.724 765.576 727.545 765.576 727.545H778.095C778.472 728.132 778.814 728.741 779.119 729.369C780.492 732.073 782.787 737.933 778.054 745.842Z" fill="#263238"/>
<path d="M779.119 729.328C777.46 727.484 769.94 735.577 764.429 738.343C759.511 740.781 753.979 741.867 751.541 739.388C757.319 736.663 766.437 724.8 766.437 724.8H776.497C776.497 724.8 778.525 728.139 779.119 729.328Z" fill="#FFC2BC"/>
<path d="M683.006 745.842H680.342L679.584 742.482L670.569 746.58H647.724C647.724 746.58 644.097 742.933 654.956 740.044C655.486 739.893 656 739.694 656.493 739.449C662.291 736.724 670.528 727.545 670.528 727.545H683.047C683.434 728.127 683.776 728.736 684.071 729.369C685.444 732.073 687.8 737.933 683.006 745.842Z" fill="#263238"/>
<path d="M684.071 729.328C682.432 727.484 674.913 735.577 669.401 738.343C664.484 740.781 658.952 741.867 656.493 739.388C662.292 736.663 671.409 724.8 671.409 724.8H681.469C681.469 724.8 683.498 728.139 684.071 729.328Z" fill="#FFC2BC"/>
<path d="M724.598 409.353H789.405L791.167 417.712C791.167 417.712 814.975 450.659 802.907 532.819C802.907 532.819 750.763 538.843 701.651 528.312C701.651 528.312 712.674 443.897 724.188 416.34L724.598 409.353Z" fill="#263238"/>
<path opacity="0.6" d="M748.693 399.436C748.696 399.602 748.666 399.767 748.604 399.921C748.542 400.075 748.451 400.215 748.334 400.333C748.218 400.452 748.079 400.545 747.926 400.61C747.773 400.674 747.609 400.707 747.443 400.707C747.106 400.707 746.783 400.573 746.545 400.335C746.307 400.096 746.173 399.773 746.173 399.436C746.173 399.099 746.307 398.776 746.545 398.538C746.783 398.3 747.106 398.166 747.443 398.166C747.609 398.166 747.773 398.199 747.926 398.263C748.079 398.327 748.218 398.421 748.334 398.539C748.451 398.658 748.542 398.798 748.604 398.952C748.666 399.106 748.696 399.27 748.693 399.436Z" fill="white"/>
<path d="M690.812 283.94C693.294 289.21 695.045 294.793 696.016 300.536C696.016 300.536 730.847 294.677 737.096 285.928C743.346 277.179 735.314 239.295 716.116 241.446C696.918 243.598 679.461 262.591 690.812 283.94Z" fill="#263238"/>
<path d="M743.243 306.068C743.243 306.068 714.046 334.036 712.1 317.46C712.1 317.46 699.315 321.353 692.554 329.098C692.554 329.098 694.09 351.492 716.649 405.89L713.391 429.965L735.806 433.817L742.526 414.127L757.176 430.17L791.29 407.898L777.562 389.315C777.562 389.315 766.129 340.141 770.063 314.92C770.063 314.92 763.343 299.471 743.243 306.068Z" fill="#263238"/>
<path opacity="0.7" d="M743.243 306.068C743.243 306.068 714.046 334.036 712.1 317.46C712.1 317.46 699.315 321.353 692.554 329.098C692.554 329.098 695.053 353.008 716.649 405.89L713.391 429.965L735.806 433.817L742.526 414.127L757.176 430.17L791.29 407.898L777.562 389.315C777.562 389.315 766.129 340.141 770.063 314.92C770.063 314.92 763.343 299.471 743.243 306.068Z" fill="white"/>
<path d="M731.728 276.933C732.118 286.522 734.269 303.569 741.85 307.666C741.85 307.666 751.664 311.477 728.143 318.095C727.631 323.566 723.225 336.351 723.225 336.351C723.225 336.351 716.587 327.643 717.079 323.586C701.671 327.008 714.395 316.292 714.395 316.292C723.676 310.781 721.668 303.384 718.308 296.91L731.728 276.933Z" fill="#EEC1BB"/>
<path opacity="0.2" d="M726.278 285.129L718.349 296.951C719.173 298.464 719.858 300.048 720.398 301.684C724.024 299.942 728.204 294.103 727.651 289.944C727.488 288.269 727.022 286.638 726.278 285.129Z" fill="black"/>
<path d="M733.716 256.875C735.498 271.975 736.584 278.306 730.601 287.608C721.586 301.745 703.064 301.581 696.897 287.608C691.345 274.987 689.337 252.428 702.552 243.106C705.323 241.009 708.605 239.69 712.057 239.289C715.51 238.887 719.007 239.415 722.186 240.82C725.365 242.224 728.11 244.454 730.138 247.277C732.165 250.1 733.4 253.413 733.716 256.875Z" fill="#EEC1BB"/>
<path d="M718.226 250.421C729.27 258.104 716.771 274.864 732.732 269.107C748.693 263.349 734.945 242.594 723.717 240.422C712.489 238.25 718.226 250.421 718.226 250.421Z" fill="#263238"/>
<path d="M711.875 266.341C712.08 267.611 711.608 268.779 710.809 268.963C710.01 269.148 709.211 268.267 709.006 266.914C708.801 265.562 709.273 264.476 710.072 264.292C710.871 264.107 711.67 265.091 711.875 266.341Z" fill="#263238"/>
<path d="M697.041 270.049C697.246 271.319 696.774 272.487 695.996 272.671C695.217 272.856 694.398 271.995 694.172 270.725C693.947 269.455 694.459 268.287 695.238 268.102C696.016 267.918 696.836 268.738 697.041 270.049Z" fill="#263238"/>
<path d="M695.606 268.102L692.554 267.897C692.554 267.897 694.439 269.926 695.606 268.102Z" fill="#263238"/>
<path d="M701.528 271.155C700.917 274.288 699.912 277.331 698.536 280.211C699.242 280.52 700.008 280.666 700.778 280.637C701.548 280.609 702.301 280.407 702.982 280.047L701.528 271.155Z" fill="#D4827D"/>
<path d="M712.018 256.444C711.931 256.484 711.837 256.505 711.741 256.505C711.646 256.505 711.551 256.484 711.465 256.444C710.694 255.967 709.817 255.69 708.912 255.636C708.007 255.583 707.103 255.755 706.281 256.137C706.199 256.181 706.108 256.208 706.014 256.216C705.92 256.223 705.826 256.211 705.738 256.181C705.649 256.15 705.568 256.101 705.499 256.037C705.43 255.973 705.376 255.895 705.339 255.809C705.256 255.628 705.244 255.423 705.304 255.233C705.365 255.044 705.494 254.884 705.666 254.785C706.701 254.291 707.842 254.062 708.986 254.119C710.131 254.177 711.243 254.518 712.223 255.112C712.383 255.228 712.494 255.399 712.536 255.592C712.578 255.785 712.546 255.986 712.448 256.157C712.337 256.294 712.187 256.394 712.018 256.444Z" fill="#263238"/>
<path d="M691.591 264.148C691.508 264.188 691.416 264.209 691.324 264.209C691.232 264.209 691.141 264.188 691.058 264.148C690.97 264.107 690.892 264.048 690.828 263.975C690.763 263.903 690.714 263.818 690.684 263.726C690.653 263.634 690.642 263.537 690.649 263.441C690.657 263.344 690.685 263.25 690.73 263.164C691.175 262.039 691.875 261.031 692.774 260.221C693.673 259.41 694.748 258.819 695.914 258.493C696.007 258.479 696.102 258.483 696.193 258.507C696.285 258.53 696.37 258.572 696.445 258.629C696.52 258.687 696.582 258.759 696.628 258.841C696.674 258.923 696.703 259.014 696.713 259.108C696.738 259.305 696.689 259.504 696.576 259.667C696.462 259.83 696.292 259.945 696.098 259.989C695.177 260.24 694.328 260.702 693.616 261.339C692.905 261.975 692.352 262.769 692 263.656C691.976 263.765 691.927 263.866 691.855 263.952C691.784 264.038 691.693 264.105 691.591 264.148Z" fill="#263238"/>
<path d="M710.44 264.373L707.388 264.189C707.388 264.189 709.252 266.197 710.44 264.373Z" fill="#263238"/>
<path d="M710.215 244.253C710.215 244.253 718.288 260.173 730.335 259.477C742.383 258.78 727.016 241.549 727.016 241.549C727.016 241.549 721.812 233.189 706.732 237.922C691.652 242.655 679.072 263.431 690.812 283.94C688.982 279.538 688.422 274.712 689.193 270.008C690.73 263.165 695.729 267.078 710.215 244.253Z" fill="#263238"/>
<path d="M719.046 236.816C736.974 238.189 746.05 246.814 748.345 258.841C750.64 270.868 740.149 287.628 737.998 288.796L731.155 292.054C731.155 292.054 737.301 273.266 733.613 268.738C729.925 264.21 727.569 264.373 727.569 264.373L719.046 236.816Z" fill="#263238"/>
<path d="M739.412 270.193C739.22 271.633 738.732 273.018 737.977 274.259C737.222 275.501 736.218 276.572 735.027 277.405C731.974 279.331 729.352 275.971 729.249 271.832C729.249 268.103 730.663 262.591 734.167 262.407C737.67 262.222 740.026 266.32 739.412 270.193Z" fill="#EEC1BB"/>
<path d="M705.912 283.346C707.904 284.746 709.787 286.294 711.547 287.977C711.895 287.731 712.223 287.485 712.571 287.198C717.181 283.653 718.144 280.478 717.816 278.04C717.628 276.853 717.157 275.728 716.444 274.761C716.057 274.202 715.595 273.698 715.071 273.266C713.76 276.605 709.723 280.252 707.469 282.096C706.547 282.895 705.912 283.346 705.912 283.346Z" fill="#263238"/>
<path d="M707.469 282.096L709.17 283.428C713.493 280.068 716.095 277.118 716.444 274.761C716.057 274.202 715.595 273.698 715.071 273.266C713.76 276.605 709.723 280.252 707.469 282.096Z" fill="white"/>
<path d="M712.571 287.178C717.181 283.633 718.144 280.457 717.816 278.019C716.086 279.401 714.615 281.08 713.473 282.977C712.736 284.247 712.42 285.717 712.571 287.178Z" fill="#DE5753"/>
<path d="M814.749 439.185L793.994 447.606C793.994 447.606 761.786 402.079 752.053 382.697C751.377 381.386 750.824 380.197 750.394 379.152C749.716 377.47 749.128 375.754 748.632 374.01C747.374 369.297 746.43 364.505 745.804 359.667C743.161 339.916 743.755 314.592 749.185 304.962C749.185 304.962 756.581 304.02 759.327 303.979C762.072 303.938 770.043 304.511 770.043 304.511C769.223 309.716 769.592 318.854 770.514 329.221C771.374 338.748 772.706 349.341 774.038 358.889C776.292 374.952 778.566 388.024 778.566 388.024C799.649 409.107 814.749 439.185 814.749 439.185Z" fill="#263238"/>
<path opacity="0.2" d="M814.749 439.185L793.994 447.606C793.994 447.606 761.786 402.079 752.053 382.697C751.377 381.386 750.824 380.197 750.394 379.152C749.716 377.47 749.128 375.754 748.632 374.01C747.374 369.297 746.43 364.505 745.804 359.667C743.161 339.916 743.755 314.592 749.185 304.962C749.185 304.962 756.581 304.02 759.327 303.979C762.072 303.938 770.043 304.511 770.043 304.511C769.223 309.716 769.592 318.854 770.514 329.221C771.374 338.748 772.706 349.341 774.038 358.889C776.292 374.952 778.566 388.024 778.566 388.024C799.649 409.107 814.749 439.185 814.749 439.185Z" fill="white"/>
<path d="M745.128 331.515L751.807 339.814L751.213 347.271L749.001 374.686L748.632 374.009C746.549 369.882 744.861 365.567 743.591 361.122C739.658 347.784 736.953 326.291 749.185 304.941C749.185 304.941 751.234 313.342 754.84 331.577L745.128 331.515Z" fill="#263238"/>
<path opacity="0.2" d="M774.038 358.889C770.801 366.531 766.887 374.993 764.572 377.329C761.663 380.156 755.803 381.939 752.053 382.82C751.377 381.509 750.824 380.32 750.394 379.275C749.716 377.593 749.128 375.877 748.632 374.133C746.549 370.005 744.861 365.69 743.591 361.245L745.64 359.831C746.972 358.807 748.98 353.685 751.049 347.538C754.86 336.351 758.61 322.009 758.61 322.009C763.29 322.929 767.498 325.468 770.493 329.18C771.374 338.707 772.706 349.3 774.038 358.889Z" fill="black"/>
<path d="M722.262 401.69L716.546 457.912L708.043 460.575L715.481 403.821C715.481 403.821 713.924 401.157 711.608 396.609C709.293 392.06 706.404 386.037 703.413 378.784C697.512 364.236 691.693 345.366 691.796 327.807C695.83 324.536 700.315 321.866 705.113 319.878C706.015 319.509 706.957 319.181 707.9 318.874C707.9 318.874 703.802 337.048 714.046 375.567C714.169 376.038 714.292 376.55 714.436 377.042V377.247C715.829 382.328 717.448 387.758 719.374 393.638C720.302 396.192 721.265 398.876 722.262 401.69Z" fill="#263238"/>
<path opacity="0.2" d="M722.262 401.69L716.546 457.912L708.043 460.575L715.481 403.821C715.481 403.821 713.924 401.157 711.608 396.609C709.293 392.06 706.404 386.037 703.413 378.784C697.512 364.236 691.693 345.366 691.796 327.807C695.83 324.536 700.315 321.866 705.113 319.878C706.015 319.509 706.957 319.181 707.9 318.874C707.9 318.874 703.802 337.048 714.046 375.567C714.169 376.038 714.292 376.55 714.436 377.042V377.247C715.829 382.328 717.448 387.758 719.374 393.638C720.302 396.192 721.265 398.876 722.262 401.69Z" fill="white"/>
<path d="M714.497 377.206L713.657 375.669L699.909 350.365L703.064 344.219L696.303 351.574C696.303 351.574 699.643 324.345 703.577 321.107C704.078 320.693 704.605 320.31 705.154 319.96C706.462 318.887 708.115 318.326 709.805 318.382C705.093 323.3 712.489 366.408 714.149 375.608C714.272 376.325 714.374 376.837 714.415 377.124L714.497 377.206Z" fill="#263238"/>
<path opacity="0.2" d="M719.435 393.515C717.386 394.396 714.333 395.564 711.608 396.609C709.355 392.204 706.404 386.037 703.413 378.784C705.994 378.108 709.559 377.083 713.657 375.669L714.067 375.526H714.19C714.313 376.243 714.415 376.755 714.456 377.042V377.247C715.89 382.287 717.509 387.717 719.435 393.515Z" fill="black"/>
<path d="M720.418 310.535C720.418 310.535 714.395 318.321 717.099 323.648L704.929 331.004C704.929 331.004 708.576 315.289 720.418 310.535Z" fill="#263238"/>
<path d="M749 319.755L728.778 319.55C728.778 319.55 736.031 308.67 737.732 303.466L745.231 306.13C745.497 306.437 748.693 310.33 749 319.755Z" fill="#263238"/>
<path opacity="0.6" d="M720.418 310.535C720.418 310.535 714.395 318.321 717.099 323.648L704.929 331.004C704.929 331.004 708.576 315.289 720.418 310.535Z" fill="white"/>
<path opacity="0.6" d="M749 319.755L728.778 319.55C728.778 319.55 736.031 308.67 737.732 303.466L745.231 306.13C745.497 306.437 748.693 310.33 749 319.755Z" fill="white"/>
<path d="M711.629 382.492L695.504 382.246L700.298 396.998C700.298 396.998 715.46 394.806 715.727 390.011L711.629 382.492Z" fill="#EEC1BB"/>
<path d="M685.772 392.941L691.775 402.325L700.298 396.998L695.484 382.246L685.772 392.941Z" fill="#EEC1BB"/>
<path d="M770.043 304.47C786.434 314.715 764.49 372.473 760.105 375.751C755.721 379.029 715.173 393.044 715.173 393.044L706.24 380.853C706.24 380.853 745.989 361.737 748.98 359.913C751.971 358.09 759.224 318.833 759.224 318.833L770.043 304.47Z" fill="#263238"/>
<path opacity="0.2" d="M770.043 304.47C786.434 314.715 764.49 372.473 760.105 375.751C755.721 379.029 715.173 393.044 715.173 393.044L706.24 380.853C706.24 380.853 745.989 361.737 748.98 359.913C751.971 358.09 759.224 318.833 759.224 318.833L770.043 304.47Z" fill="white"/>
<path d="M351.721 733.036L367.866 736.437L385.118 708.081L368.973 704.659L351.721 733.036Z" fill="#EEC1BB"/>
<path d="M371.124 729.615H353.053C352.755 729.613 352.467 729.714 352.235 729.901C352.004 730.087 351.844 730.348 351.782 730.639L348.853 743.875C348.731 744.443 348.839 745.036 349.154 745.523C349.469 746.011 349.965 746.354 350.533 746.477H351.024C356.864 746.375 361.125 746.006 368.481 746.006C373.009 746.006 386.654 746.477 392.883 746.477C399.112 746.477 399.952 740.33 397.391 739.757C385.917 737.257 377.291 733.794 373.624 730.496C372.937 729.888 372.04 729.572 371.124 729.615Z" fill="#263238"/>
<path d="M372.148 731.664C372.079 731.651 372.016 731.616 371.968 731.564C371.92 731.513 371.89 731.447 371.882 731.377C371.869 731.309 371.878 731.239 371.907 731.176C371.937 731.113 371.985 731.062 372.046 731.028C372.579 730.68 377.394 727.73 379.033 728.59C379.219 728.677 379.376 728.816 379.485 728.991C379.595 729.165 379.651 729.368 379.647 729.574C379.698 729.925 379.657 730.283 379.528 730.614C379.398 730.944 379.185 731.235 378.91 731.459C378.069 732.032 377.056 732.3 376.041 732.217C374.727 732.176 373.422 731.991 372.148 731.664ZM373.173 731.172C374.911 731.762 376.809 731.666 378.479 730.905C378.655 730.748 378.79 730.55 378.872 730.329C378.954 730.107 378.981 729.869 378.951 729.635C378.951 729.369 378.807 729.225 378.725 729.225C378.571 729.185 378.408 729.185 378.254 729.225C376.454 729.554 374.731 730.214 373.173 731.172Z" fill="#263238"/>
<path d="M372.046 731.787C371.992 731.751 371.949 731.702 371.92 731.644C371.892 731.587 371.878 731.523 371.882 731.459C371.882 731.254 372.271 726.972 373.931 725.578C374.13 725.396 374.368 725.261 374.627 725.183C374.886 725.105 375.159 725.086 375.427 725.128C375.691 725.131 375.947 725.224 376.151 725.392C376.356 725.559 376.498 725.791 376.553 726.05C376.861 727.627 373.89 730.906 372.456 731.725H372.292C372.22 731.776 372.133 731.798 372.046 731.787ZM374.443 725.988C373.399 727.333 372.785 728.961 372.681 730.66C374.218 729.492 376.103 727.013 375.918 726.05C375.918 726.05 375.918 725.701 375.406 725.701H375.242C374.955 725.684 374.671 725.771 374.443 725.947V725.988Z" fill="#263238"/>
<path opacity="0.2" d="M368.973 704.659L385.118 708.081L376.205 722.71L360.06 719.288L368.973 704.659Z" fill="black"/>
<path d="M298.347 636.944C299.228 636.944 309.043 636.944 309.965 636.78C327.662 634.973 345.133 631.383 362.109 626.064C377.332 621.474 387.863 617.213 387.863 617.213C391.449 637.394 358.667 714.801 358.667 714.801L385.405 716.461C385.405 716.461 460.169 606.169 428.308 571.789C404.521 546.137 333.834 574.002 333.834 574.002L327.216 558.881L255.751 567.076C255.751 567.076 236.143 640.263 298.347 636.944Z" fill="#263238"/>
<path opacity="0.2" d="M298.347 636.944C299.228 636.944 309.043 636.944 309.965 636.78C327.662 634.973 345.133 631.383 362.109 626.064C377.332 621.474 387.863 617.213 387.863 617.213C391.449 637.394 358.667 714.801 358.667 714.801L385.405 716.461C385.405 716.461 460.169 606.169 428.308 571.789C404.521 546.137 333.834 574.002 333.834 574.002L327.216 558.881L255.751 567.076C255.751 567.076 236.143 640.263 298.347 636.944Z" fill="white"/>
<path d="M384.073 719.616L357.417 715.355L359.978 708.102L388.97 714.146L384.073 719.616Z" fill="#263238"/>
<path opacity="0.2" d="M307.281 636.943L309.965 636.78C327.662 634.973 345.133 631.382 362.109 626.064C336.231 621.31 311.542 602.707 311.542 602.707L307.281 636.943Z" fill="black"/>
<path d="M170.661 702.795L169.267 717.588L203.463 722.054L204.857 707.221L170.661 702.795Z" fill="#EEC1BB"/>
<path d="M170.784 719.821L172.484 701.811C172.504 701.518 172.427 701.226 172.264 700.982C172.1 700.737 171.861 700.553 171.583 700.459L158.675 696.361C158.118 696.187 157.514 696.241 156.996 696.509C156.478 696.778 156.087 697.24 155.909 697.796C155.901 697.953 155.901 698.11 155.909 698.267C155.458 704.106 155.417 708.388 154.72 715.682C154.29 720.19 152.548 733.733 151.975 739.962C151.401 746.19 157.445 747.563 158.244 745.063C161.727 733.836 166.071 725.64 169.616 722.218C170.292 721.594 170.709 720.738 170.784 719.821Z" fill="#263238"/>
<path d="M168.632 720.64C168.656 720.572 168.7 720.512 168.759 720.468C168.817 720.424 168.887 720.399 168.96 720.395C169.028 720.395 169.095 720.414 169.153 720.451C169.211 720.487 169.258 720.538 169.288 720.599C169.575 721.153 172.074 726.234 171.07 727.791C170.959 727.963 170.803 728.102 170.619 728.192C170.435 728.283 170.23 728.321 170.025 728.303C169.669 728.313 169.316 728.233 168.997 728.073C168.679 727.912 168.406 727.674 168.202 727.381C167.722 726.492 167.556 725.467 167.731 724.472C167.895 723.166 168.197 721.882 168.632 720.64ZM169.042 721.706C168.287 723.372 168.199 725.263 168.796 726.992C168.936 727.185 169.121 727.341 169.336 727.445C169.55 727.548 169.787 727.597 170.025 727.586C170.292 727.586 170.435 727.586 170.456 727.402C170.537 727.264 170.586 727.11 170.599 726.951C170.411 725.121 169.883 723.342 169.042 721.706Z" fill="#263238"/>
<path d="M168.571 720.538C168.607 720.487 168.657 720.446 168.715 720.421C168.773 720.396 168.836 720.386 168.899 720.394C169.103 720.394 173.345 721.193 174.574 723.037C174.876 723.489 174.987 724.041 174.881 724.574C174.859 724.84 174.744 725.09 174.557 725.281C174.37 725.472 174.123 725.591 173.857 725.619C172.259 725.762 169.288 722.505 168.591 720.907V720.722C168.566 720.664 168.558 720.6 168.571 720.538ZM174.123 723.447C172.881 722.284 171.318 721.52 169.636 721.255C170.64 722.894 172.935 725.004 173.918 724.922C173.918 724.922 174.287 724.922 174.328 724.431V724.267C174.352 723.978 174.28 723.69 174.123 723.447Z" fill="#263238"/>
<path opacity="0.2" d="M204.836 707.221L203.443 722.054L185.822 719.739L187.216 704.905L204.836 707.221Z" fill="black"/>
<path d="M316.029 584.266C321.459 592.318 344.591 713.961 311.932 737.134C287.919 754.16 191.436 725.947 191.436 725.947L193.116 701.36C193.116 701.36 274.334 711.092 281.915 704.516C289.496 697.939 255.095 614.754 253.231 598.649C251.366 582.545 316.029 584.266 316.029 584.266Z" fill="#263238"/>
<path opacity="0.5" d="M384.073 719.616L357.417 715.355L359.978 708.102L388.97 714.146L384.073 719.616Z" fill="white"/>
<path opacity="0.2" d="M316.029 584.266C321.459 592.318 344.591 713.961 311.932 737.134C287.919 754.16 191.436 725.947 191.436 725.947L193.116 701.36C193.116 701.36 274.334 711.092 281.915 704.516C289.496 697.939 255.095 614.754 253.231 598.649C251.366 582.545 316.029 584.266 316.029 584.266Z" fill="white"/>
<path d="M196.477 699.414L194.489 729.143L187.031 727.258L190.391 697.816L196.477 699.414Z" fill="#263238"/>
<path opacity="0.5" d="M196.477 699.414L194.489 729.143L187.031 727.258L190.391 697.816L196.477 699.414Z" fill="white"/>
<path d="M291.955 438.386C301.912 437.238 311.952 436.337 321.93 435.271C331.908 434.206 341.968 433.345 351.598 432.116C353.647 432.116 357.212 430.067 360.634 427.281C371.554 418.163 380.774 406.382 389.707 395.072L397.903 399.969C393.433 409.417 388.118 418.441 382.024 426.932C375.304 435.763 367.231 446.131 355.716 449.122C345.144 451.376 334.715 452.892 324.102 454.285C314.021 455.637 303.961 456.805 293.819 457.666L291.914 438.386H291.955Z" fill="#EBC0BB"/>
<path d="M286.116 468.32C297.917 475.757 340.8 460.124 340.8 460.124L333.363 433.714C320.899 433.251 308.427 434.401 296.258 437.136C277.818 441.869 272.982 460.042 286.116 468.32Z" fill="#263238"/>
<path opacity="0.2" d="M286.116 468.32C297.917 475.757 340.8 460.124 340.8 460.124L333.363 433.714C320.899 433.251 308.427 434.401 296.258 437.136C277.818 441.869 272.982 460.042 286.116 468.32Z" fill="white"/>
<path opacity="0.1" d="M287.611 469.098C286.238 462.952 289.885 457.153 301.83 453.261C313.469 449.958 325.555 448.506 337.645 448.958L340.8 460.206C340.8 460.206 301.052 474.794 287.611 469.098Z" fill="black"/>
<path d="M383.643 403.964L390.711 384.356L406.631 393.208C406.631 393.208 403.619 407.55 391.654 409.599L383.643 403.964Z" fill="#EEC1BB"/>
<path d="M401.693 374.378L411.999 383.824L406.631 393.187L390.711 384.336L401.693 374.378Z" fill="#EEC1BB"/>
<path d="M301.851 437.279C301.851 437.279 327.974 476.782 329.245 560.52L252.883 576.911C249.83 565.294 244.892 506.532 221.719 453.732C229.81 450.263 238.119 447.327 246.592 444.942C257.268 441.993 268.104 439.66 279.047 437.955C286.619 437.141 294.244 436.915 301.851 437.279Z" fill="#263238"/>
<path opacity="0.2" d="M329.245 560.52L252.883 576.911C250.977 569.638 248.314 543.883 240.917 512.658C238.868 504.339 236.635 495.591 233.889 486.739C230.449 475.519 226.386 464.5 221.719 453.732C229.803 450.265 238.105 447.329 246.572 444.942C257.252 441.985 268.095 439.652 279.047 437.955C286.624 437.113 294.255 436.86 301.871 437.197C301.871 437.197 327.933 476.782 329.245 560.52Z" fill="white"/>
<path d="M245.978 406.915C249.686 417.159 254.727 436.193 248.436 444.368C259.214 447.114 266.876 448.876 276.732 455.268C278.78 448.323 281.26 439.307 281.26 439.307C268.966 438.324 268.003 429.534 268.782 421.011L245.978 406.915Z" fill="#EEC1BB"/>
<path opacity="0.2" d="M255.362 412.672L268.843 421.011C268.67 423.002 268.67 425.004 268.843 426.994C264.254 426.994 257.308 423.04 256.099 418.409C255.515 416.556 255.266 414.613 255.362 412.672Z" fill="black"/>
<path d="M237.106 447.893L242.925 439.431L263.987 441.889L275.42 453.199L275.707 439.164L279.272 434.206L288.062 437.259L288.697 445.987L282.489 444.45L278.125 457.01L261.058 451.417L257.697 456.395L237.106 447.893Z" fill="#263238"/>
<path opacity="0.3" d="M237.106 447.893L242.925 439.431L263.987 441.889L275.42 453.199L275.707 439.164L279.272 434.206L288.062 437.259L288.697 445.987L282.489 444.45L278.125 457.01L261.058 451.417L257.697 456.395L237.106 447.893Z" fill="white"/>
<path opacity="0.1" d="M278.125 457.01L279.067 442.299L288.697 445.987L282.489 444.45L278.125 457.01Z" fill="black"/>
<path opacity="0.1" d="M278.125 457.01L261.939 446.848L257.697 456.395L261.058 451.417L278.125 457.01Z" fill="black"/>
<path opacity="0.1" d="M240.917 512.679C238.868 504.36 236.635 495.611 233.889 486.76C236.154 483.498 239.537 481.18 243.396 480.245C243.396 480.245 247.002 500.488 240.917 512.679Z" fill="black"/>
<path d="M233.889 469.857C232.189 488.297 229.341 507.659 230.755 526.181C230.877 527.021 231.041 527.984 231.144 528.434C230.986 528.194 230.784 527.986 230.55 527.82C230.222 527.82 230.304 527.656 230.55 527.82C232.599 528.947 237.168 528.721 240.118 528.455C248.868 527.315 257.513 525.486 265.975 522.984L269.909 531.733C261.425 536.841 252.266 540.731 242.7 543.289C214.753 549.702 211.966 533.434 211.72 510.097C211.715 495.839 212.707 481.599 214.691 467.48L233.889 469.959V469.857Z" fill="#EBC0BB"/>
<path d="M221.719 453.752C201.64 463.997 206.598 513.293 206.598 513.293L234.955 513.191C239.391 500.505 242.816 487.488 245.199 474.262C248.027 455.494 235.057 446.991 221.719 453.752Z" fill="#263238"/>
<path opacity="0.2" d="M221.719 453.752C201.64 463.997 206.598 513.293 206.598 513.293L234.955 513.191C239.391 500.505 242.816 487.488 245.199 474.262C248.027 455.494 235.057 446.991 221.719 453.752Z" fill="white"/>
<path d="M260.033 524.5L274.908 509.912L285.419 524.787C285.419 524.787 276.465 536.445 264.807 532.983L260.033 524.5Z" fill="#EEC1BB"/>
<path d="M289.127 505.712L294.311 518.682L285.419 524.788L274.908 509.913L289.127 505.712Z" fill="#EEC1BB"/>
<path d="M271.63 366.511C279.231 368.99 285.542 388.926 276.814 394.335C268.085 399.744 257.226 361.839 271.63 366.511Z" fill="#263238"/>
<path d="M241.06 392.244C245.752 406.177 247.781 414.557 256.939 420.13C259.896 421.975 263.301 422.977 266.786 423.027C270.27 423.077 273.703 422.173 276.711 420.414C279.719 418.654 282.19 416.106 283.854 413.044C285.519 409.982 286.315 406.524 286.157 403.042C285.788 389.622 278.166 369.092 262.697 366.715C259.361 366.117 255.926 366.405 252.737 367.551C249.548 368.698 246.716 370.662 244.525 373.247C242.334 375.833 240.86 378.949 240.252 382.283C239.644 385.617 239.923 389.052 241.06 392.244Z" fill="#EEC1BB"/>
<path d="M254.665 373.231L252.35 360.938C223.665 355.098 214.835 383.475 228.747 398.453C236.041 406.3 243.601 409.271 247.904 404.866C252.002 402.264 250.813 387.45 248.744 382.164C245.629 374.112 254.665 373.231 254.665 373.231Z" fill="#263238"/>
<path d="M239.421 407.509C242.038 410.05 245.457 411.6 249.092 411.894C253.682 412.16 254.214 407.796 251.489 404.108C249.031 400.707 243.663 396.466 239.77 397.961C235.877 399.457 236.102 404.333 239.421 407.509Z" fill="#EEC1BB"/>
<path d="M263.742 391.159C264.049 392.306 264.93 393.105 265.791 392.921C266.651 392.736 266.897 391.671 266.59 390.523C266.282 389.376 265.422 388.577 264.664 388.761C263.906 388.946 263.434 390.011 263.742 391.159Z" fill="#263238"/>
<path d="M276.855 388.106C277.182 389.253 278.043 390.032 278.903 389.868C279.764 389.704 280.03 388.598 279.703 387.45C279.375 386.303 278.535 385.524 277.777 385.688C277.018 385.852 276.547 386.938 276.855 388.106Z" fill="#263238"/>
<path d="M272.839 389.622C275.18 392.821 277.936 395.694 281.034 398.166C280.384 398.92 279.574 399.521 278.664 399.925C277.753 400.328 276.764 400.526 275.769 400.502L272.839 389.622Z" fill="#D4827D"/>
<path d="M258.558 387.901C258.444 387.932 258.324 387.932 258.21 387.901C258.037 387.828 257.9 387.691 257.828 387.519C257.755 387.347 257.752 387.153 257.82 386.979C258.227 385.954 258.878 385.045 259.718 384.33C260.557 383.616 261.559 383.118 262.635 382.881C262.726 382.864 262.819 382.865 262.909 382.884C262.999 382.904 263.084 382.942 263.159 382.996C263.233 383.049 263.296 383.118 263.344 383.197C263.391 383.276 263.422 383.363 263.434 383.455C263.452 383.545 263.451 383.638 263.431 383.728C263.411 383.818 263.374 383.903 263.32 383.978C263.266 384.053 263.198 384.116 263.119 384.163C263.04 384.211 262.952 384.242 262.861 384.254C262.019 384.455 261.239 384.856 260.586 385.423C259.934 385.99 259.428 386.707 259.111 387.512C259.063 387.621 258.986 387.714 258.889 387.783C258.791 387.852 258.677 387.892 258.558 387.901Z" fill="#263238"/>
<path d="M281.301 382.308C281.186 382.321 281.07 382.305 280.962 382.262C280.855 382.219 280.76 382.15 280.686 382.062C280.121 381.366 279.405 380.809 278.591 380.432C277.778 380.056 276.89 379.871 275.994 379.89C275.902 379.901 275.809 379.894 275.721 379.87C275.632 379.845 275.549 379.803 275.476 379.745C275.404 379.688 275.343 379.617 275.299 379.537C275.254 379.456 275.226 379.367 275.215 379.275C275.198 379.088 275.255 378.902 275.374 378.756C275.493 378.611 275.664 378.517 275.851 378.497C276.972 378.46 278.088 378.68 279.111 379.142C280.134 379.604 281.037 380.294 281.751 381.16C281.877 381.293 281.947 381.469 281.947 381.652C281.947 381.835 281.877 382.011 281.751 382.144C281.626 382.252 281.466 382.31 281.301 382.308Z" fill="#263238"/>
<path d="M231.021 367.228C228.972 376.14 252.411 382.328 268.475 375.731C266.779 375.686 265.108 375.31 263.557 374.624C263.557 374.624 278.391 373.21 281.055 362.126L278.555 364.175C278.555 364.175 280.604 354.996 275.318 350.181L275.031 353.152C275.031 353.152 267.676 346.841 259.152 350.591L262.512 351.595C262.512 351.595 234.75 351.533 231.021 367.228Z" fill="#263238"/>
<path d="M278.944 404.313C272.961 403.461 266.909 403.186 260.873 403.493C262.492 407.468 265.463 410.685 272.265 410.521C273.121 410.595 273.983 410.49 274.796 410.21C275.608 409.931 276.354 409.485 276.983 408.9C277.612 408.315 278.112 407.604 278.45 406.814C278.788 406.024 278.956 405.172 278.944 404.313Z" fill="#263238"/>
<path d="M269.069 407.427C271.678 407.235 274.282 407.873 276.506 409.251C275.262 410.112 273.778 410.557 272.265 410.521C269.662 410.716 267.064 410.077 264.848 408.697C266.084 407.835 267.562 407.39 269.069 407.427Z" fill="#A02724"/>
<path d="M278.33 404.21C277.961 405.071 277.613 405.931 276.281 406.259C272.338 406.323 268.396 406.049 264.5 405.439C263.873 405.4 263.266 405.205 262.733 404.872C262.2 404.539 261.758 404.08 261.447 403.534C267.084 403.318 272.728 403.544 278.33 404.21Z" fill="white"/>
<path d="M427.509 383.025C427.509 389.848 418.023 395.318 406.488 395.134C394.952 394.949 385.692 389.376 385.773 382.554C385.855 375.731 395.26 370.26 406.775 370.465C418.289 370.67 427.591 376.222 427.509 383.025Z" fill="#263238"/>
<path d="M436.524 360.528C437.657 359.454 438.338 357.989 438.43 356.43C438.43 349.751 424.354 344.137 406.816 343.973C389.277 343.809 374.996 349.034 374.914 355.713C374.984 357.26 375.636 358.723 376.738 359.811C376.407 360.445 376.218 361.145 376.185 361.86C376.207 362.633 376.383 363.393 376.703 364.097C377.023 364.801 377.481 365.433 378.049 365.958C377.677 366.622 377.473 367.368 377.455 368.129C377.478 368.908 377.66 369.674 377.992 370.379C378.323 371.084 378.796 371.713 379.381 372.227C378.967 372.892 378.74 373.657 378.725 374.44C378.774 375.208 378.981 375.958 379.334 376.642C379.686 377.326 380.177 377.93 380.774 378.415C380.341 379.081 380.1 379.854 380.078 380.648C380.078 386.201 391.777 390.893 406.365 391.015C420.953 391.138 432.816 386.918 432.877 381.242C432.874 380.444 432.647 379.664 432.222 378.988C432.816 378.51 433.305 377.913 433.658 377.236C434.01 376.559 434.219 375.816 434.271 375.055C434.263 374.279 434.058 373.517 433.676 372.842C434.264 372.348 434.748 371.742 435.1 371.06C435.451 370.378 435.664 369.632 435.725 368.867C435.719 368.102 435.529 367.351 435.172 366.675C435.76 366.176 436.243 365.567 436.594 364.881C436.946 364.195 437.159 363.447 437.221 362.679C437.156 361.918 436.918 361.183 436.524 360.528Z" fill="#263238"/>
<path opacity="0.3" d="M436.524 360.528C437.657 359.454 438.338 357.989 438.43 356.43C438.43 349.751 424.354 344.137 406.816 343.973C389.277 343.809 374.996 349.034 374.914 355.713C374.984 357.26 375.636 358.723 376.738 359.811C376.407 360.445 376.218 361.145 376.185 361.86C376.207 362.633 376.383 363.393 376.703 364.097C377.023 364.801 377.481 365.433 378.049 365.958C377.677 366.622 377.473 367.368 377.455 368.129C377.478 368.908 377.66 369.674 377.992 370.379C378.323 371.084 378.796 371.713 379.381 372.227C378.967 372.892 378.74 373.657 378.725 374.44C378.774 375.208 378.981 375.958 379.334 376.642C379.686 377.326 380.177 377.93 380.774 378.415C380.341 379.081 380.1 379.854 380.078 380.648C380.078 386.201 391.777 390.893 406.365 391.015C420.953 391.138 432.816 386.918 432.877 381.242C432.874 380.444 432.647 379.664 432.222 378.988C432.816 378.51 433.305 377.913 433.658 377.236C434.01 376.559 434.219 375.816 434.271 375.055C434.263 374.279 434.058 373.517 433.676 372.842C434.264 372.348 434.748 371.742 435.1 371.06C435.451 370.378 435.664 369.632 435.725 368.867C435.719 368.102 435.529 367.351 435.172 366.675C435.76 366.176 436.243 365.567 436.594 364.881C436.946 364.195 437.159 363.447 437.221 362.679C437.156 361.918 436.918 361.183 436.524 360.528Z" fill="white"/>
<path d="M462.832 301.52C462.944 292.043 460.656 282.691 456.183 274.335C451.71 265.98 445.197 258.891 437.249 253.728C429.3 248.565 420.176 245.496 410.723 244.807C401.27 244.118 391.797 245.83 383.183 249.785C374.57 253.74 367.097 259.809 361.459 267.427C355.821 275.046 352.201 283.966 350.937 293.359C349.672 302.752 350.803 312.313 354.225 321.151C357.647 329.99 363.249 337.819 370.509 343.911C371.679 344.875 372.593 346.112 373.172 347.513C373.751 348.913 373.976 350.435 373.828 351.943C373.817 352.093 373.817 352.244 373.828 352.394C373.828 359.176 388.171 364.851 405.955 365.056C423.739 365.261 438.266 359.913 438.348 353.111C438.348 352.967 438.348 352.824 438.348 352.681C438.212 351.141 438.461 349.591 439.072 348.171C439.684 346.751 440.639 345.505 441.852 344.546C448.309 339.369 453.54 332.826 457.167 325.386C460.795 317.947 462.73 309.796 462.832 301.52Z" fill="#263238"/>
<path opacity="0.7" d="M462.832 301.52C462.944 292.043 460.656 282.691 456.183 274.335C451.71 265.98 445.197 258.891 437.249 253.728C429.3 248.565 420.176 245.496 410.723 244.807C401.27 244.118 391.797 245.83 383.183 249.785C374.57 253.74 367.097 259.809 361.459 267.427C355.821 275.046 352.201 283.966 350.937 293.359C349.672 302.752 350.803 312.313 354.225 321.151C357.647 329.99 363.249 337.819 370.509 343.911C371.679 344.875 372.593 346.112 373.172 347.513C373.751 348.913 373.976 350.435 373.828 351.943C373.817 352.093 373.817 352.244 373.828 352.394C373.828 359.176 388.171 364.851 405.955 365.056C423.739 365.261 438.266 359.913 438.348 353.111C438.348 352.967 438.348 352.824 438.348 352.681C438.212 351.141 438.461 349.591 439.072 348.171C439.684 346.751 440.639 345.505 441.852 344.546C448.309 339.369 453.54 332.826 457.167 325.386C460.795 317.947 462.73 309.796 462.832 301.52Z" fill="white"/>
<path d="M416.036 355.754C415.907 355.729 415.792 355.656 415.716 355.549C415.64 355.442 415.608 355.31 415.626 355.181C415.79 354.095 419.724 329.098 432.98 320.042H424.088C423.99 320.044 423.894 320.015 423.813 319.96C423.733 319.905 423.671 319.826 423.637 319.735L420.748 312.748L413.987 326.107C413.945 326.192 413.881 326.263 413.802 326.314C413.722 326.364 413.63 326.392 413.536 326.394C413.444 326.393 413.354 326.366 413.278 326.315C413.201 326.264 413.142 326.191 413.106 326.107L406.693 312.318L400.034 324.242C399.931 324.406 399.747 324.529 399.603 324.488C399.516 324.489 399.431 324.467 399.355 324.423C399.279 324.38 399.217 324.318 399.173 324.242L392.801 312.195L389.748 319.182C389.713 319.275 389.647 319.354 389.562 319.406C389.476 319.457 389.376 319.48 389.277 319.468H379.873C383.212 323.033 395.362 337.273 395.157 355.058C395.157 355.344 394.932 355.611 394.666 355.549C394.535 355.549 394.41 355.498 394.318 355.405C394.226 355.313 394.174 355.188 394.174 355.058C394.399 334.979 378.541 319.468 378.377 319.325C378.304 319.26 378.252 319.174 378.23 319.078C378.208 318.983 378.217 318.883 378.254 318.792C378.296 318.702 378.362 318.626 378.446 318.571C378.529 318.517 378.626 318.487 378.725 318.485L388.97 318.587L392.309 310.986C392.346 310.901 392.406 310.827 392.482 310.773C392.558 310.718 392.647 310.686 392.74 310.679C392.832 310.678 392.922 310.703 393.002 310.75C393.081 310.797 393.146 310.864 393.19 310.945L399.644 323.034L406.344 311.047C406.393 310.972 406.459 310.91 406.538 310.867C406.617 310.824 406.705 310.801 406.795 310.802C406.884 310.804 406.97 310.832 407.043 310.883C407.116 310.934 407.172 311.006 407.205 311.088L413.597 324.816L420.297 311.232C420.338 311.148 420.402 311.078 420.482 311.03C420.562 310.983 420.655 310.96 420.748 310.966C420.842 310.968 420.934 310.998 421.01 311.053C421.087 311.108 421.145 311.184 421.178 311.273L424.354 318.956L434.598 319.079C434.702 319.084 434.801 319.122 434.882 319.187C434.963 319.252 435.021 319.341 435.048 319.441C435.075 319.541 435.07 319.647 435.034 319.744C434.997 319.841 434.931 319.924 434.844 319.981C420.891 327.93 416.589 355.058 416.527 355.324C416.512 355.443 416.454 355.553 416.363 355.633C416.273 355.712 416.156 355.755 416.036 355.754Z" fill="#263238"/>
<path opacity="0.2" d="M435.234 268.881C435.234 279.822 422.428 288.714 406.549 288.714C390.67 288.714 377.865 279.822 377.865 268.881C377.865 257.94 390.67 249.027 406.549 249.027C422.428 249.027 435.234 257.92 435.234 268.881Z" fill="white"/>
<path opacity="0.2" d="M427.509 331.905C427.509 339.896 418.166 346.391 406.631 346.391C395.096 346.391 385.773 339.896 385.773 331.905C385.773 323.914 395.116 317.419 406.631 317.419C418.146 317.419 427.509 323.914 427.509 331.905Z" fill="white"/>
<path d="M366.186 242.246C377.537 228.743 420.625 219.708 444.413 241.037C444.413 241.037 436.217 228.375 444.413 217.557C444.413 217.557 433.595 224.584 423.924 217.557C414.253 210.529 411.938 175.411 411.938 175.411C411.938 175.411 409.664 211.082 393.764 214.34C377.865 217.598 367.682 194.978 367.682 194.978C367.682 194.978 376.328 219.79 372.005 223.662C367.682 227.535 359.035 223.662 359.035 223.662L366.186 242.246Z" fill="#263238"/>
<path d="M340.8 266.873C340.8 266.873 325.147 297.258 340.8 324.427C337.562 322.358 333.89 321.063 330.07 320.644C326.25 320.225 322.385 320.692 318.775 322.009C318.775 322.009 324.921 315.514 324.04 308.63C323.159 301.745 294.864 292.013 294.864 292.013C294.864 292.013 317.156 294.062 322.012 286.338C326.868 278.613 309.719 263.657 309.719 263.657C309.719 263.657 328.466 273.778 332.523 270.541C336.58 267.304 332.523 257.162 332.523 257.162L340.8 266.873Z" fill="#263238"/>
<path d="M467.504 329.446C467.504 329.446 483.321 307.523 470.741 274.229L481.6 267.713C481.6 267.713 477.502 274.659 479.981 279.064C482.461 283.469 505.511 280.416 505.511 280.416C505.511 280.416 487.275 284.084 486.476 293.714C485.677 303.344 509.158 317.419 509.158 317.419C509.158 317.419 487.685 312.051 483.239 317.419C478.793 322.787 488.3 333.196 488.3 333.196C488.3 333.196 477.646 325.554 467.504 329.446Z" fill="#263238"/>
<path d="M549.767 567.978H343.361V746.559H549.767V567.978Z" fill="#263238"/>
<path opacity="0.7" d="M549.767 567.978H343.361V746.559H549.767V567.978Z" fill="white"/>
<path opacity="0.5" d="M393.498 731.643C395.496 731.253 397.289 730.161 398.552 728.564C399.815 726.966 400.464 724.97 400.382 722.935H393.6L392.637 724.984H393.272L390.855 729.082L392.207 725.62H391.183L392.146 722.895H384.892C384.81 724.926 385.456 726.92 386.715 728.517C387.974 730.114 389.762 731.208 391.756 731.602V738.036L387.843 740.085V741.273H397.596V740.085L393.662 738.036L393.498 731.643Z" fill="black"/>
<path opacity="0.5" d="M365.448 722.71H347.418V740.74H365.448V722.71Z" fill="black"/>
<path opacity="0.5" d="M543.005 719.616H517.886V740.474H543.005V719.616Z" fill="black"/>
<path opacity="0.5" d="M448.469 580.681H418.74V599.592H448.469V580.681Z" fill="black"/>
<path opacity="0.1" d="M411.999 567.978H343.361V746.559H411.999V567.978Z" fill="black"/>
<path d="M377.537 612.972H308.899L343.361 567.978H411.999L377.537 612.972Z" fill="#263238"/>
<path opacity="0.1" d="M411.999 567.978L379.668 619.835L343.361 633.645V567.978H411.999Z" fill="black"/>
<path d="M444.269 608.915H582.037L549.767 567.978H411.999L444.269 608.915Z" fill="#263238"/>
<path opacity="0.6" d="M377.537 612.972H308.899L343.361 567.978H411.999L377.537 612.972Z" fill="white"/>
<path opacity="0.6" d="M444.269 608.915H582.037L549.767 567.978H411.999L444.269 608.915Z" fill="white"/>
</svg>
