<svg width="1440" height="886" viewBox="0 0 1440 886" fill="none" xmlns="http://www.w3.org/2000/svg">
<path fill-rule="evenodd" clip-rule="evenodd" d="M-2103 547.143L-1887.62 603.619C-1672.25 660.095 -1241.5 773.048 -810.75 660.095C-380 547.143 50.75 208.286 481.5 123.571C912.25 38.8571 1343 208.286 1773.75 377.714C2204.5 547.143 2635.25 716.571 2850.62 801.286L3066 886V-300H2850.62C2635.25 -300 2204.5 -300 1773.75 -300C1343 -300 912.25 -300 481.5 -300C50.75 -300 -380 -300 -810.75 -300C-1241.5 -300 -1672.25 -300 -1887.62 -300H-2103V547.143Z" fill="#FF725E"/>
</svg>
