<svg width="228" height="249" viewBox="0 0 228 249" fill="none" xmlns="http://www.w3.org/2000/svg">
<path d="M114.387 248.656C177.116 248.656 227.969 218.228 227.969 180.692C227.969 143.156 177.116 112.727 114.387 112.727C51.6576 112.727 0.80542 143.156 0.80542 180.692C0.80542 218.228 51.6576 248.656 114.387 248.656Z" fill="#F0F0F0"/>
<path d="M28.6808 202.087L94.8432 240.27C95.2644 240.487 95.7311 240.6 96.2046 240.6C96.6781 240.6 97.1448 240.487 97.566 240.27L185.265 189.628C186.011 189.197 186.011 188.495 185.265 188.065L119.103 149.876C118.681 149.662 118.214 149.55 117.741 149.55C117.268 149.55 116.802 149.662 116.38 149.876L28.708 200.546C27.9347 200.998 27.9347 201.673 28.6808 202.087Z" fill="#E0E0E0"/>
<path d="M197.332 189.764C204.788 189.764 210.832 186.275 210.832 181.971C210.832 177.668 204.788 174.179 197.332 174.179C189.877 174.179 183.833 177.668 183.833 181.971C183.833 186.275 189.877 189.764 197.332 189.764Z" fill="#E0E0E0"/>
<path d="M70.7688 203.198C86.5459 203.198 99.3357 195.813 99.3357 186.703C99.3357 177.594 86.5459 170.209 70.7688 170.209C54.9917 170.209 42.2018 177.594 42.2018 186.703C42.2018 195.813 54.9917 203.198 70.7688 203.198Z" fill="#E0E0E0"/>
<path d="M102.412 44.2227C99.352 41.0915 97.4734 41.7395 97.5115 45.2736C97.555 47.8875 96.6783 47.3266 96.6783 47.3266L94.7561 51.2473C94.9957 51.9069 94.9957 52.6298 94.7561 53.2894C93.5635 56.3715 89.3106 62.9333 86.3428 67.0174C83.996 63.7798 81.8273 60.4168 79.8464 56.9433C77.0365 52.2003 74.2757 47.1414 69.1079 47.3211L68.3619 58.4353C71.5584 63.8209 73.8073 66.2768 81.1097 74.5866C82.2755 75.9084 83.5955 77.0857 85.0414 78.0935C87.4537 79.689 90.7482 76.0896 92.518 73.1272C94.8378 69.2392 97.2446 63.7556 100.065 57.9126C101.122 55.7344 102.396 53.3003 103.044 51.5033C104.71 46.8093 103.507 45.339 102.412 44.2227Z" fill="#FFB194"/>
<path d="M103.523 49.8424L102.276 48.3285L102.696 46.8092L101.775 48.481L96.8744 47.3919C96.8234 47.3932 96.7729 47.382 96.7273 47.3592H96.6947L96.5749 47.5934C96.5749 47.9419 96.8199 48.4374 97.6367 49.1181C98.3312 49.7739 99.2465 50.1451 100.202 50.1582C100.407 50.1584 100.612 50.1234 100.806 50.0547L103.06 51.3998C103.246 50.828 103.403 50.3161 103.523 49.8424Z" fill="#663838"/>
<path d="M84.0122 40.0786C84.0122 40.8791 83.9849 42.4801 86.5334 43.6236C89.0819 44.7672 91.919 43.5202 91.919 41.8375L84.0122 40.0786Z" fill="#EBEBEB"/>
<path d="M108.016 51.5904L90.8081 41.6578L90.5631 43.0791L90.4923 43.6237L106.654 52.9517C106.891 53.0962 107.157 53.1836 107.433 53.2073C107.709 53.2309 107.987 53.19 108.244 53.0879C108.31 53.0561 108.365 53.0076 108.405 52.9473C108.446 52.887 108.469 52.8171 108.473 52.7448C108.473 52.6359 108.473 52.2329 108.473 52.1295C108.473 51.977 108.315 51.7919 108.016 51.5904Z" fill="#EBEBEB"/>
<path d="M85.7493 42.2078C87.5571 43.2533 90.0185 43.5311 91.2383 42.8232C92.4581 42.1152 91.9898 40.694 90.1819 39.6484C88.374 38.6029 85.9181 38.3197 84.6928 39.0277C83.4676 39.7356 83.9414 41.1568 85.7493 42.2078Z" fill="#F5F5F5"/>
<path d="M89.4467 42.4474L90.8081 41.6578L108.021 51.5904C108.522 51.8844 108.626 52.2928 108.245 52.5107C107.988 52.614 107.71 52.656 107.434 52.6334C107.158 52.6107 106.891 52.5239 106.654 52.38L89.4467 42.4474Z" fill="#F5F5F5"/>
<path d="M90.5576 43.09L90.4923 43.6618L106.654 52.9899V52.38L90.5576 43.09Z" fill="#E0E0E0"/>
<path d="M76.2415 69.5931L69.4074 60.3358C69.4074 60.3358 65.1926 52.0151 68.1767 47.1632C68.1767 47.1632 73.3336 46.7875 76.0781 50.5394C78.3598 53.6705 81.687 58.7512 84.0122 62.5793C83.3914 65.7323 80.1078 68.8525 76.2415 69.5931Z" fill="#37474F"/>
<path d="M88.5428 42.5346C90.6121 42.5346 90.9443 41.7994 90.8626 40.9009C90.7809 40.0024 89.7027 38.7228 87.6987 38.3797C85.6948 38.0366 84.4315 38.6629 84.2082 39.4688C83.8651 40.7267 86.4681 42.5346 88.5428 42.5346Z" fill="#455A64"/>
<path opacity="0.1" d="M90.8626 40.9009C90.83 40.6406 90.7428 40.39 90.6066 40.1658C90.4814 40.9281 89.327 41.5544 87.7695 41.3801C85.9725 41.1786 84.2844 40.046 84.3825 39.1257C84.3051 39.2332 84.2462 39.3528 84.2082 39.4796C83.8815 40.7539 86.4681 42.5563 88.5646 42.5563C90.6611 42.5563 90.9443 41.794 90.8626 40.9009Z" fill="black"/>
<path d="M95.7036 45.0123C95.5251 44.6766 95.2222 44.4242 94.8598 44.3092C94.4974 44.1942 94.1044 44.2257 93.765 44.3969C93.4818 44.5766 93.9447 45.2519 94.07 46.5751C94.2333 48.3013 94.1081 49.4939 94.7289 51.2419L96.5422 47.6206C96.1882 46.6132 96.0412 45.4969 95.7036 45.0123Z" fill="#FFB194"/>
<path d="M99.1124 42.2078C97.7674 42.2078 96.662 42.7524 96.21 43.5365C95.758 44.3207 96.0739 46.8038 96.5422 47.6478C97.0105 48.4919 99.5426 49.8587 100.594 49.581C101.645 49.3033 102.636 46.8092 102.636 46.8092L99.1124 42.2078Z" fill="#FFB194"/>
<path d="M86.1087 32.9505C83.9305 31.5401 82.9666 29.1006 84.377 26.5303C85.7874 23.9601 86.9582 21.4388 85.2211 19.4185C85.9236 19.5221 86.581 19.8273 87.1136 20.297C87.6462 20.7668 88.031 21.3809 88.2215 22.065C89.022 24.5264 87.7913 26.7481 86.5879 28.3709C85.3844 29.9936 85.1285 31.8342 86.1087 32.9505Z" fill="#F0F0F0"/>
<path d="M90.0893 34.7203C88.1507 33.4515 87.274 31.257 88.5374 28.9481C89.8007 26.6392 90.8571 24.3739 89.2943 22.5551C89.9243 22.6503 90.5135 22.9255 90.9907 23.3477C91.468 23.7699 91.813 24.3211 91.9843 24.9348C92.7031 27.1457 91.5977 29.1441 90.5032 30.6035C89.4086 32.0629 89.2126 33.7183 90.0893 34.7203Z" fill="#F0F0F0"/>
<path d="M55.0096 172.485H48.8453V183.48H55.0096V172.485Z" fill="#FFB194"/>
<path d="M69.0045 172.496L75.1034 172.714L75.4083 161.208L69.0045 160.99V172.496Z" fill="#FFB194"/>
<path d="M48.1211 80.2063C48.1211 85.9731 48.9706 132.401 48.9706 132.401C48.8344 134.062 47.3369 137.122 47.6636 143.499C48.1047 152.163 48.6874 177.658 48.6874 177.658C49.6829 178.171 50.7822 178.449 51.9014 178.471C53.0207 178.494 54.1303 178.261 55.1457 177.789C55.1457 177.789 59.8506 143.161 60.8907 134.574C61.7946 127.086 64.4792 105.582 64.4792 105.582L67.2619 131.563C66.5911 134.716 66.3493 137.945 66.5431 141.163C66.8154 145.133 68.6831 168.543 68.6831 168.543C68.6831 168.543 71.4059 170.476 75.3756 169.087C75.3756 169.087 78.6756 135.211 78.7464 131.573C78.8226 127.419 76.8187 80.1519 76.8187 80.1519L48.1211 80.2063Z" fill="#455A64"/>
<path opacity="0.2" d="M48.1211 80.2063C48.1211 85.9731 48.9706 132.401 48.9706 132.401C48.8344 134.062 47.3369 137.122 47.6636 143.499C48.1047 152.163 48.6874 177.658 48.6874 177.658C49.6829 178.171 50.7822 178.449 51.9014 178.471C53.0207 178.494 54.1303 178.261 55.1457 177.789C55.1457 177.789 59.8506 143.161 60.8907 134.574C61.7946 127.086 64.4792 105.582 64.4792 105.582L67.2619 131.563C66.5911 134.716 66.3493 137.945 66.5431 141.163C66.8154 145.133 68.6831 168.543 68.6831 168.543C68.6831 168.543 71.4059 170.476 75.3756 169.087C75.3756 169.087 78.6756 135.211 78.7464 131.573C78.8226 127.419 76.8187 80.1519 76.8187 80.1519L48.1211 80.2063Z" fill="black"/>
<path d="M55.0042 180.305V179.385C55.5977 179.651 57.7269 185.952 60.1828 188.277C62.1268 190.123 64.7788 192.258 65.454 194.316C66.1565 196.462 61.7565 197.643 59.9432 197.306C57.8304 196.919 54.171 195.367 53.2507 193.935C52.3304 192.503 51.9057 190.384 51.1597 189.328C50.4136 188.272 47.925 186.251 47.5221 185.032C47.2988 184.367 47.5602 182.902 47.8706 181.661C48.1592 180.528 48.4696 179.281 48.8399 179.385V180.087C49.2864 180.604 50.528 181.116 51.922 181.176C52.826 181.214 55.0042 181.024 55.0042 180.305Z" fill="#37474F"/>
<path d="M75.1524 170.759C75.4737 170.759 75.7296 171.233 76.4266 172.022C77.2707 172.975 79.9989 174.614 81.3602 175.328C83.6473 176.515 88.0854 178.35 90.073 179.292C91.3309 179.88 91.271 181.47 89.975 182.358C88.6789 183.246 85.5423 183.904 81.7795 183.028C79.732 182.548 77.1781 181.078 75.3757 180.686C73.742 180.327 69.1787 180.142 67.9317 179.259C66.6847 178.377 67.1857 176.45 67.5396 174.81C67.9208 173.019 68.4054 170.22 68.9718 170.345V170.961C69.7069 172.12 73.4915 172.594 75.1034 171.739L75.1524 170.759Z" fill="#37474F"/>
<path opacity="0.2" d="M64.7407 102.979C67.5485 102.036 70.1 100.455 72.1955 98.3615C72.1955 98.3615 71.5965 101.302 66.0203 104.226L66.9842 129.466L64.4629 105.582L64.7407 102.979Z" fill="black"/>
<path d="M51.3666 48.0508C51.3666 48.0508 45.8503 49.7335 46.1716 58.3972L48.2899 73.5737L47.9251 92.2463C52.1889 97.0818 71.101 96.7279 77.5702 91.8596C77.5702 91.8596 76.8405 67.3986 76.3994 57.9834C76.089 51.2909 74.5534 47.9201 67.9753 47.185L59.8833 47.539L51.3666 48.0508Z" fill="#455A64"/>
<path d="M51.3666 48.0508C46.6345 48.7261 45.9211 49.4231 41.3632 57.0794C39.9801 59.3883 38.5153 61.9259 37.3282 63.9679C35.6945 58.8655 32.8411 49.8097 33.3257 47.5771C33.3856 47.3157 33.6089 46.7494 33.7777 46.3083C34.1779 45.2154 34.4217 44.0714 34.502 42.9103C34.5582 42.4184 34.6474 41.9309 34.7688 41.4509C34.8139 41.3254 34.8271 41.1907 34.8069 41.0588C34.7648 40.9408 34.679 40.8433 34.5673 40.7866C34.413 40.7173 34.2428 40.6914 34.075 40.7115C33.9071 40.7317 33.7478 40.7971 33.6143 40.9009C32.95 41.3801 32.7649 42.295 32.4436 42.992C32.375 43.1789 32.2502 43.3399 32.0864 43.453C31.9226 43.5661 31.7278 43.6257 31.5287 43.6237C31.2682 43.6318 31.0116 43.5596 30.7936 43.4167C29.9223 42.8722 30.053 41.696 30.2 41.1514C30.4311 40.4514 30.9041 39.8568 31.5342 39.4742C31.6738 39.373 31.8347 39.3051 32.0046 39.2758C32.1746 39.2466 32.3489 39.2567 32.5144 39.3054C32.9772 39.4851 33.0589 40.0296 33.4346 40.291C33.5566 40.3853 33.7089 40.4313 33.8627 40.4203C34.0164 40.4092 34.1606 40.3419 34.2678 40.2311C34.3431 40.127 34.39 40.005 34.4039 39.8772C34.4467 39.3913 34.3363 38.9043 34.0882 38.4844C33.8402 38.0645 33.4669 37.7327 33.0208 37.5356C32.5702 37.3502 32.0864 37.2594 31.5993 37.2688C31.1122 37.2781 30.6322 37.3875 30.1891 37.5901C29.9224 37.6853 29.6785 37.8352 29.4731 38.0303C29.2677 38.2254 29.1054 38.4612 28.9966 38.7227C28.9149 37.1708 28.8223 36.2287 28.8496 34.5515C28.8659 32.7327 28.9694 30.5545 27.608 31.3713C26.4263 32.0847 26.6877 39.2074 26.6877 39.2074C26.2965 37.623 26.0919 35.9983 26.0778 34.3664C26.0234 33.0159 26.2739 31.6872 25.1739 31.7689C23.4368 31.8996 24.5204 39.5559 24.5204 39.5559C23.5566 37.2579 23.6873 33.5659 22.6526 33.7075C21.618 33.849 21.6234 35.3901 22.0754 39.1529C22.413 41.9192 22.8214 44.9959 24.2536 47.4083C24.6852 48.1151 25.0498 48.8608 25.3427 49.6355C26.4318 53.2186 26.8075 57.1175 27.4283 60.7987C28.2996 65.9719 29.4758 74.2218 33.5218 78.1044C34.1761 78.847 35.074 79.3317 36.0539 79.4712C36.6246 79.5239 37.1972 79.3922 37.6876 79.0954C41.4395 76.4816 44.1132 71.7277 45.9266 68.7491C47.631 65.9174 48.9379 64.2674 50.174 61.9586C52.8859 56.9106 52.423 50.7354 51.3666 48.0508Z" fill="#FFB194"/>
<path d="M37.3281 63.9679C38.1994 66.4837 38.9073 69.1738 38.5098 72.0272C38.5098 72.0272 40.5083 67.3169 38.0415 62.7699L37.3281 63.9679Z" fill="#663838"/>
<path d="M52.4884 47.98C47.9686 48.0399 44.8102 49.4176 42.2781 54.1987C39.746 58.9799 37.5296 63.0803 37.5296 63.0803C37.5296 63.0803 39.7078 69.8163 45.088 70.9054L51.5299 60.766C51.5299 60.766 54.8735 56.0012 52.4884 47.98Z" fill="#37474F"/>
<path d="M57.46 30.0699C57.46 35.0416 61.3263 39.0658 66.0966 39.0658C70.8668 39.0658 73.6875 34.9272 74.7331 30.0699C76.6444 21.1883 70.8668 21.0794 66.0966 21.0794C61.3263 21.0794 57.46 25.1091 57.46 30.0699Z" fill="#263238"/>
<path d="M53.0547 33.7129C53.0547 33.7129 54.3779 40.193 54.9116 41.2549C55.2566 41.9065 55.843 42.3971 56.5452 42.6217L56.4526 38.0638L53.0547 33.7129Z" fill="#263238"/>
<path d="M54.721 24.4229C54.721 24.4229 53.768 24.1888 52.7606 25.7625C51.8948 27.113 51.6987 30.1516 53.0547 33.7129L55.5487 34.007L54.721 24.4229Z" fill="#263238"/>
<path d="M53.8007 25.7353L50.7403 25.7952C50.7135 25.5944 50.7293 25.3902 50.7866 25.1959C50.8439 25.0016 50.9415 24.8215 51.073 24.6674C51.2045 24.5133 51.367 24.3887 51.5498 24.3015C51.7327 24.2143 51.9319 24.1667 52.1344 24.1616C52.5588 24.1673 52.9656 24.3323 53.2742 24.6237C53.5828 24.9152 53.7707 25.3119 53.8007 25.7353Z" fill="#263238"/>
<path d="M53.425 25.011L51.1597 22.8329C51.2906 22.6793 51.4519 22.5546 51.6335 22.4666C51.8151 22.3786 52.0129 22.3292 52.2145 22.3216C52.4161 22.3139 52.6171 22.3481 52.8049 22.422C52.9926 22.496 53.163 22.6081 53.3052 22.7512C53.613 23.0395 53.7974 23.4358 53.8198 23.857C53.8421 24.2782 53.7006 24.6918 53.425 25.011Z" fill="#263238"/>
<path d="M56.3002 34.0124C55.7992 34.3228 55.0858 33.3208 54.4705 32.651C53.8552 31.9812 51.9166 31.3441 50.9092 33.5441C49.9018 35.7441 51.6171 37.9277 53.0547 38.6465C55.6304 39.9262 56.4472 38.0638 56.4472 38.0638L56.6541 48.3285C60.2863 53.9428 68.5634 54.678 65.5466 48.0617V44.936C66.7624 45.1392 67.9972 45.2049 69.2277 45.132C71.2371 44.8108 72.495 43.1553 73.1103 40.89C74.0905 37.2525 74.4608 34.3119 73.6549 27.1566C72.7455 19.3151 63.9837 19.2334 59.2516 22.3319C54.5195 25.4303 56.3002 34.0124 56.3002 34.0124Z" fill="#FFB194"/>
<path d="M67.2183 25.9313C65.1273 25.7244 63.058 25.2996 60.9615 25.1417C60.5091 25.0868 60.0506 25.1089 59.6056 25.2071C57.9719 25.6427 58.2061 27.5105 57.9719 28.8174C57.5309 31.061 57.166 34.8728 56.3383 34.8891C56.0878 34.8891 55.1294 33.2555 54.5086 32.651C54.1057 32.2644 54.0349 31.4421 53.9641 30.9303C53.8062 29.9991 53.719 29.057 53.6482 28.115C53.5883 27.3199 53.5067 26.4813 53.5067 25.7081C53.4681 24.8079 53.5394 23.9064 53.719 23.0234C53.9193 22.2701 54.3028 21.5779 54.8354 21.0086L54.9987 20.8344C56.0502 19.7325 57.3285 18.8723 58.7452 18.3131C60.7629 17.5557 62.8795 17.0935 65.0293 16.9409C67.2075 16.7176 69.3856 16.5978 71.4876 16.1622C71.6081 16.1241 71.7374 16.1241 71.8579 16.1622C71.9444 16.2106 72.0175 16.2797 72.0708 16.3633C72.124 16.4469 72.1556 16.5425 72.1628 16.6414C72.2481 17.1379 72.1911 17.6484 71.9983 18.1138C71.8056 18.5793 71.485 18.9806 71.0737 19.2715C72.5222 19.3859 74.1831 18.629 75.5717 18.2532C75.6847 18.206 75.8059 18.1817 75.9284 18.1817C76.0508 18.1817 76.1721 18.206 76.2851 18.2532C76.423 18.3523 76.5213 18.497 76.5628 18.6616C76.6625 19.0386 76.6756 19.4333 76.6009 19.8161C76.4706 20.9653 76.0405 22.0601 75.3539 22.9908C74.2784 24.3936 72.7573 25.3884 71.0411 25.8115C69.7805 26.0469 68.4912 26.0873 67.2183 25.9313Z" fill="#263238"/>
<path d="M65.5411 44.936C65.5411 44.936 61.0541 43.994 59.4858 43.1281C58.5497 42.6201 57.7901 41.8396 57.3076 40.89C57.542 41.8404 57.9601 42.7358 58.5383 43.5257C59.6873 45.0558 65.5303 46.1776 65.5303 46.1776L65.5411 44.936Z" fill="#663838"/>
<path d="M64.4629 32.8416C64.4491 33.017 64.3845 33.1845 64.277 33.3236C64.1694 33.4628 64.0236 33.5676 63.8574 33.6251C63.6912 33.6826 63.5118 33.6904 63.3412 33.6475C63.1706 33.6046 63.0163 33.5128 62.8971 33.3835C62.7779 33.2542 62.699 33.0929 62.6701 32.9194C62.6412 32.7459 62.6635 32.5678 62.7343 32.4068C62.8052 32.2458 62.9214 32.109 63.0689 32.0131C63.2163 31.9172 63.3885 31.8664 63.5644 31.8669C63.8124 31.8782 64.0459 31.9869 64.2141 32.1695C64.3824 32.352 64.4718 32.5935 64.4629 32.8416Z" fill="#263238"/>
<path d="M63.0199 28.9644L61.0922 30.0535C60.9541 29.7801 60.924 29.4648 61.0077 29.1703C61.0915 28.8757 61.283 28.6234 61.5442 28.4635C61.6724 28.392 61.8143 28.3483 61.9605 28.3351C62.1067 28.3218 62.2541 28.3394 62.3932 28.3866C62.5322 28.4338 62.6598 28.5096 62.7677 28.6091C62.8757 28.7086 62.9616 28.8297 63.0199 28.9644Z" fill="#263238"/>
<path d="M65.1327 39.3109L67.1857 40.1113C67.1425 40.2506 67.0719 40.3798 66.9779 40.4913C66.8839 40.6028 66.7684 40.6942 66.6384 40.7602C66.5084 40.8263 66.3665 40.8655 66.221 40.8756C66.0755 40.8858 65.9295 40.8666 65.7916 40.8192C65.5116 40.6975 65.288 40.4743 65.1658 40.1945C65.0436 39.9147 65.0318 39.599 65.1327 39.3109Z" fill="#663838"/>
<path d="M72.7074 29.7922L70.9539 28.3764C71.0329 28.2539 71.1369 28.1496 71.259 28.0701C71.3812 27.9906 71.5187 27.9379 71.6627 27.9153C71.8066 27.8926 71.9537 27.9007 72.0943 27.9388C72.2349 27.977 72.3659 28.0445 72.4787 28.1368C72.716 28.3347 72.8709 28.6141 72.9132 28.9202C72.9555 29.2264 72.8821 29.5373 72.7074 29.7922Z" fill="#263238"/>
<path d="M71.9396 32.5748C71.9258 32.7502 71.8611 32.9177 71.7536 33.0568C71.646 33.196 71.5002 33.3007 71.334 33.3583C71.1678 33.4158 70.9884 33.4236 70.8178 33.3807C70.6473 33.3377 70.4929 33.246 70.3737 33.1167C70.2545 32.9874 70.1756 32.8261 70.1467 32.6526C70.1178 32.4791 70.1401 32.3009 70.211 32.14C70.2818 31.979 70.3981 31.8421 70.5455 31.7462C70.693 31.6504 70.8652 31.5996 71.041 31.6001C71.289 31.6114 71.5225 31.7201 71.6908 31.9027C71.859 32.0852 71.9484 32.3267 71.9396 32.5748Z" fill="#263238"/>
<path d="M67.1258 31.8233L67.2292 37.503L70.453 36.7624L67.1258 31.8233Z" fill="#663838"/>
<path d="M103.785 227.381C103.778 227.536 103.819 227.689 103.9 227.821C103.982 227.953 104.101 228.058 104.242 228.122C104.628 228.32 105.055 228.424 105.489 228.424C105.923 228.424 106.35 228.32 106.736 228.122C106.885 228.058 107.016 227.958 107.115 227.83C107.215 227.702 107.282 227.552 107.308 227.392V161.79L103.785 161.839V227.381Z" fill="#455A64"/>
<path d="M105.68 228.405C106.049 228.387 106.41 228.286 106.736 228.111C106.885 228.047 107.016 227.947 107.115 227.819C107.215 227.692 107.282 227.541 107.308 227.381V161.79H105.723L105.68 228.405Z" fill="#37474F"/>
<path d="M104.291 162.52C104.678 162.715 105.105 162.816 105.538 162.816C105.971 162.816 106.398 162.715 106.785 162.52C107.477 162.117 107.482 161.475 106.785 161.082C106.399 160.884 105.972 160.78 105.538 160.78C105.104 160.78 104.677 160.884 104.291 161.082C103.616 161.48 103.605 162.128 104.291 162.52Z" fill="#263238"/>
<path d="M175.235 188.473C175.228 188.628 175.269 188.781 175.35 188.913C175.432 189.045 175.551 189.15 175.692 189.214C176.079 189.409 176.506 189.51 176.939 189.51C177.372 189.51 177.799 189.409 178.186 189.214C178.336 189.149 178.467 189.048 178.567 188.92C178.667 188.791 178.732 188.639 178.758 188.479V122.823L175.235 122.872V188.473Z" fill="#455A64"/>
<path d="M177.13 189.464C177.499 189.448 177.86 189.349 178.186 189.176C178.336 189.111 178.467 189.01 178.567 188.882C178.667 188.753 178.732 188.601 178.758 188.44V122.823H177.179L177.13 189.464Z" fill="#37474F"/>
<path d="M175.741 123.579C176.127 123.778 176.554 123.882 176.988 123.882C177.422 123.882 177.849 123.778 178.235 123.579C178.927 123.182 178.932 122.534 178.235 122.142C177.848 121.947 177.421 121.846 176.988 121.846C176.555 121.846 176.128 121.947 175.741 122.142C175.066 122.545 175.055 123.187 175.741 123.579Z" fill="#263238"/>
<path d="M34.7688 199.576C34.764 199.731 34.8049 199.884 34.8862 200.015C34.9675 200.147 35.0858 200.252 35.2262 200.317C35.6118 200.516 36.0394 200.619 36.4732 200.619C36.907 200.619 37.3346 200.516 37.7202 200.317C37.8641 200.25 37.9891 200.148 38.0841 200.021C38.1791 199.893 38.2411 199.744 38.2648 199.587V133.959L34.7415 134.008L34.7688 199.576Z" fill="#455A64"/>
<path d="M36.6638 200.6C37.0336 200.583 37.3947 200.483 37.7202 200.306C37.8641 200.239 37.9891 200.137 38.0841 200.01C38.1791 199.882 38.2412 199.734 38.2648 199.576V133.959H36.6856L36.6638 200.6Z" fill="#37474F"/>
<path d="M35.2752 134.715C35.662 134.91 36.0891 135.012 36.5222 135.012C36.9553 135.012 37.3824 134.91 37.7692 134.715C38.4608 134.313 38.4717 133.67 37.7692 133.272C37.3843 133.075 36.9577 132.971 36.5249 132.971C36.0921 132.971 35.6656 133.075 35.2806 133.272C34.6 133.675 34.5945 134.318 35.2752 134.715Z" fill="#263238"/>
<path d="M27.3248 134.432V133.888C27.3504 133.418 27.4865 132.96 27.7221 132.552C27.9577 132.144 28.2861 131.798 28.6808 131.541L116.38 80.8979C116.801 80.6815 117.268 80.5686 117.741 80.5686C118.215 80.5686 118.682 80.6815 119.103 80.8979L185.265 119.082C185.66 119.339 185.988 119.685 186.224 120.093C186.459 120.501 186.596 120.958 186.621 121.429V121.973C186.596 122.443 186.459 122.901 186.224 123.309C185.988 123.717 185.66 124.063 185.265 124.32L97.5932 174.99C97.1712 175.204 96.7048 175.315 96.2318 175.315C95.7588 175.315 95.2924 175.204 94.8704 174.99L28.6808 136.785C28.2866 136.526 27.9587 136.178 27.7232 135.77C27.4877 135.361 27.3513 134.903 27.3248 134.432Z" fill="#455A64"/>
<g opacity="0.5">
<path d="M27.3248 134.432V133.888C27.3504 133.418 27.4865 132.96 27.7221 132.552C27.9577 132.144 28.2861 131.798 28.6808 131.541L116.38 80.8979C116.801 80.6815 117.268 80.5686 117.741 80.5686C118.215 80.5686 118.682 80.6815 119.103 80.8979L185.265 119.082C185.66 119.339 185.988 119.685 186.224 120.093C186.459 120.501 186.596 120.958 186.621 121.429V121.973C186.596 122.443 186.459 122.901 186.224 123.309C185.988 123.717 185.66 124.063 185.265 124.32L97.5932 174.99C97.1712 175.204 96.7048 175.315 96.2318 175.315C95.7588 175.315 95.2924 175.204 94.8704 174.99L28.6808 136.785C28.2866 136.526 27.9587 136.178 27.7232 135.77C27.4877 135.361 27.3513 134.903 27.3248 134.432Z" fill="black"/>
</g>
<path d="M96.1991 171.625V175.29C95.7277 175.295 95.2621 175.185 94.8432 174.968L28.6862 136.785C28.2913 136.528 27.9626 136.182 27.727 135.774C27.4913 135.366 27.3554 134.908 27.3303 134.438V133.893C27.3491 133.474 27.4558 133.064 27.6434 132.688C27.831 132.313 28.0954 131.982 28.4194 131.715C27.9293 132.129 28.011 132.717 28.6699 133.104L94.8269 171.287C95.2472 171.517 95.7201 171.633 96.1991 171.625Z" fill="#455A64"/>
<g opacity="0.55">
<path d="M96.1991 171.625V175.29C95.7277 175.295 95.2621 175.185 94.8432 174.968L28.6862 136.785C28.2913 136.528 27.9626 136.182 27.727 135.774C27.4913 135.366 27.3554 134.908 27.3303 134.438V133.893C27.3488 133.474 27.4553 133.063 27.643 132.688C27.8306 132.313 28.0951 131.981 28.4194 131.715C27.9293 132.129 28.011 132.717 28.6699 133.104L94.8269 171.287C95.2472 171.517 95.7201 171.633 96.1991 171.625Z" fill="black"/>
</g>
<path d="M28.6807 133.115L94.8432 171.298C95.2651 171.512 95.7315 171.623 96.2046 171.623C96.6776 171.623 97.144 171.512 97.5659 171.298L185.265 120.655C186.011 120.225 186.011 119.523 185.265 119.092L119.103 80.9088C118.682 80.6924 118.215 80.5795 117.741 80.5795C117.268 80.5795 116.801 80.6924 116.38 80.9088L28.7079 131.552C27.9347 131.976 27.9347 132.679 28.6807 133.115Z" fill="#455A64"/>
<g opacity="0.4">
<path d="M28.6807 133.115L94.8432 171.298C95.2651 171.512 95.7315 171.623 96.2046 171.623C96.6776 171.623 97.144 171.512 97.5659 171.298L185.265 120.655C186.011 120.225 186.011 119.523 185.265 119.092L119.103 80.9088C118.682 80.6924 118.215 80.5795 117.741 80.5795C117.268 80.5795 116.801 80.6924 116.38 80.9088L28.7079 131.552C27.9347 131.976 27.9347 132.679 28.6807 133.115Z" fill="black"/>
</g>
<path opacity="0.15" d="M131.017 112.313L141.538 106.247C141.831 106.096 142.156 106.018 142.486 106.018C142.815 106.018 143.14 106.096 143.433 106.247L169.947 121.543C170.06 121.583 170.158 121.656 170.227 121.754C170.296 121.851 170.333 121.968 170.333 122.087C170.333 122.207 170.296 122.324 170.227 122.421C170.158 122.519 170.06 122.592 169.947 122.632L159.421 128.709C159.128 128.857 158.804 128.933 158.476 128.933C158.148 128.933 157.825 128.857 157.531 128.709L131.017 113.407C130.9 113.372 130.797 113.299 130.724 113.201C130.651 113.102 130.611 112.983 130.611 112.86C130.611 112.737 130.651 112.618 130.724 112.519C130.797 112.421 130.9 112.348 131.017 112.313Z" fill="black"/>
<path d="M139.91 111.54C139.91 113.173 138.581 115.019 136.948 115.019C135.314 115.019 133.985 113.173 133.985 111.54C133.985 110.754 134.297 110 134.853 109.445C135.408 108.889 136.162 108.577 136.948 108.577C137.733 108.577 138.487 108.889 139.042 109.445C139.598 110 139.91 110.754 139.91 111.54Z" fill="#455A64"/>
<path opacity="0.6" d="M139.91 111.54C139.91 113.173 138.581 115.019 136.948 115.019C135.314 115.019 133.985 113.173 133.985 111.54C133.985 110.754 134.297 110 134.853 109.445C135.408 108.889 136.162 108.577 136.948 108.577C137.733 108.577 138.487 108.889 139.042 109.445C139.598 110 139.91 110.754 139.91 111.54Z" fill="black"/>
<path d="M145.219 114.605C145.219 116.239 143.891 118.085 142.257 118.085C140.623 118.085 139.295 116.239 139.295 114.605C139.295 113.82 139.607 113.066 140.162 112.511C140.718 111.955 141.471 111.643 142.257 111.643C143.043 111.643 143.796 111.955 144.352 112.511C144.907 113.066 145.219 113.82 145.219 114.605Z" fill="#455A64"/>
<path opacity="0.6" d="M145.219 114.605C145.219 116.239 143.891 118.085 142.257 118.085C140.623 118.085 139.295 116.239 139.295 114.605C139.295 113.82 139.607 113.066 140.162 112.511C140.718 111.955 141.471 111.643 142.257 111.643C143.043 111.643 143.796 111.955 144.352 112.511C144.907 113.066 145.219 113.82 145.219 114.605Z" fill="black"/>
<path d="M150.529 117.682C150.529 119.316 149.2 121.162 147.566 121.162C145.933 121.162 144.604 119.316 144.604 117.682C144.604 116.896 144.916 116.143 145.472 115.587C146.027 115.032 146.781 114.72 147.566 114.72C148.352 114.72 149.105 115.032 149.661 115.587C150.216 116.143 150.529 116.896 150.529 117.682Z" fill="#455A64"/>
<path opacity="0.6" d="M150.529 117.682C150.529 119.316 149.2 121.162 147.566 121.162C145.933 121.162 144.604 119.316 144.604 117.682C144.604 116.896 144.916 116.143 145.472 115.587C146.027 115.032 146.781 114.72 147.566 114.72C148.352 114.72 149.105 115.032 149.661 115.587C150.216 116.143 150.529 116.896 150.529 117.682Z" fill="black"/>
<path d="M155.838 120.737C155.838 122.371 154.509 124.222 152.876 124.222C151.242 124.222 149.913 122.376 149.913 120.737C149.913 119.951 150.225 119.198 150.781 118.642C151.336 118.087 152.09 117.775 152.876 117.775C153.661 117.775 154.415 118.087 154.97 118.642C155.526 119.198 155.838 119.951 155.838 120.737Z" fill="#455A64"/>
<path opacity="0.6" d="M155.838 120.737C155.838 122.371 154.509 124.222 152.876 124.222C151.242 124.222 149.913 122.376 149.913 120.737C149.913 119.951 150.225 119.198 150.781 118.642C151.336 118.087 152.09 117.775 152.876 117.775C153.661 117.775 154.415 118.087 154.97 118.642C155.526 119.198 155.838 119.951 155.838 120.737Z" fill="black"/>
<path d="M161.147 123.814C161.147 125.447 159.819 127.293 158.185 127.293C156.551 127.293 155.223 125.447 155.223 123.814C155.223 123.028 155.535 122.275 156.09 121.719C156.646 121.163 157.399 120.851 158.185 120.851C158.971 120.851 159.724 121.163 160.28 121.719C160.835 122.275 161.147 123.028 161.147 123.814Z" fill="#455A64"/>
<path opacity="0.6" d="M161.147 123.814C161.147 125.447 159.819 127.293 158.185 127.293C156.551 127.293 155.223 125.447 155.223 123.814C155.223 123.028 155.535 122.275 156.09 121.719C156.646 121.163 157.399 120.851 158.185 120.851C158.971 120.851 159.724 121.163 160.28 121.719C160.835 122.275 161.147 123.028 161.147 123.814Z" fill="black"/>
<path d="M167.007 120.372C167.007 122.006 165.678 123.852 164.044 123.852C162.411 123.852 161.082 122.006 161.082 120.372C161.082 119.586 161.394 118.833 161.95 118.277C162.505 117.722 163.259 117.41 164.044 117.41C164.83 117.41 165.583 117.722 166.139 118.277C166.694 118.833 167.007 119.586 167.007 120.372Z" fill="#455A64"/>
<path opacity="0.6" d="M167.007 120.372C167.007 122.006 165.678 123.852 164.044 123.852C162.411 123.852 161.082 122.006 161.082 120.372C161.082 119.586 161.394 118.833 161.95 118.277C162.505 117.722 163.259 117.41 164.044 117.41C164.83 117.41 165.583 117.722 166.139 118.277C166.694 118.833 167.007 119.586 167.007 120.372Z" fill="black"/>
<path d="M170.334 118.586C170.324 118.469 170.283 118.357 170.215 118.261C170.147 118.165 170.054 118.09 169.947 118.041L143.433 102.745C143.14 102.595 142.815 102.516 142.486 102.516C142.156 102.516 141.831 102.595 141.538 102.745L131.017 108.822C130.909 108.869 130.815 108.944 130.745 109.04C130.676 109.136 130.635 109.249 130.625 109.367V110.391C130.637 110.508 130.679 110.62 130.748 110.716C130.817 110.812 130.91 110.887 131.017 110.935L157.531 126.237C157.825 126.384 158.148 126.461 158.476 126.461C158.804 126.461 159.128 126.384 159.421 126.237L169.947 120.16C170.054 120.112 170.147 120.036 170.215 119.94C170.283 119.844 170.324 119.732 170.334 119.615V118.586Z" fill="#455A64"/>
<path opacity="0.2" d="M170.334 118.586C170.324 118.469 170.283 118.357 170.215 118.261C170.147 118.165 170.054 118.09 169.947 118.041L143.433 102.745C143.14 102.595 142.815 102.516 142.486 102.516C142.156 102.516 141.831 102.595 141.538 102.745L131.017 108.822C130.909 108.869 130.815 108.944 130.745 109.04C130.676 109.136 130.635 109.249 130.625 109.367V110.391C130.637 110.508 130.679 110.62 130.748 110.716C130.817 110.812 130.91 110.887 131.017 110.935L157.531 126.237C157.825 126.384 158.148 126.461 158.476 126.461C158.804 126.461 159.128 126.384 159.421 126.237L169.947 120.16C170.054 120.112 170.147 120.036 170.215 119.94C170.283 119.844 170.324 119.732 170.334 119.615V118.586Z" fill="black"/>
<path opacity="0.1" d="M158.468 125.436V126.455C158.135 126.462 157.805 126.385 157.51 126.231L130.996 110.93C130.887 110.883 130.793 110.807 130.724 110.712C130.655 110.616 130.614 110.503 130.604 110.385V109.361C130.615 109.479 130.657 109.591 130.726 109.687C130.795 109.782 130.888 109.858 130.996 109.906L157.51 125.208C157.805 125.364 158.134 125.443 158.468 125.436Z" fill="black"/>
<path d="M131.017 108.817L141.538 102.74C141.831 102.589 142.156 102.511 142.486 102.511C142.815 102.511 143.14 102.589 143.433 102.74L169.947 118.036C170.06 118.076 170.158 118.149 170.227 118.247C170.296 118.344 170.333 118.461 170.333 118.581C170.333 118.7 170.296 118.817 170.227 118.914C170.158 119.012 170.06 119.085 169.947 119.125L159.421 125.202C159.128 125.35 158.804 125.427 158.476 125.427C158.148 125.427 157.825 125.35 157.531 125.202L131.017 109.9C130.904 109.862 130.806 109.789 130.736 109.692C130.666 109.595 130.628 109.478 130.628 109.359C130.628 109.239 130.666 109.122 130.736 109.025C130.806 108.928 130.904 108.855 131.017 108.817Z" fill="#455A64"/>
<path opacity="0.1" d="M160.232 122.98C161.365 122.327 161.365 121.271 160.232 120.623C159.597 120.301 158.895 120.133 158.182 120.133C157.47 120.133 156.767 120.301 156.132 120.623C154.994 121.276 154.988 122.332 156.132 122.98C156.767 123.302 157.47 123.47 158.182 123.47C158.895 123.47 159.597 123.302 160.232 122.98Z" fill="black"/>
<path opacity="0.1" d="M166.092 119.593C167.224 118.94 167.224 117.884 166.092 117.236C165.456 116.915 164.754 116.748 164.041 116.748C163.329 116.748 162.627 116.915 161.991 117.236C160.853 117.884 160.848 118.94 161.991 119.593C162.627 119.914 163.329 120.081 164.041 120.081C164.754 120.081 165.456 119.914 166.092 119.593Z" fill="black"/>
<path opacity="0.1" d="M154.923 119.909C156.056 119.256 156.056 118.199 154.923 117.551C154.287 117.231 153.585 117.064 152.873 117.064C152.161 117.064 151.458 117.231 150.823 117.551C149.685 118.199 149.679 119.256 150.823 119.909C151.458 120.23 152.161 120.397 152.873 120.397C153.585 120.397 154.287 120.23 154.923 119.909Z" fill="black"/>
<path opacity="0.1" d="M160.782 116.528C161.915 115.874 161.915 114.818 160.782 114.17C160.147 113.848 159.445 113.68 158.732 113.68C158.02 113.68 157.317 113.848 156.682 114.17C155.544 114.823 155.538 115.88 156.682 116.528C157.317 116.85 158.02 117.017 158.732 117.017C159.445 117.017 160.147 116.85 160.782 116.528Z" fill="black"/>
<path opacity="0.1" d="M149.614 116.843C150.746 116.19 150.746 115.134 149.614 114.486C148.978 114.164 148.276 113.996 147.564 113.996C146.851 113.996 146.149 114.164 145.513 114.486C144.375 115.139 144.37 116.195 145.513 116.843C146.149 117.165 146.851 117.333 147.564 117.333C148.276 117.333 148.978 117.165 149.614 116.843Z" fill="black"/>
<path opacity="0.1" d="M155.473 113.456C156.606 112.803 156.606 111.746 155.473 111.098C154.837 110.778 154.135 110.611 153.423 110.611C152.711 110.611 152.008 110.778 151.373 111.098C150.235 111.746 150.229 112.803 151.373 113.456C152.008 113.777 152.711 113.944 153.423 113.944C154.135 113.944 154.837 113.777 155.473 113.456Z" fill="black"/>
<path opacity="0.1" d="M144.31 113.772C145.442 113.119 145.442 112.062 144.31 111.414C143.674 111.094 142.972 110.926 142.26 110.926C141.547 110.926 140.845 111.094 140.209 111.414C139.071 112.062 139.066 113.119 140.209 113.772C140.845 114.093 141.547 114.26 142.26 114.26C142.972 114.26 143.674 114.093 144.31 113.772Z" fill="black"/>
<path opacity="0.1" d="M150.164 110.391C151.296 109.737 151.296 108.681 150.164 108.033C149.528 107.711 148.826 107.543 148.114 107.543C147.401 107.543 146.699 107.711 146.063 108.033C144.925 108.686 144.92 109.743 146.063 110.391C146.699 110.713 147.401 110.88 148.114 110.88C148.826 110.88 149.528 110.713 150.164 110.391Z" fill="black"/>
<path opacity="0.1" d="M138.995 110.706C140.128 110.053 140.128 108.996 138.995 108.348C138.36 108.026 137.657 107.859 136.945 107.859C136.232 107.859 135.53 108.026 134.895 108.348C133.757 109.002 133.751 110.058 134.895 110.706C135.53 111.028 136.232 111.196 136.945 111.196C137.657 111.196 138.36 111.028 138.995 110.706Z" fill="black"/>
<path opacity="0.1" d="M144.854 107.336C145.987 106.682 145.987 105.626 144.854 104.978C144.219 104.657 143.516 104.49 142.804 104.49C142.092 104.49 141.39 104.657 140.754 104.978C139.616 105.626 139.61 106.682 140.754 107.336C141.39 107.656 142.092 107.823 142.804 107.823C143.516 107.823 144.219 107.656 144.854 107.336Z" fill="black"/>
<path d="M166.794 118.368C166.797 118.414 166.797 118.459 166.794 118.504C166.786 118.698 166.755 118.89 166.702 119.076C166.538 119.289 166.333 119.465 166.097 119.593C165.461 119.914 164.759 120.081 164.047 120.081C163.335 120.081 162.633 119.914 161.997 119.593C161.766 119.465 161.563 119.293 161.398 119.087C161.343 118.895 161.31 118.698 161.3 118.499C161.3 118.455 161.3 118.406 161.3 118.363C161.3 118.319 161.3 118.265 161.3 118.221C161.3 118.178 161.3 117.976 161.3 117.856C161.419 116.578 161.979 115.38 162.884 114.469C163.189 114.172 163.599 114.005 164.025 114.005C164.451 114.005 164.861 114.172 165.166 114.469C166.07 115.37 166.629 116.559 166.745 117.829C166.745 117.96 166.745 118.09 166.745 118.221C166.765 118.269 166.781 118.318 166.794 118.368Z" fill="#FFFFFA"/>
<path d="M161.485 115.291C161.488 115.339 161.488 115.386 161.485 115.433C161.474 115.617 161.443 115.8 161.392 115.978C161.232 116.2 161.026 116.386 160.788 116.522C160.152 116.843 159.45 117.01 158.738 117.01C158.025 117.01 157.323 116.843 156.687 116.522C156.457 116.394 156.253 116.222 156.088 116.016C156.034 115.824 156.001 115.627 155.99 115.428C155.99 115.384 155.99 115.335 155.99 115.286C155.99 115.237 155.99 115.193 155.99 115.15C155.99 115.025 155.99 114.905 155.99 114.785C156.109 113.506 156.67 112.309 157.575 111.398C157.88 111.1 158.29 110.934 158.716 110.934C159.142 110.934 159.552 111.1 159.857 111.398C160.76 112.298 161.319 113.487 161.436 114.758C161.436 114.889 161.436 115.019 161.436 115.15C161.455 115.196 161.472 115.243 161.485 115.291Z" fill="#FFFFFA"/>
<path d="M160.935 121.75C160.938 121.797 160.938 121.844 160.935 121.891C160.924 122.076 160.893 122.258 160.842 122.436C160.677 122.645 160.472 122.819 160.238 122.948C159.603 123.272 158.9 123.44 158.188 123.44C157.475 123.44 156.772 123.272 156.137 122.948C155.904 122.823 155.7 122.65 155.538 122.441C155.483 122.252 155.45 122.056 155.44 121.859C155.44 121.815 155.44 121.766 155.44 121.717C155.44 121.668 155.44 121.619 155.44 121.576C155.44 121.532 155.44 121.336 155.44 121.216C155.558 119.937 156.119 118.739 157.025 117.829C157.33 117.531 157.74 117.365 158.166 117.365C158.592 117.365 159.002 117.531 159.307 117.829C160.209 118.728 160.768 119.915 160.886 121.183C160.886 121.314 160.886 121.445 160.886 121.576C160.907 121.632 160.923 121.691 160.935 121.75Z" fill="#FFFFFA"/>
<path d="M155.626 118.679C155.628 118.726 155.628 118.773 155.626 118.82C155.615 119.005 155.584 119.187 155.533 119.365C155.368 119.574 155.162 119.748 154.929 119.877C154.294 120.2 153.591 120.369 152.878 120.369C152.166 120.369 151.463 120.2 150.828 119.877C150.595 119.752 150.391 119.579 150.229 119.37C150.174 119.18 150.141 118.985 150.131 118.787C150.131 118.744 150.131 118.695 150.131 118.646C150.131 118.597 150.131 118.548 150.131 118.504C150.131 118.461 150.131 118.259 150.131 118.145C150.25 116.865 150.81 115.665 151.716 114.752C152.021 114.455 152.43 114.288 152.857 114.288C153.283 114.288 153.692 114.455 153.997 114.752C154.901 115.653 155.46 116.842 155.577 118.112C155.577 118.243 155.577 118.374 155.577 118.504C155.597 118.561 155.614 118.619 155.626 118.679Z" fill="#FFFFFA"/>
<path d="M156.176 112.237C156.178 112.284 156.178 112.331 156.176 112.378C156.167 112.572 156.136 112.764 156.083 112.95C155.92 113.163 155.714 113.339 155.479 113.467C154.843 113.789 154.141 113.957 153.428 113.957C152.716 113.957 152.014 113.789 151.378 113.467C151.145 113.342 150.941 113.17 150.779 112.961C150.724 112.771 150.691 112.576 150.681 112.378C150.681 112.335 150.681 112.286 150.681 112.237C150.681 112.188 150.681 112.144 150.681 112.1C150.681 112.057 150.681 111.855 150.681 111.736C150.8 110.457 151.36 109.259 152.266 108.349C152.571 108.051 152.98 107.884 153.407 107.884C153.833 107.884 154.242 108.051 154.547 108.349C155.451 109.249 156.01 110.438 156.127 111.708C156.127 111.839 156.127 111.97 156.127 112.1C156.146 112.145 156.162 112.19 156.176 112.237Z" fill="#FFFFFA"/>
<path d="M150.844 109.149C150.847 109.196 150.847 109.243 150.844 109.291C150.834 109.475 150.803 109.658 150.752 109.835C150.59 110.056 150.384 110.242 150.147 110.38C149.512 110.702 148.81 110.869 148.097 110.869C147.385 110.869 146.682 110.702 146.047 110.38C145.814 110.255 145.61 110.082 145.448 109.873C145.393 109.683 145.36 109.488 145.35 109.291C145.35 109.247 145.35 109.198 145.35 109.149C145.35 109.1 145.35 109.056 145.35 109.013C145.35 108.888 145.35 108.768 145.35 108.648C145.469 107.369 146.029 106.172 146.935 105.261C147.24 104.963 147.649 104.797 148.075 104.797C148.502 104.797 148.911 104.963 149.216 105.261C150.119 106.16 150.678 107.347 150.795 108.615C150.795 108.746 150.795 108.882 150.795 109.013C150.815 109.057 150.831 109.103 150.844 109.149Z" fill="#FFFFFA"/>
<path opacity="0.15" d="M80.9791 125.224L102.026 137.373C102.666 137.698 103.374 137.867 104.092 137.867C104.81 137.867 105.518 137.698 106.159 137.373L129.15 124.097C130.288 123.438 130.288 122.371 129.15 121.712L108.097 109.568C107.458 109.244 106.751 109.074 106.034 109.074C105.316 109.074 104.609 109.244 103.97 109.568L80.9791 122.839C79.8355 123.498 79.8355 124.565 80.9791 125.224Z" fill="black"/>
<path d="M129.999 119.555C129.97 119.304 129.877 119.065 129.728 118.861C129.579 118.657 129.38 118.494 129.15 118.39L108.097 106.247C107.457 105.924 106.75 105.756 106.034 105.756C105.317 105.756 104.61 105.924 103.97 106.247L80.979 119.517C80.7432 119.621 80.5399 119.787 80.3904 119.997C80.2409 120.207 80.1508 120.453 80.1295 120.71C80.1295 121.113 80.1295 122.561 80.1295 122.964C80.1541 123.218 80.2457 123.461 80.395 123.667C80.5443 123.874 80.7459 124.037 80.979 124.14L102.026 136.289C102.666 136.614 103.374 136.783 104.092 136.783C104.81 136.783 105.518 136.614 106.159 136.289L129.15 123.013C129.385 122.909 129.589 122.744 129.738 122.534C129.888 122.324 129.978 122.077 129.999 121.821C129.994 121.423 130.005 119.964 129.999 119.555Z" fill="#455A64"/>
<path opacity="0.65" d="M129.999 119.555C129.97 119.304 129.877 119.065 129.728 118.861C129.579 118.657 129.38 118.494 129.15 118.39L108.097 106.247C107.457 105.924 106.75 105.756 106.034 105.756C105.317 105.756 104.61 105.924 103.97 106.247L80.979 119.517C80.7432 119.621 80.5399 119.787 80.3904 119.997C80.2409 120.207 80.1508 120.453 80.1295 120.71C80.1295 121.113 80.1295 122.561 80.1295 122.964C80.1541 123.218 80.2457 123.461 80.395 123.667C80.5443 123.874 80.7459 124.037 80.979 124.14L102.026 136.289C102.666 136.614 103.374 136.783 104.092 136.783C104.81 136.783 105.518 136.614 106.159 136.289L129.15 123.013C129.385 122.909 129.589 122.744 129.738 122.534C129.888 122.324 129.978 122.077 129.999 121.821C129.994 121.423 130.005 119.964 129.999 119.555Z" fill="white"/>
<path d="M80.9791 121.902L102.026 134.051C102.666 134.376 103.374 134.545 104.092 134.545C104.81 134.545 105.518 134.376 106.159 134.051L129.15 120.775C130.288 120.116 130.288 119.049 129.15 118.39L108.097 106.247C107.457 105.924 106.75 105.756 106.034 105.756C105.317 105.756 104.61 105.924 103.97 106.247L80.9791 119.517C79.8355 120.176 79.8355 121.243 80.9791 121.902Z" fill="#455A64"/>
<path opacity="0.8" d="M80.9791 121.902L102.026 134.051C102.666 134.376 103.374 134.545 104.092 134.545C104.81 134.545 105.518 134.376 106.159 134.051L129.15 120.775C130.288 120.116 130.288 119.049 129.15 118.39L108.097 106.247C107.457 105.924 106.75 105.756 106.034 105.756C105.317 105.756 104.61 105.924 103.97 106.247L80.9791 119.517C79.8355 120.176 79.8355 121.243 80.9791 121.902Z" fill="white"/>
<path d="M104.095 134.563V136.801C103.374 136.814 102.663 136.643 102.026 136.306L80.9736 124.157C80.7408 124.053 80.5395 123.89 80.3903 123.683C80.2411 123.477 80.1492 123.234 80.1241 122.981C80.1241 122.588 80.1241 121.238 80.1241 120.802C80.1586 121.048 80.2545 121.281 80.403 121.48C80.5514 121.679 80.7477 121.837 80.9736 121.94L102.026 134.089C102.664 134.419 103.376 134.582 104.095 134.563Z" fill="#455A64"/>
<path opacity="0.5" d="M104.095 134.563V136.801C103.374 136.814 102.663 136.643 102.026 136.306L80.9736 124.157C80.7408 124.053 80.5395 123.89 80.3903 123.683C80.2411 123.477 80.1492 123.234 80.1241 122.981C80.1241 122.588 80.1241 121.238 80.1241 120.802C80.1586 121.048 80.2545 121.281 80.403 121.48C80.5514 121.679 80.7477 121.837 80.9736 121.94L102.026 134.089C102.664 134.419 103.376 134.582 104.095 134.563Z" fill="white"/>
<path opacity="0.15" d="M91.5923 111.692C84.5404 115.765 84.5404 122.365 91.5923 126.438C98.6442 130.512 110.107 130.512 117.137 126.438C124.167 122.365 124.216 115.765 117.137 111.692C110.058 107.619 98.6496 107.602 91.5923 111.692Z" fill="black"/>
<path d="M119.593 105.522C119.488 105.522 119.386 105.487 119.302 105.423C119.219 105.359 119.159 105.269 119.132 105.167C119.105 105.066 119.112 104.958 119.152 104.861C119.192 104.764 119.262 104.682 119.353 104.629L121.286 103.513C121.629 103.317 121.831 103.077 121.831 102.838C121.831 102.598 121.591 102.266 121.177 102.026L117.556 99.9353C117.014 99.6518 116.414 99.4979 115.803 99.4856C115.192 99.4733 114.586 99.603 114.033 99.8645L112.094 100.981C112.04 101.012 111.981 101.032 111.919 101.04C111.857 101.048 111.795 101.044 111.734 101.028C111.674 101.012 111.618 100.984 111.568 100.946C111.519 100.908 111.478 100.861 111.446 100.807C111.415 100.753 111.395 100.693 111.387 100.631C111.379 100.569 111.383 100.507 111.399 100.446C111.416 100.386 111.443 100.33 111.481 100.28C111.519 100.231 111.567 100.19 111.621 100.159L113.554 99.0367C114.253 98.6921 115.024 98.5192 115.804 98.5325C116.583 98.5458 117.348 98.7448 118.035 99.113L121.657 101.199C121.972 101.348 122.243 101.577 122.442 101.864C122.641 102.15 122.761 102.484 122.789 102.832C122.773 103.15 122.671 103.457 122.493 103.721C122.316 103.984 122.07 104.195 121.782 104.33L119.805 105.457C119.741 105.495 119.668 105.517 119.593 105.522Z" fill="#E0E0E0"/>
<path d="M121.526 107.483C121.526 104.951 119.854 102.413 116.5 100.48C109.802 96.6081 98.9328 96.6081 92.2294 100.48C88.8804 102.413 87.2087 104.951 87.2087 107.483V118.624C87.2087 121.162 88.8804 123.694 92.2294 125.627C98.9328 129.499 109.796 129.499 116.5 125.627C119.854 123.688 121.526 121.156 121.526 118.619V107.483Z" fill="#263238"/>
<path d="M92.2294 100.48C85.5315 104.346 85.5315 110.619 92.2294 114.491C98.9273 118.363 109.796 118.363 116.5 114.491C123.203 110.619 123.203 104.352 116.5 100.48C109.796 96.6081 98.9328 96.6081 92.2294 100.48Z" fill="#37474F"/>
<path d="M93.2313 101.346C87.0834 104.749 87.0834 110.276 93.2313 113.68C99.3793 117.083 109.35 117.088 115.503 113.68C121.657 110.271 121.651 104.749 115.503 101.346C109.355 97.9422 99.3793 97.9095 93.2313 101.346Z" fill="#263238"/>
<path d="M115.503 105.588C109.35 102.179 99.3793 102.179 93.2314 105.588C91.1457 106.742 89.768 108.142 89.0983 109.617C89.768 111.098 91.1457 112.498 93.2314 113.652C99.3793 117.061 109.35 117.061 115.503 113.652C117.589 112.498 118.967 111.098 119.636 109.617C118.967 108.142 117.589 106.742 115.503 105.588Z" fill="#455A64"/>
<path d="M92.518 120.519C91.6969 120.529 90.8869 120.329 90.1656 119.936L86.5443 117.845C86.2291 117.697 85.9588 117.467 85.7608 117.18C85.5629 116.893 85.4443 116.559 85.4171 116.212C85.4344 115.892 85.5377 115.584 85.7159 115.318C85.8942 115.053 86.1409 114.84 86.43 114.703L88.3794 113.576C88.4339 113.54 88.4953 113.515 88.5598 113.503C88.6242 113.491 88.6904 113.493 88.7542 113.508C88.818 113.523 88.8781 113.55 88.9308 113.589C88.9835 113.628 89.0276 113.678 89.0604 113.734C89.0932 113.791 89.1141 113.854 89.1217 113.919C89.1293 113.984 89.1234 114.05 89.1045 114.113C89.0856 114.176 89.054 114.234 89.0117 114.284C88.9695 114.334 88.9173 114.375 88.8586 114.404L86.9092 115.531C86.5607 115.727 86.3646 115.972 86.3646 116.212C86.3646 116.451 86.6042 116.756 87.0181 117.023L90.6339 119.109C91.1763 119.393 91.7771 119.547 92.3893 119.561C93.0014 119.574 93.6083 119.445 94.1625 119.185L96.1011 118.096C96.1551 118.065 96.2147 118.045 96.2765 118.037C96.3383 118.028 96.401 118.033 96.4612 118.049C96.5214 118.065 96.5778 118.093 96.6272 118.131C96.6766 118.169 96.718 118.216 96.7491 118.27C96.7802 118.324 96.8004 118.384 96.8085 118.446C96.8166 118.507 96.8124 118.57 96.7962 118.63C96.78 118.69 96.7522 118.747 96.7142 118.796C96.6762 118.846 96.6289 118.887 96.5749 118.918L94.6363 120.04C93.982 120.376 93.2532 120.541 92.518 120.519Z" fill="#E0E0E0"/>
<path opacity="0.5" d="M91.1185 109.857C90.6228 105.582 91.7929 101.279 94.3858 97.8442C95.8561 95.9546 99.8313 94.468 102.135 93.8581C103.975 93.368 106.382 92.769 107.373 90.8685C107.631 90.3459 107.758 89.7685 107.744 89.1859C107.707 87.8361 107.286 86.5249 106.529 85.4067C105.081 83.136 102.069 81.2791 103.213 78.1915C103.757 76.7484 105.119 75.349 106.774 75.4688C107.146 75.4925 107.512 75.5676 107.863 75.692C108.428 75.9075 108.915 76.2868 109.263 76.7811C108.473 76.4816 106.502 75.9534 105.62 78.186C104.738 80.4187 108.887 83.0107 110.521 84.1761C112.34 85.5102 114.18 87.0785 114.877 89.2948C115.492 91.2388 114.921 93.2537 113.957 94.9799C112.993 96.7061 112.323 98.4486 112.781 100.594C113.173 102.506 114.305 103.823 115.585 105.206C116.865 106.59 118.025 108.033 118.025 110.037C113.973 116.5 94.2115 116.936 91.1185 109.857Z" fill="#E0E0E0"/>
<path opacity="0.15" d="M54.0294 126.907C51.7478 128.219 51.7478 130.354 54.0294 131.671C55.3092 132.318 56.7231 132.656 58.1571 132.656C59.5911 132.656 61.005 132.318 62.2848 131.671C64.5664 130.354 64.5664 128.219 62.2848 126.907C61.0058 126.257 59.5916 125.919 58.1571 125.919C56.7226 125.919 55.3084 126.257 54.0294 126.907Z" fill="black"/>
<path d="M61.2991 130.343C62.2016 129.742 62.9289 128.914 63.4072 127.941C63.8854 126.968 64.0975 125.886 64.0218 124.805C63.9254 124.009 63.6237 123.253 63.1463 122.609C62.6689 121.966 62.0324 121.457 61.2991 121.134C60.3217 120.691 59.2606 120.461 58.187 120.461C57.1135 120.461 56.0524 120.691 55.0749 121.134C54.3414 121.457 53.7045 121.965 53.2271 122.609C52.7496 123.252 52.4481 124.009 52.3522 124.805C52.2751 125.888 52.4865 126.972 52.9648 127.947C53.4431 128.921 54.1712 129.752 55.0749 130.354H55.1022C55.1838 130.414 55.271 130.468 55.3581 130.522C56.2413 130.968 57.2168 131.2 58.2061 131.2C59.1954 131.2 60.1708 130.968 61.0541 130.522L61.0922 130.495L61.2937 130.365L61.2991 130.343Z" fill="#455A64"/>
<path opacity="0.1" d="M64.0055 124.805C63.9894 124.649 63.9639 124.494 63.9293 124.342C63.179 124.451 62.4724 124.761 61.8853 125.241C61.2982 125.721 60.8527 126.351 60.5967 127.065C60.1368 128.257 60.0946 129.57 60.4769 130.789C60.6629 130.718 60.8447 130.636 61.0214 130.544L61.0595 130.517L61.261 130.386L61.3155 130.348C62.2128 129.743 62.9342 128.912 63.4066 127.939C63.879 126.965 64.0857 125.884 64.0055 124.805Z" fill="black"/>
<path opacity="0.1" d="M62.0833 124.99C62.1101 124.973 62.131 124.948 62.1432 124.919C62.6387 124.004 62.0125 122.665 61.212 122.131C61.6825 122.009 62.1801 122.045 62.6278 122.234C62.7292 122.293 62.8348 122.344 62.9437 122.387C62.4671 121.867 61.8961 121.442 61.261 121.134C60.9126 120.962 60.5478 120.825 60.1719 120.726C60.0903 120.731 60.0085 120.731 59.9269 120.726C59.8118 120.706 59.7023 120.661 59.6056 120.595C58.9455 120.47 58.2718 120.431 57.6017 120.481C57.5396 120.528 57.4719 120.566 57.4002 120.595H57.3729C57.2505 120.617 57.1251 120.617 57.0027 120.595L56.7249 120.568C56.1408 120.668 55.5741 120.851 55.0423 121.113C54.7173 121.268 54.4058 121.45 54.1111 121.657H54.2037C54.8475 121.56 55.5056 121.629 56.115 121.859C55.5756 122.18 55.1158 122.62 54.77 123.144C54.6058 123.481 54.5007 123.844 54.4596 124.217C54.4324 124.391 54.4868 124.707 54.7373 124.652C54.8322 124.618 54.9167 124.56 54.9824 124.483C55.5541 123.942 56.2204 123.51 56.9482 123.209C57.0598 123.149 57.1888 123.13 57.313 123.155C57.5254 123.226 57.4655 123.656 57.4927 123.83C57.5363 124.146 57.5908 124.462 57.6507 124.772C57.7106 125.082 57.7868 126.155 58.364 125.834C58.4858 125.753 58.5851 125.642 58.6526 125.513C59.0676 124.785 59.2924 123.965 59.3061 123.128C59.4261 123.131 59.5436 123.163 59.6491 123.22C59.9872 123.377 60.313 123.559 60.6239 123.765C61.1172 124.032 61.5464 124.404 61.8818 124.854C61.9308 124.941 62.0125 125.033 62.0833 124.99Z" fill="black"/>
<path d="M57.4002 120.361H57.3729C57.251 120.388 57.1246 120.388 57.0026 120.361C56.4845 120.285 55.958 120.285 55.4398 120.361C55.1127 120.435 54.8012 120.566 54.5195 120.748C54.3943 120.824 53.719 121.292 54.0076 121.423C54.0716 121.442 54.1397 121.442 54.2037 121.423C54.8476 121.329 55.5048 121.399 56.115 121.625C55.574 121.946 55.1139 122.388 54.77 122.915C54.607 123.231 54.4967 123.571 54.4433 123.923C54.4161 124.097 54.4705 124.413 54.721 124.353C54.8155 124.321 54.9 124.264 54.966 124.189C55.5376 123.646 56.2038 123.212 56.9319 122.91C57.043 122.848 57.1733 122.831 57.2967 122.861C57.5091 122.931 57.4492 123.356 57.4764 123.536C57.52 123.852 57.5744 124.162 57.6343 124.478C57.6942 124.794 57.7705 125.861 58.3477 125.54C58.4697 125.457 58.5689 125.344 58.6363 125.213C59.0574 124.489 59.2879 123.671 59.3061 122.833C59.4257 122.835 59.5432 122.865 59.6491 122.921C59.9861 123.08 60.3118 123.262 60.6239 123.465C61.1183 123.731 61.5478 124.103 61.8818 124.554C61.9308 124.625 62.0125 124.718 62.0887 124.674C62.1167 124.659 62.138 124.633 62.1486 124.603C62.6442 123.688 62.0179 122.354 61.2174 121.815C61.6885 121.695 62.1861 121.733 62.6333 121.924C62.7616 122.001 62.9012 122.058 63.0471 122.093C63.0779 122.103 63.1112 122.102 63.1417 122.092C63.1722 122.081 63.1983 122.06 63.2159 122.033C63.2211 122.01 63.2211 121.986 63.2159 121.962C63.1941 121.76 63.1104 121.57 62.9763 121.418C62.6289 121.033 62.1882 120.744 61.6966 120.579C61.2006 120.423 60.6783 120.37 60.161 120.421C60.0797 120.432 59.9973 120.432 59.916 120.421C59.6953 120.364 59.4929 120.252 59.3279 120.094C59.1365 119.955 58.9102 119.872 58.6744 119.855C58.3175 119.829 57.9622 119.925 57.667 120.127C57.5868 120.215 57.4973 120.293 57.4002 120.361Z" fill="#455A64"/>
<path opacity="0.5" d="M57.4002 120.361H57.3729C57.251 120.388 57.1246 120.388 57.0026 120.361C56.4845 120.285 55.958 120.285 55.4398 120.361C55.1127 120.435 54.8012 120.566 54.5195 120.748C54.3943 120.824 53.719 121.292 54.0076 121.423C54.0716 121.442 54.1397 121.442 54.2037 121.423C54.8476 121.329 55.5048 121.399 56.115 121.625C55.574 121.946 55.1139 122.388 54.77 122.915C54.607 123.231 54.4967 123.571 54.4433 123.923C54.4161 124.097 54.4705 124.413 54.721 124.353C54.8155 124.321 54.9 124.264 54.966 124.189C55.5376 123.646 56.2038 123.212 56.9319 122.91C57.043 122.848 57.1733 122.831 57.2967 122.861C57.5091 122.931 57.4492 123.356 57.4764 123.536C57.52 123.852 57.5744 124.162 57.6343 124.478C57.6942 124.794 57.7705 125.861 58.3477 125.54C58.4697 125.457 58.5689 125.344 58.6363 125.213C59.0574 124.489 59.2879 123.671 59.3061 122.833C59.4257 122.835 59.5432 122.865 59.6491 122.921C59.9861 123.08 60.3118 123.262 60.6239 123.465C61.1183 123.731 61.5478 124.103 61.8818 124.554C61.9308 124.625 62.0125 124.718 62.0887 124.674C62.1167 124.659 62.138 124.633 62.1486 124.603C62.6442 123.688 62.0179 122.354 61.2174 121.815C61.6885 121.695 62.1861 121.733 62.6333 121.924C62.7616 122.001 62.9012 122.058 63.0471 122.093C63.0779 122.103 63.1112 122.102 63.1417 122.092C63.1722 122.081 63.1983 122.06 63.2159 122.033C63.2211 122.01 63.2211 121.986 63.2159 121.962C63.1941 121.76 63.1104 121.57 62.9763 121.418C62.6289 121.033 62.1882 120.744 61.6966 120.579C61.2006 120.423 60.6783 120.37 60.161 120.421C60.0797 120.432 59.9973 120.432 59.916 120.421C59.6953 120.364 59.4929 120.252 59.3279 120.094C59.1365 119.955 58.9102 119.872 58.6744 119.855C58.3175 119.829 57.9622 119.925 57.667 120.127C57.5868 120.215 57.4973 120.293 57.4002 120.361Z" fill="black"/>
<path opacity="0.15" d="M59.3061 122.077C59.3257 122.343 59.3257 122.611 59.3061 122.877C59.4257 122.879 59.5432 122.909 59.6492 122.964C59.9861 123.123 60.3118 123.305 60.6239 123.509C61.1183 123.775 61.5478 124.147 61.8818 124.598C62.0125 123.563 59.2734 121.897 59.3061 122.077Z" fill="black"/>
<path opacity="0.15" d="M57.3947 122.038C57.0571 122.038 55.2165 123.422 54.966 124.217C55.5376 123.673 56.2039 123.24 56.9319 122.937C57.043 122.875 57.1733 122.858 57.2967 122.888C57.373 122.888 57.4111 122.98 57.4383 123.073C57.4274 122.376 57.569 122.038 57.3947 122.038Z" fill="black"/>
<path opacity="0.15" d="M62.0397 131.029C59.7581 132.347 59.7581 134.481 62.0397 135.794C63.3187 136.443 64.7329 136.782 66.1674 136.782C67.6018 136.782 69.0161 136.443 70.295 135.794C72.5712 134.481 72.5712 132.347 70.295 131.029C69.0153 130.382 67.6014 130.045 66.1674 130.045C64.7334 130.045 63.3195 130.382 62.0397 131.029Z" fill="black"/>
<path d="M67.5614 135.369C68.6357 135.233 69.655 134.816 70.5158 134.159C71.3765 133.502 72.0481 132.628 72.4623 131.628C72.7313 130.872 72.7984 130.059 72.6571 129.269C72.5157 128.479 72.1708 127.74 71.6564 127.124C70.9835 126.287 70.1381 125.605 69.1777 125.124C68.2173 124.643 67.1646 124.374 66.0911 124.336C65.2894 124.295 64.4907 124.463 63.7737 124.824C63.0566 125.185 62.4459 125.726 62.0016 126.395C61.447 127.327 61.1498 128.39 61.1402 129.475C61.1306 130.56 61.4091 131.628 61.9471 132.57V132.597C61.9945 132.689 62.0472 132.778 62.105 132.864C62.6926 133.659 63.4594 134.304 64.3432 134.747C65.2269 135.19 66.2027 135.418 67.1911 135.412H67.2401L67.4797 135.385L67.5614 135.369Z" fill="#455A64"/>
<path opacity="0.1" d="M70.6653 130.936C70.6979 130.934 70.7287 130.921 70.7525 130.898C71.6019 130.305 71.6401 128.829 71.1663 127.99C71.6412 128.095 72.0693 128.351 72.3861 128.72C72.449 128.817 72.5201 128.908 72.5985 128.992C72.4038 128.316 72.0842 127.683 71.6564 127.124C71.43 126.818 71.1727 126.535 70.8886 126.28C70.8117 126.251 70.7386 126.213 70.6708 126.166C70.5763 126.097 70.4983 126.008 70.4421 125.905C69.9066 125.502 69.3231 125.167 68.705 124.908C68.6273 124.919 68.5485 124.919 68.4708 124.908H68.4381C68.3077 124.885 68.1836 124.835 68.0733 124.761L67.8337 124.614C67.2668 124.442 66.6781 124.352 66.0857 124.347C65.7206 124.346 65.3562 124.377 64.9966 124.44L65.0837 124.483C65.7074 124.684 66.2697 125.04 66.7174 125.518C66.09 125.561 65.4808 125.747 64.9367 126.063C64.6491 126.269 64.3987 126.524 64.1961 126.814C64.0926 126.961 64.0001 127.266 64.2506 127.326C64.3502 127.338 64.4512 127.325 64.5446 127.288C65.2973 127.06 66.0853 126.971 66.8698 127.026C66.9976 127.022 67.1229 127.062 67.2238 127.141C67.3817 127.299 67.1367 127.658 67.0822 127.827C66.9787 128.132 66.8862 128.431 66.799 128.736C66.7119 129.041 66.3035 130.038 66.9624 130.011C67.1091 129.994 67.2484 129.937 67.3654 129.847C68.0671 129.389 68.6405 128.759 69.0317 128.018C69.1374 128.074 69.2286 128.154 69.2985 128.252C69.5284 128.547 69.7376 128.858 69.9247 129.183C70.245 129.65 70.4588 130.182 70.551 130.74C70.5455 130.822 70.5782 130.942 70.6653 130.936Z" fill="black"/>
<path d="M68.5416 124.701H68.5089C68.3899 124.671 68.2774 124.619 68.1767 124.549C67.7514 124.245 67.281 124.01 66.7827 123.852C66.4555 123.769 66.1166 123.743 65.7807 123.776C65.6337 123.776 64.8223 123.912 65.0238 124.157C65.0707 124.206 65.1285 124.243 65.1926 124.266C65.8157 124.467 66.3777 124.823 66.8263 125.3C66.1989 125.343 65.5897 125.529 65.0456 125.845C64.758 126.052 64.5076 126.306 64.305 126.596C64.2015 126.743 64.1035 127.048 64.354 127.108C64.4537 127.12 64.5547 127.107 64.6481 127.07C65.4026 126.842 66.1924 126.753 66.9787 126.809C67.1072 126.806 67.2325 126.848 67.3327 126.928C67.4852 127.081 67.2456 127.44 67.1857 127.609C67.0876 127.914 66.9951 128.214 66.9079 128.519C66.8208 128.823 66.407 129.82 67.0713 129.793C67.218 129.776 67.3573 129.72 67.4743 129.629C68.1747 129.169 68.7479 128.54 69.1406 127.8C69.2463 127.856 69.3375 127.936 69.4074 128.034C69.6354 128.33 69.8428 128.641 70.0282 128.965C70.3478 129.433 70.5632 129.964 70.6599 130.522C70.6599 130.61 70.698 130.729 70.7851 130.724C70.8166 130.721 70.8468 130.71 70.8722 130.691C71.7272 130.092 71.7653 128.617 71.2861 127.778C71.7616 127.881 72.1902 128.137 72.5059 128.508C72.5856 128.633 72.6828 128.747 72.7945 128.845C72.849 128.883 72.9306 128.911 72.9796 128.845C72.9955 128.827 73.0083 128.807 73.0178 128.785C73.0806 128.592 73.0806 128.385 73.0178 128.192C72.8785 127.694 72.6163 127.239 72.2554 126.869C71.879 126.509 71.4348 126.227 70.9485 126.041C70.8716 126.012 70.7985 125.973 70.7307 125.926C70.5637 125.778 70.4349 125.591 70.3549 125.382C70.2464 125.173 70.0825 124.998 69.8812 124.876C69.5717 124.691 69.2086 124.618 68.852 124.669C68.7498 124.69 68.6459 124.701 68.5416 124.701Z" fill="#455A64"/>
<path opacity="0.5" d="M68.5416 124.701H68.5089C68.3899 124.671 68.2774 124.619 68.1767 124.549C67.7514 124.245 67.281 124.01 66.7827 123.852C66.4555 123.769 66.1166 123.743 65.7807 123.776C65.6337 123.776 64.8223 123.912 65.0238 124.157C65.0707 124.206 65.1285 124.243 65.1926 124.266C65.8157 124.467 66.3777 124.823 66.8263 125.3C66.1989 125.343 65.5897 125.529 65.0456 125.845C64.758 126.052 64.5076 126.306 64.305 126.596C64.2015 126.743 64.1035 127.048 64.354 127.108C64.4537 127.12 64.5547 127.107 64.6481 127.07C65.4026 126.842 66.1924 126.753 66.9787 126.809C67.1072 126.806 67.2325 126.848 67.3327 126.928C67.4852 127.081 67.2456 127.44 67.1857 127.609C67.0876 127.914 66.9951 128.214 66.9079 128.519C66.8208 128.823 66.407 129.82 67.0713 129.793C67.218 129.776 67.3573 129.72 67.4743 129.629C68.1747 129.169 68.7479 128.54 69.1406 127.8C69.2463 127.856 69.3375 127.936 69.4074 128.034C69.6354 128.33 69.8428 128.641 70.0282 128.965C70.3478 129.433 70.5632 129.964 70.6599 130.522C70.6599 130.61 70.698 130.729 70.7851 130.724C70.8166 130.721 70.8468 130.71 70.8722 130.691C71.7272 130.092 71.7653 128.617 71.2861 127.778C71.7616 127.881 72.1902 128.137 72.5059 128.508C72.5856 128.633 72.6828 128.747 72.7945 128.845C72.849 128.883 72.9306 128.911 72.9796 128.845C72.9955 128.827 73.0083 128.807 73.0178 128.785C73.0806 128.592 73.0806 128.385 73.0178 128.192C72.8785 127.694 72.6163 127.239 72.2554 126.869C71.879 126.509 71.4348 126.227 70.9485 126.041C70.8716 126.012 70.7985 125.973 70.7307 125.926C70.5637 125.778 70.4349 125.591 70.3549 125.382C70.2464 125.173 70.0825 124.998 69.8812 124.876C69.5717 124.691 69.2086 124.618 68.852 124.669C68.7498 124.69 68.6459 124.701 68.5416 124.701Z" fill="black"/>
<path opacity="0.15" d="M69.4782 127.086C69.377 127.332 69.2587 127.57 69.1243 127.8C69.2299 127.856 69.3212 127.936 69.3911 128.034C69.6191 128.33 69.8265 128.641 70.0119 128.965C70.3315 129.433 70.5469 129.964 70.6435 130.522C71.2371 129.629 69.5327 126.939 69.4782 127.086Z" fill="black"/>
<path opacity="0.15" d="M67.7792 126.21C67.4797 126.057 65.2308 126.476 64.6318 127.07C65.3863 126.842 66.1761 126.753 66.9624 126.809C67.0908 126.806 67.2162 126.848 67.3164 126.928C67.3416 126.959 67.3583 126.996 67.365 127.035C67.3717 127.074 67.3681 127.114 67.3545 127.152C67.6649 126.509 67.9372 126.286 67.7792 126.21Z" fill="black"/>
<path opacity="0.15" d="M121.379 143.592C121.412 143.161 121.815 142.835 121.869 142.404C121.945 141.816 121.286 141.343 120.693 141.381C120.117 141.481 119.577 141.729 119.125 142.099C118.553 141.01 117.681 140.085 116.511 141.315C116.102 141.815 115.8 142.393 115.623 143.014C115.593 142.932 115.547 142.857 115.487 142.793C115.428 142.729 115.356 142.677 115.277 142.641C115.198 142.605 115.112 142.584 115.024 142.581C114.937 142.578 114.85 142.592 114.768 142.622C114.605 142.693 114.46 142.799 114.341 142.931C114.223 143.064 114.135 143.22 114.082 143.39C113.914 143.862 113.914 144.377 114.082 144.849C114.003 144.747 113.902 144.662 113.787 144.601C113.672 144.541 113.546 144.506 113.416 144.498C113.286 144.491 113.157 144.512 113.036 144.559C112.915 144.607 112.805 144.68 112.715 144.773C112.544 144.973 112.417 145.207 112.343 145.459C112.27 145.712 112.252 145.978 112.29 146.238C112.002 145.786 111.256 145.939 110.94 146.369C110.677 146.836 110.54 147.363 110.542 147.899C110.539 148.165 110.478 148.428 110.362 148.668C110.246 148.908 110.079 149.119 109.873 149.288L109.84 149.331C107.398 150.071 104.881 150.541 102.336 150.731C101.661 150.796 100.98 150.845 100.294 150.872C100.378 150.751 100.418 150.604 100.408 150.457C100.399 150.31 100.339 150.17 100.24 150.061C100.797 150.408 101.453 150.565 102.107 150.507C102.267 150.485 102.421 150.431 102.558 150.347C102.696 150.263 102.815 150.152 102.908 150.02C103.001 149.888 103.066 149.739 103.099 149.581C103.131 149.423 103.131 149.26 103.099 149.102C103.628 149.258 104.183 149.308 104.732 149.249C105.007 149.213 105.265 149.097 105.475 148.915C105.684 148.733 105.835 148.493 105.908 148.226C105.923 148.042 105.954 147.86 106.001 147.681C106.132 147.349 106.546 147.196 106.693 146.87C106.728 146.752 106.738 146.628 106.722 146.506C106.707 146.385 106.667 146.267 106.604 146.162C106.541 146.056 106.457 145.965 106.357 145.894C106.257 145.823 106.143 145.773 106.023 145.748C105.541 145.684 105.05 145.742 104.596 145.917C104.422 144.909 103.97 143.946 102.723 144.615C102.267 144.907 101.876 145.288 101.574 145.737C101.574 145.663 101.559 145.589 101.529 145.521C101.5 145.453 101.457 145.391 101.403 145.34C101.349 145.289 101.285 145.25 101.215 145.224C101.145 145.199 101.071 145.188 100.997 145.193C100.849 145.207 100.706 145.254 100.578 145.329C100.451 145.404 100.341 145.506 100.256 145.628C99.9995 145.957 99.8648 146.365 99.8748 146.783C99.8389 146.681 99.7813 146.587 99.7061 146.51C99.6309 146.432 99.5397 146.371 99.4389 146.332C99.338 146.293 99.2299 146.276 99.1219 146.282C99.0139 146.288 98.9085 146.318 98.813 146.369C98.6247 146.482 98.4631 146.635 98.3391 146.816C98.215 146.997 98.1315 147.203 98.0942 147.42C97.9798 146.99 97.3481 146.913 97.0051 147.175C96.6785 147.471 96.433 147.846 96.2917 148.264C96.1793 148.533 96.0124 148.776 95.8016 148.977C93.5687 149.018 91.3393 148.784 89.1636 148.28C87.6574 147.953 86.1776 147.514 84.7364 146.968C83.3388 145.738 82.1795 144.261 81.3167 142.611C81.1642 142.312 80.5979 142.551 80.6578 142.867C80.8802 143.913 81.3404 144.893 82.0028 145.732C80.2775 144.817 78.7419 143.582 77.4776 142.094C77.2652 141.838 76.7642 142.198 76.8949 142.486C77.984 144.898 80.331 146.14 82.5855 147.224C83.0755 147.463 83.5874 147.681 84.1102 147.883C84.4587 148.177 84.8127 148.465 85.1612 148.743C86.8741 150.052 88.7214 151.174 90.672 152.092C92.7362 153.129 94.9358 153.872 97.2065 154.297L97.5387 154.352C98.0343 155.136 98.7313 156.122 99.2323 155.915L99.2813 155.528C99.5681 155.918 99.9671 156.21 100.425 156.367C100.593 156.436 100.774 156.469 100.957 156.463C101.139 156.457 101.317 156.413 101.481 156.334C101.641 156.246 101.759 156.1 101.811 155.925C101.863 155.751 101.844 155.563 101.759 155.403C102.226 155.866 102.833 156.165 103.485 156.252C104.139 156.279 104.841 155.751 104.759 155.103C105.246 155.373 105.781 155.543 106.333 155.604C106.609 155.631 106.886 155.575 107.13 155.444C107.375 155.313 107.575 155.113 107.705 154.869C107.758 154.69 107.829 154.516 107.918 154.352C108.119 154.052 108.549 153.992 108.773 153.709C108.833 153.602 108.87 153.484 108.882 153.362C108.894 153.24 108.881 153.117 108.843 153C108.805 152.884 108.744 152.776 108.662 152.684C108.581 152.593 108.481 152.519 108.37 152.468C107.913 152.298 107.42 152.245 106.938 152.315C106.973 151.923 106.927 151.528 106.801 151.155C108.007 150.89 109.191 150.539 110.346 150.104L110.717 149.957C111.708 150.453 113.031 151.046 113.439 150.502L113.254 150.077C113.791 150.297 114.38 150.352 114.948 150.235C115.168 150.204 115.378 150.127 115.566 150.009C115.754 149.891 115.914 149.734 116.037 149.549C116.147 149.361 116.178 149.137 116.124 148.926C116.07 148.715 115.935 148.534 115.748 148.422C116.514 148.613 117.32 148.55 118.046 148.242C118.732 147.866 119.135 146.886 118.651 146.271C119.317 146.253 119.973 146.101 120.578 145.824C120.878 145.681 121.129 145.453 121.299 145.168C121.469 144.883 121.552 144.555 121.537 144.223C121.464 144.018 121.412 143.807 121.379 143.592ZM102.211 151.852C102.173 151.943 102.146 152.038 102.129 152.135C102.13 152.04 102.105 151.946 102.058 151.863L102.211 151.852ZM100.539 151.929C100.43 152.065 100.333 152.211 100.251 152.364C100.246 152.272 100.215 152.182 100.164 152.106C100.112 152.029 100.04 151.968 99.9565 151.929H100.539ZM97.8546 150.899C97.8546 150.85 97.8546 150.801 97.8546 150.747C97.9238 150.806 97.9966 150.86 98.0724 150.91L97.8546 150.899ZM95.5457 150.006H95.8833C96.1908 150.32 96.5201 150.611 96.8689 150.878C94.7948 150.76 92.7447 150.374 90.77 149.729C92.3484 149.982 93.949 150.069 95.5457 149.99V150.006ZM88.7171 149.892C90.6043 150.71 92.5967 151.26 94.6363 151.526C96.1386 151.739 97.6507 151.875 99.1669 151.934C98.8098 152.16 98.5082 152.463 98.2847 152.822C98.1155 153.058 97.9008 153.258 97.6531 153.41C95.4659 152.956 93.3426 152.235 91.3309 151.264C90.4542 150.834 89.572 150.355 88.7171 149.876V149.892Z" fill="black"/>
<path d="M109.867 148.002C110.074 147.834 110.241 147.623 110.357 147.383C110.472 147.143 110.534 146.88 110.537 146.614C110.535 146.08 110.672 145.554 110.935 145.089C111.25 144.659 111.996 144.506 112.285 144.953C112.247 144.693 112.265 144.427 112.339 144.174C112.412 143.922 112.538 143.688 112.71 143.488C112.801 143.396 112.911 143.324 113.032 143.277C113.153 143.231 113.282 143.211 113.412 143.219C113.541 143.226 113.667 143.262 113.782 143.322C113.897 143.383 113.997 143.467 114.077 143.57C113.909 143.098 113.909 142.582 114.077 142.11C114.128 141.94 114.216 141.783 114.335 141.651C114.453 141.518 114.599 141.413 114.763 141.343C114.845 141.312 114.932 141.298 115.019 141.301C115.106 141.304 115.192 141.325 115.272 141.361C115.351 141.398 115.422 141.449 115.482 141.513C115.541 141.578 115.587 141.653 115.618 141.735C115.801 141.101 116.114 140.513 116.538 140.008C117.709 138.783 118.58 139.714 119.152 140.798C119.605 140.428 120.144 140.179 120.72 140.074C121.314 140.041 121.973 140.515 121.896 141.103C121.842 141.528 121.439 141.854 121.406 142.285C121.419 142.509 121.454 142.731 121.51 142.949C121.524 143.28 121.441 143.609 121.271 143.893C121.1 144.178 120.85 144.406 120.551 144.55C119.944 144.825 119.289 144.976 118.624 144.996C119.108 145.612 118.705 146.592 118.019 146.962C117.294 147.273 116.486 147.336 115.721 147.142C115.907 147.256 116.041 147.438 116.095 147.65C116.149 147.861 116.118 148.085 116.01 148.275C115.887 148.459 115.726 148.615 115.538 148.732C115.351 148.849 115.14 148.925 114.921 148.955C114.353 149.075 113.763 149.02 113.227 148.797L113.412 149.222C112.868 149.952 110.461 148.492 109.747 148.171" fill="#455A64"/>
<path opacity="0.25" d="M109.867 148.002C110.074 147.834 110.241 147.623 110.357 147.383C110.472 147.143 110.534 146.88 110.537 146.614C110.535 146.08 110.672 145.554 110.935 145.089C111.25 144.659 111.996 144.506 112.285 144.953C112.247 144.693 112.265 144.427 112.339 144.174C112.412 143.922 112.538 143.688 112.71 143.488C112.801 143.396 112.911 143.324 113.032 143.277C113.153 143.231 113.282 143.211 113.412 143.219C113.541 143.226 113.667 143.262 113.782 143.322C113.897 143.383 113.997 143.467 114.077 143.57C113.909 143.098 113.909 142.582 114.077 142.11C114.128 141.94 114.216 141.783 114.335 141.651C114.453 141.518 114.599 141.413 114.763 141.343C114.845 141.312 114.932 141.298 115.019 141.301C115.106 141.304 115.192 141.325 115.272 141.361C115.351 141.398 115.422 141.449 115.482 141.513C115.541 141.578 115.587 141.653 115.618 141.735C115.801 141.101 116.114 140.513 116.538 140.008C117.709 138.783 118.58 139.714 119.152 140.798C119.605 140.428 120.144 140.179 120.72 140.074C121.314 140.041 121.973 140.515 121.896 141.103C121.842 141.528 121.439 141.854 121.406 142.285C121.419 142.509 121.454 142.731 121.51 142.949C121.524 143.28 121.441 143.609 121.271 143.893C121.1 144.178 120.85 144.406 120.551 144.55C119.944 144.825 119.289 144.976 118.624 144.996C119.108 145.612 118.705 146.592 118.019 146.962C117.294 147.273 116.486 147.336 115.721 147.142C115.907 147.256 116.041 147.438 116.095 147.65C116.149 147.861 116.118 148.085 116.01 148.275C115.887 148.459 115.726 148.615 115.538 148.732C115.351 148.849 115.14 148.925 114.921 148.955C114.353 149.075 113.763 149.02 113.227 148.797L113.412 149.222C112.868 149.952 110.461 148.492 109.747 148.171" fill="black"/>
<path d="M118.172 143.014C115.943 145.138 113.304 146.786 110.417 147.855C107.8 148.72 105.086 149.254 102.336 149.445C97.0486 149.963 91.3853 149.445 86.8275 146.554C86.4844 146.342 85.9998 146.99 86.2829 147.218C88.3958 148.797 91.6522 149.832 94.6199 150.23C97.1413 150.619 99.6977 150.733 102.244 150.567C105.004 150.366 107.722 149.779 110.319 148.825C113.151 147.736 116.805 145.83 118.422 143.096C118.531 142.944 118.242 142.933 118.172 143.014Z" fill="#455A64"/>
<path opacity="0.1" d="M118.172 143.014C115.943 145.138 113.304 146.786 110.417 147.855C107.8 148.72 105.086 149.254 102.336 149.445C97.0486 149.963 91.3853 149.445 86.8275 146.554C86.4844 146.342 85.9998 146.99 86.2829 147.218C88.3958 148.797 91.6522 149.832 94.6199 150.23C97.1413 150.619 99.6977 150.733 102.244 150.567C105.004 150.366 107.722 149.779 110.319 148.825C113.151 147.736 116.805 145.83 118.422 143.096C118.531 142.944 118.242 142.933 118.172 143.014Z" fill="black"/>
<path d="M95.3878 147.932C95.5962 147.854 95.7846 147.73 95.9392 147.57C96.0937 147.41 96.2104 147.217 96.2808 147.006C96.4208 146.587 96.6665 146.212 96.9942 145.917C97.3536 145.655 97.9852 145.732 98.0833 146.162C98.1212 145.945 98.205 145.738 98.3289 145.556C98.4528 145.374 98.6141 145.22 98.8021 145.105C98.8978 145.055 99.003 145.027 99.1108 145.021C99.2186 145.015 99.3264 145.032 99.4269 145.071C99.5275 145.11 99.6185 145.171 99.6939 145.248C99.7693 145.325 99.8273 145.418 99.8639 145.519C99.8539 145.102 99.9886 144.694 100.245 144.365C100.331 144.244 100.441 144.144 100.569 144.07C100.697 143.995 100.839 143.949 100.986 143.935C101.06 143.93 101.134 143.941 101.204 143.966C101.274 143.992 101.338 144.031 101.392 144.082C101.446 144.133 101.489 144.195 101.519 144.263C101.548 144.331 101.563 144.405 101.563 144.479C101.865 144.031 102.256 143.649 102.712 143.357C103.959 142.688 104.411 143.646 104.585 144.659C105.038 144.481 105.53 144.423 106.012 144.49C106.132 144.515 106.246 144.565 106.346 144.636C106.446 144.707 106.53 144.799 106.593 144.904C106.656 145.009 106.696 145.127 106.712 145.249C106.727 145.37 106.717 145.494 106.682 145.612C106.529 145.933 106.137 146.091 105.99 146.423C105.943 146.602 105.912 146.784 105.898 146.968C105.824 147.235 105.674 147.476 105.464 147.658C105.255 147.84 104.997 147.956 104.721 147.992C104.173 148.052 103.618 148.004 103.088 147.85C103.311 148.46 102.739 149.135 102.097 149.255C101.441 149.313 100.785 149.154 100.229 148.803C100.347 148.941 100.407 149.12 100.395 149.301C100.383 149.482 100.3 149.652 100.163 149.772C100.022 149.887 99.8568 149.97 99.6803 150.016C99.5038 150.062 99.3195 150.07 99.1397 150.039C98.6611 149.992 98.2077 149.802 97.8382 149.494L97.8709 149.881C97.2556 150.317 95.7199 148.531 95.2353 148.095" fill="#455A64"/>
<path opacity="0.25" d="M95.3878 147.932C95.5962 147.854 95.7846 147.73 95.9392 147.57C96.0937 147.41 96.2104 147.217 96.2808 147.006C96.4208 146.587 96.6665 146.212 96.9942 145.917C97.3536 145.655 97.9852 145.732 98.0833 146.162C98.1212 145.945 98.205 145.738 98.3289 145.556C98.4528 145.374 98.6141 145.22 98.8021 145.105C98.8978 145.055 99.003 145.027 99.1108 145.021C99.2186 145.015 99.3264 145.032 99.4269 145.071C99.5275 145.11 99.6185 145.171 99.6939 145.248C99.7693 145.325 99.8273 145.418 99.8639 145.519C99.8539 145.102 99.9886 144.694 100.245 144.365C100.331 144.244 100.441 144.144 100.569 144.07C100.697 143.995 100.839 143.949 100.986 143.935C101.06 143.93 101.134 143.941 101.204 143.966C101.274 143.992 101.338 144.031 101.392 144.082C101.446 144.133 101.489 144.195 101.519 144.263C101.548 144.331 101.563 144.405 101.563 144.479C101.865 144.031 102.256 143.649 102.712 143.357C103.959 142.688 104.411 143.646 104.585 144.659C105.038 144.481 105.53 144.423 106.012 144.49C106.132 144.515 106.246 144.565 106.346 144.636C106.446 144.707 106.53 144.799 106.593 144.904C106.656 145.009 106.696 145.127 106.712 145.249C106.727 145.37 106.717 145.494 106.682 145.612C106.529 145.933 106.137 146.091 105.99 146.423C105.943 146.602 105.912 146.784 105.898 146.968C105.824 147.235 105.674 147.476 105.464 147.658C105.255 147.84 104.997 147.956 104.721 147.992C104.173 148.052 103.618 148.004 103.088 147.85C103.311 148.46 102.739 149.135 102.097 149.255C101.441 149.313 100.785 149.154 100.229 148.803C100.347 148.941 100.407 149.12 100.395 149.301C100.383 149.482 100.3 149.652 100.163 149.772C100.022 149.887 99.8568 149.97 99.6803 150.016C99.5038 150.062 99.3195 150.07 99.1397 150.039C98.6611 149.992 98.2077 149.802 97.8382 149.494L97.8709 149.881C97.2556 150.317 95.7199 148.531 95.2353 148.095" fill="black"/>
<path d="M103.267 146.118C101.204 147.207 98.2031 147.632 95.9051 147.714C93.636 147.767 91.3692 147.535 89.1581 147.022C84.8018 146.064 80.3419 144.299 77.4667 140.82C77.2543 140.564 76.7534 140.923 76.884 141.212C77.9731 143.619 80.3201 144.866 82.5746 145.949C84.5335 146.85 86.5838 147.536 88.6898 147.997C90.9307 148.553 93.2385 148.791 95.5457 148.705C98.0778 148.585 101.476 148.008 103.463 146.254C103.578 146.156 103.354 146.075 103.267 146.118Z" fill="#455A64"/>
<path d="M97.212 152.234C97.4347 152.204 97.6479 152.125 97.8363 152.002C98.0247 151.88 98.1834 151.717 98.3011 151.526C98.5316 151.142 98.8558 150.824 99.2431 150.6C99.6516 150.426 100.251 150.638 100.267 151.079C100.35 150.876 100.477 150.694 100.638 150.544C100.798 150.395 100.99 150.282 101.198 150.213C101.303 150.185 101.412 150.18 101.519 150.198C101.625 150.215 101.727 150.256 101.817 150.316C101.907 150.377 101.982 150.455 102.039 150.548C102.096 150.64 102.132 150.743 102.146 150.85C102.229 150.442 102.45 150.075 102.772 149.81C102.882 149.711 103.011 149.637 103.152 149.592C103.293 149.546 103.442 149.532 103.589 149.549C103.661 149.561 103.731 149.587 103.793 149.626C103.855 149.666 103.909 149.717 103.95 149.778C103.992 149.838 104.021 149.906 104.036 149.979C104.05 150.051 104.05 150.125 104.035 150.197C104.429 149.827 104.894 149.542 105.402 149.358C106.769 148.977 106.997 150.017 106.943 151.041C107.426 150.971 107.918 151.024 108.375 151.193C108.487 151.245 108.586 151.318 108.668 151.41C108.749 151.502 108.811 151.609 108.849 151.726C108.887 151.843 108.9 151.966 108.888 152.088C108.876 152.21 108.838 152.328 108.778 152.435C108.555 152.718 108.125 152.778 107.923 153.072C107.836 153.237 107.765 153.411 107.711 153.589C107.58 153.834 107.38 154.035 107.136 154.167C106.892 154.298 106.615 154.355 106.339 154.33C105.785 154.27 105.25 154.097 104.765 153.824C104.847 154.472 104.144 155.005 103.491 154.978C102.837 154.889 102.231 154.588 101.764 154.123C101.807 154.202 101.834 154.29 101.844 154.379C101.853 154.469 101.845 154.56 101.819 154.646C101.793 154.733 101.75 154.813 101.693 154.883C101.636 154.953 101.566 155.011 101.487 155.054C101.323 155.135 101.145 155.179 100.963 155.186C100.781 155.193 100.599 155.161 100.43 155.092C99.9737 154.934 99.5753 154.642 99.2867 154.254L99.2377 154.64C98.5352 154.929 97.4352 152.849 97.0595 152.315" fill="#455A64"/>
<path opacity="0.25" d="M97.212 152.234C97.4347 152.204 97.6479 152.125 97.8363 152.002C98.0247 151.88 98.1834 151.717 98.3011 151.526C98.5316 151.142 98.8558 150.824 99.2431 150.6C99.6516 150.426 100.251 150.638 100.267 151.079C100.35 150.876 100.477 150.694 100.638 150.544C100.798 150.395 100.99 150.282 101.198 150.213C101.303 150.185 101.412 150.18 101.519 150.198C101.625 150.215 101.727 150.256 101.817 150.316C101.907 150.377 101.982 150.455 102.039 150.548C102.096 150.64 102.132 150.743 102.146 150.85C102.229 150.442 102.45 150.075 102.772 149.81C102.882 149.711 103.011 149.637 103.152 149.592C103.293 149.546 103.442 149.532 103.589 149.549C103.661 149.561 103.731 149.587 103.793 149.626C103.855 149.666 103.909 149.717 103.95 149.778C103.992 149.838 104.021 149.906 104.036 149.979C104.05 150.051 104.05 150.125 104.035 150.197C104.429 149.827 104.894 149.542 105.402 149.358C106.769 148.977 106.997 150.017 106.943 151.041C107.426 150.971 107.918 151.024 108.375 151.193C108.487 151.245 108.586 151.318 108.668 151.41C108.749 151.502 108.811 151.609 108.849 151.726C108.887 151.843 108.9 151.966 108.888 152.088C108.876 152.21 108.838 152.328 108.778 152.435C108.555 152.718 108.125 152.778 107.923 153.072C107.836 153.237 107.765 153.411 107.711 153.589C107.58 153.834 107.38 154.035 107.136 154.167C106.892 154.298 106.615 154.355 106.339 154.33C105.785 154.27 105.25 154.097 104.765 153.824C104.847 154.472 104.144 155.005 103.491 154.978C102.837 154.889 102.231 154.588 101.764 154.123C101.807 154.202 101.834 154.29 101.844 154.379C101.853 154.469 101.845 154.56 101.819 154.646C101.793 154.733 101.75 154.813 101.693 154.883C101.636 154.953 101.566 155.011 101.487 155.054C101.323 155.135 101.145 155.179 100.963 155.186C100.781 155.193 100.599 155.161 100.43 155.092C99.9737 154.934 99.5753 154.642 99.2867 154.254L99.2377 154.64C98.5352 154.929 97.4352 152.849 97.0595 152.315" fill="black"/>
<path d="M105.299 152.206C103.044 152.816 100.022 152.56 97.762 152.135C95.5349 151.684 93.374 150.952 91.3309 149.957C87.323 148.073 83.3424 145.345 81.3058 141.332C81.1533 141.032 80.587 141.272 80.6469 141.582C81.1642 144.169 83.1899 145.906 85.1503 147.463C86.8632 148.772 88.7105 149.895 90.6611 150.812C92.7277 151.838 94.927 152.571 97.1957 152.99C99.6897 153.426 103.131 153.617 105.456 152.348C105.593 152.31 105.386 152.179 105.299 152.206Z" fill="#455A64"/>
<path d="M206.034 183.648C210.69 178.9 213.424 159.569 208.882 155.806H185.783C181.246 159.569 183.975 178.895 188.625 183.648L188.756 183.779L188.914 183.932C189.048 184.065 189.19 184.191 189.338 184.307C189.372 184.339 189.409 184.368 189.447 184.394C189.562 184.487 189.676 184.574 189.801 184.661C189.993 184.801 190.193 184.928 190.4 185.043C194.212 187.253 200.436 187.253 204.264 185.043C204.476 184.927 204.679 184.798 204.874 184.656C204.989 184.58 205.092 184.493 205.201 184.411L205.337 184.302C205.484 184.182 205.615 184.062 205.746 183.943L205.931 183.763L206.034 183.648Z" fill="#455A64"/>
<g opacity="0.5">
<path d="M206.034 183.648C210.69 178.9 213.424 159.569 208.882 155.806H185.783C181.246 159.569 183.975 178.895 188.625 183.648L188.756 183.779L188.914 183.932C189.048 184.065 189.19 184.191 189.338 184.307C189.372 184.339 189.409 184.368 189.447 184.394C189.562 184.487 189.676 184.574 189.801 184.661C189.993 184.801 190.193 184.928 190.4 185.043C194.212 187.253 200.436 187.253 204.264 185.043C204.476 184.927 204.679 184.798 204.874 184.656C204.989 184.58 205.092 184.493 205.201 184.411L205.337 184.302C205.484 184.182 205.615 184.062 205.746 183.943L205.931 183.763L206.034 183.648Z" fill="white"/>
</g>
<path d="M187.792 154.286C182.521 157.331 182.521 162.264 187.792 165.308C193.063 168.352 201.607 168.352 206.851 165.308C212.095 162.264 212.122 157.331 206.851 154.286C201.58 151.242 193.058 151.242 187.792 154.286Z" fill="#455A64"/>
<g opacity="0.7">
<path d="M187.792 154.286C182.521 157.331 182.521 162.264 187.792 165.308C193.063 168.352 201.607 168.352 206.851 165.308C212.095 162.264 212.122 157.331 206.851 154.286C201.58 151.242 193.058 151.242 187.792 154.286Z" fill="white"/>
</g>
<path d="M190.324 155.751C186.452 157.984 186.452 161.611 190.324 163.843C194.196 166.076 200.469 166.076 204.341 163.843C208.212 161.611 208.212 157.984 204.341 155.751C200.469 153.519 194.196 153.513 190.324 155.751Z" fill="#455A64"/>
<g opacity="0.2">
<path d="M190.324 155.751C186.452 157.984 186.452 161.611 190.324 163.843C194.196 166.076 200.469 166.076 204.341 163.843C208.212 161.611 208.212 157.984 204.341 155.751C200.469 153.519 194.196 153.513 190.324 155.751Z" fill="white"/>
</g>
<path d="M204.341 159.612C200.469 157.379 194.196 157.379 190.324 159.612C189.387 160.119 188.59 160.851 188.004 161.741C188.591 162.629 189.388 163.358 190.324 163.865C194.196 166.098 200.469 166.098 204.341 163.865C205.278 163.36 206.075 162.63 206.661 161.741C206.077 160.849 205.279 160.118 204.341 159.612Z" fill="#F5F5F5"/>
<path d="M195.083 153.486L198.4 151.128C198.4 151.128 201.122 136.894 198.77 130.751C196.418 124.609 192.105 124.652 190.057 126.291C188.01 127.93 189.126 133.071 189.97 136.05C190.983 139.627 194.218 155.653 191.941 161.349L195.083 153.486Z" fill="#455A64"/>
<g opacity="0.2">
<path d="M195.083 153.486L198.4 151.128C198.4 151.128 201.122 136.894 198.77 130.751C196.418 124.609 192.105 124.652 190.057 126.291C188.01 127.93 189.126 133.071 189.97 136.05C190.983 139.627 194.218 155.653 191.941 161.349L195.083 153.486Z" fill="black"/>
</g>
<path d="M195.742 151.831C195.682 151.805 195.633 151.76 195.603 151.702C195.574 151.645 195.565 151.578 195.579 151.515C198.264 139.339 192.715 128.023 192.66 127.909C192.629 127.843 192.625 127.768 192.649 127.7C192.672 127.631 192.721 127.575 192.786 127.542C192.851 127.509 192.925 127.503 192.994 127.525C193.064 127.547 193.121 127.594 193.156 127.658C193.21 127.773 198.852 139.262 196.118 151.618C196.101 151.69 196.057 151.751 195.995 151.79C195.932 151.829 195.857 151.841 195.786 151.825L195.742 151.831Z" fill="white"/>
<path d="M196.505 149.81C196.505 149.81 196.875 148.689 195.225 148.405C193.575 148.122 192.949 146.772 192.791 144.452C192.633 142.132 191.947 140.504 189.878 140.166C187.808 139.829 186.147 140.869 184.808 139.834C183.468 138.8 179.994 136.3 177.108 137.438C174.222 138.576 175.164 141.043 176.667 142.644C178.17 144.245 178.605 144.779 177.456 147.382C176.307 149.985 177.141 152.413 179.803 153.023C182.466 153.633 183.947 153.323 183.986 156.236C184.024 158.844 184.53 161.284 187.253 162.27C189.407 163.046 191.72 163.274 193.983 162.934C194.743 162.865 195.464 162.565 196.047 162.073C196.592 161.529 196.483 160.897 196.483 160.173V149.81H196.505Z" fill="#455A64"/>
<g opacity="0.1">
<path d="M196.505 149.81C196.505 149.81 196.875 148.689 195.225 148.405C193.575 148.122 192.949 146.772 192.791 144.452C192.633 142.132 191.947 140.504 189.878 140.166C187.808 139.829 186.147 140.869 184.808 139.834C183.468 138.8 179.994 136.3 177.108 137.438C174.222 138.576 175.164 141.043 176.667 142.644C178.17 144.245 178.605 144.779 177.456 147.382C176.307 149.985 177.141 152.413 179.803 153.023C182.466 153.633 183.947 153.323 183.986 156.236C184.024 158.844 184.53 161.284 187.253 162.27C189.407 163.046 191.72 163.274 193.983 162.934C194.743 162.865 195.464 162.565 196.047 162.073C196.592 161.529 196.483 160.897 196.483 160.173V149.81H196.505Z" fill="black"/>
</g>
<path d="M196.505 161.79C196.456 161.79 196.409 161.775 196.37 161.747C196.331 161.718 196.302 161.678 196.287 161.632C191.451 147.267 180.495 141.484 180.386 141.408C180.332 141.38 180.291 141.331 180.273 141.273C180.254 141.215 180.26 141.152 180.288 141.098C180.316 141.043 180.365 141.003 180.423 140.984C180.481 140.966 180.544 140.971 180.598 141C180.707 141.059 191.822 146.941 196.723 161.491C196.74 161.549 196.734 161.611 196.707 161.665C196.68 161.718 196.632 161.76 196.576 161.779L196.505 161.79Z" fill="white"/>
<path d="M189.562 149.266H189.507C186.349 148.547 181.29 148.934 181.241 148.939C181.18 148.944 181.12 148.925 181.074 148.886C181.027 148.846 180.998 148.79 180.993 148.729C180.988 148.669 181.007 148.609 181.047 148.562C181.086 148.516 181.142 148.487 181.203 148.482C181.415 148.482 186.382 148.084 189.611 148.819C189.669 148.835 189.72 148.872 189.751 148.924C189.783 148.976 189.793 149.038 189.78 149.097C189.767 149.145 189.738 149.187 189.699 149.218C189.66 149.248 189.611 149.265 189.562 149.266Z" fill="white"/>
<path d="M192.137 156.176C190.694 156.176 189.164 156.083 189.066 156.078C189.036 156.076 189.007 156.068 188.98 156.055C188.953 156.041 188.929 156.022 188.909 156C188.889 155.977 188.874 155.95 188.865 155.922C188.855 155.893 188.852 155.863 188.854 155.833C188.855 155.803 188.863 155.774 188.875 155.747C188.888 155.72 188.906 155.696 188.929 155.676C188.951 155.656 188.977 155.641 189.005 155.632C189.034 155.622 189.064 155.618 189.093 155.621C190.74 155.734 192.392 155.734 194.038 155.621C194.098 155.613 194.158 155.628 194.207 155.664C194.255 155.699 194.289 155.752 194.299 155.811C194.304 155.841 194.303 155.871 194.296 155.9C194.289 155.93 194.276 155.957 194.258 155.981C194.24 156.006 194.218 156.026 194.192 156.042C194.167 156.057 194.138 156.068 194.109 156.073C193.455 156.155 192.796 156.19 192.137 156.176Z" fill="white"/>
<path d="M188.081 147.583C188.021 147.579 187.965 147.551 187.925 147.507C187.886 147.462 187.865 147.403 187.868 147.344C187.978 145.699 188.321 144.078 188.886 142.53C188.897 142.502 188.914 142.477 188.934 142.455C188.955 142.434 188.98 142.417 189.007 142.405C189.035 142.393 189.064 142.387 189.094 142.387C189.124 142.387 189.153 142.393 189.181 142.404C189.209 142.415 189.235 142.431 189.257 142.451C189.279 142.472 189.296 142.496 189.308 142.524C189.321 142.551 189.327 142.581 189.328 142.611C189.328 142.641 189.323 142.671 189.311 142.699C188.767 144.202 188.435 145.775 188.326 147.371C188.324 147.401 188.316 147.43 188.302 147.457C188.289 147.484 188.27 147.508 188.247 147.528C188.224 147.548 188.198 147.563 188.169 147.572C188.141 147.582 188.111 147.585 188.081 147.583Z" fill="white"/>
<path d="M196.586 163.353C198.863 164.053 201.284 164.142 203.606 163.609C207.63 162.749 208.605 160.287 208.605 160.287C208.605 160.287 205.74 157.303 203.197 157.134C205.729 156.758 208.307 156.813 210.821 157.298C210.821 157.298 213.151 156.437 212.71 152.544C212.71 152.544 210.532 150.948 205.468 151.575C205.468 151.575 208 149.789 212.433 149.26C212.781 149.26 212.313 144.191 211.888 141.931C211.463 139.671 210.625 140.019 208.811 140.215C206.998 140.411 201.291 142.296 200.611 143.597C199.93 144.898 200.611 148.193 200.611 148.193C200.611 148.193 198.95 146.821 198.579 145.171C197.306 145.285 196.098 145.784 195.116 146.603C193.515 147.959 193.978 148.814 194.501 150.159C195.012 151.524 195.718 152.808 196.597 153.971C196.597 153.971 194.893 153.361 193.281 149.304C193.281 149.304 191.604 152.408 191.31 154.63C191.016 156.851 193.123 161.54 196.586 163.353Z" fill="#455A64"/>
<path d="M196.674 163.566C196.714 163.55 196.749 163.523 196.775 163.488C196.801 163.454 196.817 163.413 196.821 163.37C197.425 155.828 205.963 144.044 209.737 141.675C209.763 141.659 209.785 141.638 209.802 141.613C209.819 141.589 209.831 141.561 209.838 141.532C209.845 141.502 209.845 141.472 209.84 141.442C209.835 141.413 209.824 141.384 209.808 141.359C209.792 141.334 209.771 141.312 209.746 141.294C209.722 141.277 209.694 141.265 209.665 141.258C209.635 141.252 209.605 141.251 209.575 141.256C209.546 141.261 209.518 141.272 209.492 141.288C205.68 143.695 196.968 155.67 196.363 163.337C196.359 163.397 196.378 163.456 196.416 163.502C196.455 163.548 196.51 163.576 196.57 163.582C196.605 163.582 196.64 163.577 196.674 163.566Z" fill="white"/>
<path d="M205.076 87.1057L202.865 88.3854L147.566 56.4586L149.777 55.179L205.076 87.1057Z" fill="#455A64"/>
<path d="M149.777 55.1789L202.865 85.8315V37.0346L149.777 6.38208V55.1789Z" fill="#455A64"/>
<g opacity="0.8">
<path d="M149.777 55.1789L202.865 85.8315V37.0346L149.777 6.38208V55.1789Z" fill="white"/>
</g>
<path d="M175.213 19.7943V71.145L173.002 69.8708V18.52L175.213 19.7943Z" fill="#37474F"/>
<path d="M176.324 19.1517L175.213 19.7943V71.145L176.324 70.5025V19.1517Z" fill="#263238"/>
<path d="M175.213 19.7943L173.002 18.5201L174.107 17.8775L176.324 19.1517L175.213 19.7943Z" fill="#FAFAFA"/>
<path d="M145.355 57.7329L205.076 92.2136V35.755L145.355 1.27425V57.7329ZM147.577 5.10786L202.865 37.0346V88.3854L147.577 56.4586V5.10786Z" fill="#37474F"/>
<path d="M147.566 56.4586L149.777 55.179V6.3821L147.566 5.10786V56.4586Z" fill="#263238"/>
<path d="M145.355 1.27424L147.566 0L207.287 34.4807L205.076 35.755L145.355 1.27424Z" fill="#455A64"/>
<path d="M207.287 34.4807L205.076 35.755V92.2136L207.287 90.9393V34.4807Z" fill="#263238"/>
<path d="M175.213 21.0685L173.008 19.7943V21.074L175.213 22.3482V21.0685Z" fill="#263238"/>
<path d="M175.213 22.3482L176.324 21.7056L175.213 21.0685V22.3482Z" fill="black"/>
</svg>
