<svg width="1436" height="269" viewBox="0 0 1436 269" fill="none" xmlns="http://www.w3.org/2000/svg">
<path fill-rule="evenodd" clip-rule="evenodd" d="M0 145.32L60 152.32C120 160.32 240 174.32 360 131.32C480 88.3202 600 -12.6798 720 1.32023C840 16.3202 960 145.32 1080 196.32C1200 246.32 1320 217.32 1380 203.32L1440 188.32V318.32H1380C1320 318.32 1200 318.32 1080 318.32C960 318.32 840 318.32 720 318.32C600 318.32 480 318.32 360 318.32C240 318.32 120 318.32 60 318.32H0V145.32Z" fill="#FF725E"/>
</svg>
