<svg width="309" height="289" viewBox="0 0 309 289" fill="none" xmlns="http://www.w3.org/2000/svg">
<path d="M252.034 26.6711L255.2 23.2801L261.711 28.6851L273.712 16.318L276.871 19.4966L261.46 35.0231L252.034 26.6711Z" fill="#E0E0E0"/>
<path d="M290.474 25.8668C290.474 25.8668 290.474 25.7252 290.441 25.4485C290.409 25.1719 290.396 24.76 290.358 24.2324C290.358 23.9622 290.326 23.6662 290.306 23.338C290.287 23.0099 290.203 22.6495 290.145 22.2634C290.088 21.8774 290.017 21.4591 289.946 21.0152C289.86 20.544 289.748 20.0779 289.611 19.6189C289.015 17.2182 288.056 14.9226 286.767 12.8111C285.086 9.99984 282.879 7.53795 280.268 5.55943L279.162 4.74224C278.776 4.48486 278.37 4.25322 277.965 4.00227C277.56 3.75133 277.161 3.48108 276.717 3.28161L275.391 2.63815L274.715 2.32286L274.008 2.06548L272.573 1.53785C272.084 1.37699 271.575 1.27403 271.067 1.13891C270.56 0.989851 270.045 0.873787 269.523 0.791446C268.461 0.591545 267.385 0.466835 266.306 0.418244C265.752 0.418244 265.199 0.341029 264.639 0.353898L262.953 0.437546C262.67 0.437546 262.381 0.437547 262.097 0.495457L261.248 0.624148C260.682 0.720666 260.103 0.785012 259.53 0.907268C257.193 1.43553 254.933 2.26161 252.806 3.36525C252.265 3.65481 251.751 4.00871 251.217 4.31113C250.946 4.46477 250.684 4.6323 250.432 4.81302L249.679 5.37283C248.662 6.12954 247.695 6.95055 246.783 7.83081C245.886 8.76106 245.052 9.74987 244.287 10.7907L243.701 11.5757L243.186 12.4122L242.672 13.2551L242.414 13.6798L242.202 14.1238L241.333 15.9319L240.638 17.8172C239.81 20.4189 239.376 23.1301 239.351 25.8603C239.376 28.5927 239.81 31.306 240.638 33.9099L241.333 35.8017C241.623 36.4001 241.912 36.9985 242.195 37.5969L242.414 38.0409L242.672 38.4656L243.186 39.3149L243.701 40.1514L244.287 40.9364C245.052 41.9752 245.886 42.9619 246.783 43.8899C247.693 44.774 248.661 45.5973 249.679 46.3543L250.425 46.9141C250.676 47.1007 250.953 47.2487 251.217 47.4096C251.751 47.7313 252.265 48.053 252.806 48.3619C253.881 48.9228 254.992 49.4108 256.133 49.8225C257.241 50.2312 258.376 50.5644 259.53 50.8199C260.103 50.9421 260.682 51.0065 261.248 51.103L262.097 51.2317C262.387 51.2703 262.67 51.2703 262.953 51.2896L264.639 51.3732C265.199 51.3732 265.752 51.3282 266.306 51.3089C267.385 51.2603 268.461 51.1356 269.523 50.9357C270.047 50.8527 270.564 50.7366 271.074 50.5882C271.575 50.4531 272.084 50.3437 272.573 50.1828L274.014 49.6616L274.722 49.4043L275.365 49.0825L276.723 48.452C277.167 48.2525 277.56 47.9694 277.971 47.7377C278.383 47.5061 278.782 47.2551 279.175 46.9977L280.275 46.1741C282.889 44.2012 285.096 41.7408 286.774 38.9289C288.054 36.8139 289.004 34.5161 289.592 32.1147C289.728 31.6555 289.84 31.1894 289.927 30.7184C289.997 30.2744 290.062 29.8562 290.126 29.4701C290.191 29.084 290.255 28.7237 290.287 28.3955C290.319 28.0674 290.326 27.7521 290.339 27.5012C290.377 26.9735 290.403 26.5681 290.422 26.2786C290.441 25.989 290.454 25.8668 290.454 25.8668C290.454 25.8668 290.454 26.0083 290.454 26.285C290.454 26.5617 290.454 26.9735 290.409 27.5012L290.371 28.402C290.371 28.7366 290.274 29.0905 290.223 29.483C290.171 29.8755 290.107 30.2937 290.043 30.7699C289.978 31.246 289.83 31.6836 289.721 32.179C289.14 34.5998 288.191 36.9173 286.909 39.0511C285.232 41.8956 283.021 44.3888 280.397 46.3929L279.297 47.1651C278.904 47.4289 278.493 47.6605 278.087 47.9179C277.682 48.1753 277.276 48.4455 276.832 48.645L275.494 49.2884L274.812 49.6102C274.58 49.7003 274.342 49.7903 274.098 49.874L272.65 50.408C272.155 50.5753 271.64 50.6783 271.131 50.8199C270.618 50.9732 270.096 51.0936 269.568 51.1802C268.492 51.3816 267.405 51.5106 266.312 51.5663C265.752 51.5663 265.192 51.6435 264.626 51.6306L262.921 51.547C262.631 51.547 262.342 51.547 262.059 51.4955L261.197 51.3668C260.617 51.2703 260.038 51.2059 259.459 51.0837C258.288 50.8283 257.136 50.4929 256.01 50.0799C254.856 49.6666 253.732 49.1743 252.645 48.6064C252.098 48.3104 251.571 47.9629 251.036 47.6476C250.766 47.4803 250.49 47.3388 250.232 47.1457L249.473 46.5795C248.442 45.814 247.462 44.9822 246.539 44.0893C245.628 43.1515 244.783 42.1517 244.01 41.0973L243.412 40.3058L242.89 39.4565L242.369 38.6007L242.112 38.1696L241.893 37.7192C241.597 37.1143 241.307 36.503 241.011 35.8982C240.715 35.2934 240.548 34.6113 240.31 33.9678C239.46 31.3324 239.011 28.5842 238.978 25.8153C239.012 23.0485 239.461 20.3025 240.31 17.6692L241.011 15.7388C241.307 15.1276 241.603 14.5227 241.893 13.9179L242.112 13.461L242.376 13.0363L242.897 12.1806L243.412 11.3312L244.01 10.5333C244.785 9.48061 245.632 8.483 246.545 7.54769C247.465 6.65341 248.443 5.8215 249.473 5.05753L250.239 4.4913C250.49 4.29826 250.773 4.1567 251.036 3.9894C251.577 3.66768 252.098 3.34595 252.645 3.03066C253.73 2.46014 254.855 1.96772 256.01 1.55715C257.136 1.14411 258.288 0.808732 259.459 0.553368C260.038 0.431112 260.617 0.366768 261.197 0.27025L262.052 0.141559C262.342 0.102952 262.631 0.109386 262.921 0.0900829L264.626 0C265.192 0 265.752 0.0514753 266.306 0.0707789C267.4 0.126192 268.49 0.255173 269.568 0.45685C270.096 0.543479 270.618 0.663835 271.131 0.817183C271.64 0.958743 272.155 1.0617 272.65 1.22899L274.098 1.76306L274.812 2.02044L275.494 2.3486L276.832 2.99205C277.276 3.19796 277.669 3.48751 278.087 3.72559C278.505 3.96367 278.904 4.21461 279.297 4.47199L280.404 5.30848C283.031 7.31091 285.245 9.80429 286.922 12.6503C288.205 14.7836 289.154 17.1012 289.734 19.5223C289.843 20.0178 290.004 20.4746 290.055 20.9315C290.107 21.3884 290.178 21.7937 290.236 22.2184C290.293 22.6431 290.351 22.9648 290.384 23.293C290.416 23.6211 290.384 23.9364 290.422 24.1938C290.422 24.7279 290.454 25.1332 290.467 25.4164C290.48 25.6995 290.474 25.8668 290.474 25.8668Z" fill="#E0E0E0"/>
<path d="M243.096 51.5276C243.064 51.5276 243.064 51.2638 242.935 50.8198C242.755 50.195 242.372 49.6475 241.848 49.2627C241.428 48.943 240.928 48.7469 240.402 48.6965C239.877 48.6461 239.348 48.7436 238.876 48.9777C238.403 49.2119 238.005 49.5735 237.727 50.0218C237.449 50.4701 237.301 50.9872 237.301 51.5148C237.301 52.0424 237.449 52.5595 237.727 53.0078C238.005 53.456 238.403 53.8176 238.876 54.0518C239.348 54.286 239.877 54.3834 240.402 54.333C240.928 54.2827 241.428 54.0866 241.848 53.7669C242.372 53.3817 242.754 52.8343 242.935 52.2097C243.064 51.7593 243.064 51.4955 243.096 51.4955C243.109 51.5592 243.109 51.6248 243.096 51.6885C243.103 51.8744 243.086 52.0605 243.045 52.2419C242.907 52.9316 242.529 53.5497 241.977 53.9856C241.568 54.307 241.085 54.5198 240.572 54.6042C240.059 54.6885 239.533 54.6418 239.043 54.4682C238.437 54.2511 237.914 53.8524 237.544 53.3266C237.174 52.8009 236.976 52.1737 236.976 51.5309C236.976 50.888 237.174 50.2608 237.544 49.7351C237.914 49.2093 238.437 48.8106 239.043 48.5935C239.534 48.4226 240.061 48.379 240.574 48.4667C241.087 48.5545 241.57 48.7708 241.977 49.0954C242.525 49.5245 242.905 50.1326 243.051 50.8134C243.092 50.9927 243.11 51.1766 243.103 51.3603C243.11 51.4161 243.108 51.4726 243.096 51.5276Z" fill="#E0E0E0"/>
<path d="M18.3448 166.854H0V185.198H18.3448V166.854Z" fill="#F5F5F5"/>
<path d="M18.3448 187.148H0V205.493H18.3448V187.148Z" fill="#F5F5F5"/>
<path d="M18.3448 207.436H0V225.781H18.3448V207.436Z" fill="#F5F5F5"/>
<path d="M39.0962 166.854H20.7513V185.198H39.0962V166.854Z" fill="#F5F5F5"/>
<path d="M39.0962 187.148H20.7513V205.493H39.0962V187.148Z" fill="#F5F5F5"/>
<path d="M39.0962 207.436H20.7513V225.781H39.0962V207.436Z" fill="#F5F5F5"/>
<path d="M59.854 166.854H41.5092V185.198H59.854V166.854Z" fill="#F5F5F5"/>
<path d="M59.854 187.148H41.5092V205.493H59.854V187.148Z" fill="#F5F5F5"/>
<path d="M59.854 207.436H41.5092V225.781H59.854V207.436Z" fill="#F5F5F5"/>
<path d="M80.6117 166.854H62.2668V185.198H80.6117V166.854Z" fill="#F5F5F5"/>
<path d="M80.6117 187.148H62.2668V205.493H80.6117V187.148Z" fill="#F5F5F5"/>
<path d="M80.6117 207.436H62.2668V225.781H80.6117V207.436Z" fill="#F5F5F5"/>
<path d="M101.369 166.854H83.0247V185.198H101.369V166.854Z" fill="#F5F5F5"/>
<path d="M101.369 187.148H83.0247V205.493H101.369V187.148Z" fill="#F5F5F5"/>
<path d="M101.369 207.436H83.0247V225.781H101.369V207.436Z" fill="#F5F5F5"/>
<path d="M122.127 166.854H103.782V185.198H122.127V166.854Z" fill="#F5F5F5"/>
<path d="M122.127 187.148H103.782V205.493H122.127V187.148Z" fill="#F5F5F5"/>
<path d="M122.127 207.436H103.782V225.781H122.127V207.436Z" fill="#F5F5F5"/>
<path d="M142.879 166.854H124.534V185.198H142.879V166.854Z" fill="#F5F5F5"/>
<path d="M142.879 187.148H124.534V205.493H142.879V187.148Z" fill="#F5F5F5"/>
<path d="M142.879 207.436H124.534V225.781H142.879V207.436Z" fill="#F5F5F5"/>
<path d="M163.636 166.854H145.292V185.198H163.636V166.854Z" fill="#F5F5F5"/>
<path d="M163.636 187.148H145.292V205.493H163.636V187.148Z" fill="#F5F5F5"/>
<path d="M163.636 207.436H145.292V225.781H163.636V207.436Z" fill="#F5F5F5"/>
<path d="M184.394 166.854H166.049V185.198H184.394V166.854Z" fill="#F5F5F5"/>
<path d="M184.394 187.148H166.049V205.493H184.394V187.148Z" fill="#F5F5F5"/>
<path d="M184.394 207.436H166.049V225.781H184.394V207.436Z" fill="#F5F5F5"/>
<path d="M205.152 166.854H186.807V185.198H205.152V166.854Z" fill="#F5F5F5"/>
<path d="M205.152 187.148H186.807V205.493H205.152V187.148Z" fill="#F5F5F5"/>
<path d="M205.152 207.436H186.807V225.781H205.152V207.436Z" fill="#F5F5F5"/>
<path d="M225.91 166.854H207.565V185.198H225.91V166.854Z" fill="#F5F5F5"/>
<path d="M225.91 187.148H207.565V205.493H225.91V187.148Z" fill="#F5F5F5"/>
<path d="M225.91 207.436H207.565V225.781H225.91V207.436Z" fill="#F5F5F5"/>
<path d="M246.667 166.854H228.323V185.198H246.667V166.854Z" fill="#F5F5F5"/>
<path d="M246.667 187.148H228.323V205.493H246.667V187.148Z" fill="#F5F5F5"/>
<path d="M246.667 207.436H228.323V225.781H246.667V207.436Z" fill="#F5F5F5"/>
<path d="M267.419 166.854H249.074V185.198H267.419V166.854Z" fill="#F5F5F5"/>
<path d="M267.419 187.148H249.074V205.493H267.419V187.148Z" fill="#F5F5F5"/>
<path d="M267.419 207.436H249.074V225.781H267.419V207.436Z" fill="#F5F5F5"/>
<path d="M288.176 166.854H269.832V185.198H288.176V166.854Z" fill="#F5F5F5"/>
<path d="M288.176 187.148H269.832V205.493H288.176V187.148Z" fill="#F5F5F5"/>
<path d="M288.176 207.436H269.832V225.781H288.176V207.436Z" fill="#F5F5F5"/>
<path d="M308.934 166.854H290.589V185.198H308.934V166.854Z" fill="#F5F5F5"/>
<path d="M308.934 187.148H290.589V205.493H308.934V187.148Z" fill="#F5F5F5"/>
<path d="M308.934 207.436H290.589V225.781H308.934V207.436Z" fill="#F5F5F5"/>
<path d="M162.793 31.8638C162.793 31.8638 156.43 32.8804 152.974 44.0894C149.519 55.2983 145.999 73.0447 146.122 73.9327C146.411 76.0947 148.451 76.3134 150.124 77.8384C151.108 78.7457 151.308 78.4819 150.632 82.1303C150.027 85.4183 141.823 113.408 140.144 119.122C140.107 119.251 140.097 119.387 140.115 119.52C140.133 119.653 140.178 119.781 140.249 119.895C140.319 120.01 140.412 120.108 140.523 120.185C140.633 120.261 140.758 120.313 140.89 120.338L147.852 121.625C147.979 121.65 148.11 121.649 148.236 121.622C148.362 121.595 148.481 121.543 148.587 121.468C148.692 121.393 148.781 121.298 148.848 121.188C148.916 121.078 148.96 120.955 148.979 120.827L155.606 76.558C155.606 76.558 164.215 34.7979 164.248 34.0901C164.28 33.3823 164.653 31.9088 162.793 31.8638Z" fill="#E0E0E0"/>
<path d="M35.2676 126.683C33.5045 125.364 32.8675 120.615 30.4674 117.507C28.0674 114.399 12.5602 105.59 11.3955 104.941C11.085 104.74 10.7141 104.653 10.3467 104.696C10.2843 104.709 10.2269 104.74 10.1814 104.785C10.136 104.83 10.1042 104.887 10.09 104.949C10.0758 105.011 10.0797 105.076 10.1013 105.136C10.1228 105.196 10.1611 105.249 10.2116 105.288L23.7241 115.377C23.8391 115.459 23.9221 115.578 23.9585 115.715C23.9949 115.851 23.9826 115.996 23.9235 116.124C23.8843 116.198 23.8295 116.263 23.763 116.314C23.6965 116.365 23.6197 116.401 23.538 116.42C23.4562 116.439 23.3713 116.44 23.2891 116.424C23.2068 116.407 23.1292 116.373 23.0613 116.323L9.41369 106.633C9.27119 106.527 9.0925 106.482 8.91692 106.508C8.74135 106.534 8.58327 106.629 8.47746 106.771C8.37166 106.914 8.32679 107.092 8.35274 107.268C8.37868 107.444 8.47331 107.602 8.61581 107.707L21.916 117.887C22.0299 117.969 22.1116 118.089 22.1468 118.225C22.182 118.362 22.1687 118.506 22.109 118.633C22.0705 118.708 22.0162 118.774 21.9497 118.826C21.8833 118.878 21.8063 118.914 21.7242 118.933C21.6421 118.952 21.5569 118.953 21.4744 118.936C21.3919 118.918 21.3142 118.883 21.2468 118.833L7.61202 109.091C7.46184 108.982 7.27443 108.937 7.09101 108.966C6.90759 108.994 6.74319 109.095 6.63397 109.245C6.52475 109.395 6.47967 109.583 6.50863 109.766C6.53759 109.95 6.63823 110.114 6.7884 110.223L19.9856 120.396C20.1006 120.478 20.183 120.598 20.2183 120.734C20.2537 120.871 20.2396 121.016 20.1786 121.143C20.1402 121.218 20.0858 121.283 20.0194 121.335C19.9529 121.387 19.876 121.424 19.7939 121.443C19.7118 121.462 19.6265 121.463 19.544 121.445C19.4616 121.428 19.3839 121.393 19.3164 121.342L5.75888 111.24C5.70305 111.199 5.63653 111.175 5.56731 111.17C5.4981 111.166 5.42912 111.182 5.36866 111.216C5.3082 111.25 5.25882 111.301 5.22646 111.362C5.1941 111.423 5.18012 111.493 5.1862 111.562C5.24625 111.934 5.43809 112.272 5.7267 112.514C6.67901 113.447 19.5545 125.782 23.2157 127.198C26.877 128.613 31.6192 127.841 33.3823 129.173C34.9973 130.37 68.3346 156.912 74.1321 161.532C74.2445 161.62 74.3735 161.685 74.5114 161.723C74.6493 161.76 74.7933 161.769 74.9349 161.75C75.0765 161.731 75.2128 161.684 75.3358 161.611C75.4587 161.538 75.5658 161.441 75.6507 161.326L78.3596 157.684C78.4465 157.57 78.5094 157.44 78.5442 157.301C78.5791 157.162 78.5853 157.017 78.5624 156.876C78.5395 156.734 78.4881 156.599 78.4112 156.478C78.3343 156.357 78.2335 156.253 78.1151 156.172C72.0087 151.971 36.8762 127.88 35.2676 126.683Z" fill="#E0E0E0"/>
<path d="M294.096 288.711C294.096 288.801 231.038 288.878 153.219 288.878C75.3998 288.878 12.3029 288.801 12.3029 288.711C12.3029 288.621 75.3612 288.543 153.219 288.543C231.077 288.543 294.096 288.614 294.096 288.711Z" fill="#263238"/>
<path d="M73.0576 257.323C73.2473 256.092 73.1916 254.836 72.8937 253.627C72.5957 252.417 72.0614 251.279 71.3216 250.277C70.5817 249.275 69.6509 248.43 68.5827 247.789C67.5146 247.149 66.3303 246.726 65.098 246.545C64.881 246.496 64.6539 246.524 64.4546 246.622C64.3383 246.739 64.2541 246.884 64.2101 247.043C64.1662 247.202 64.1639 247.37 64.2037 247.53C64.4308 249.922 65.4081 252.181 66.9958 253.985C68.5835 255.789 70.7006 257.045 73.0447 257.574" fill="#455A64"/>
<path d="M59.8282 274.741C62.209 279.651 65.6193 282.952 69.8725 283.106C70.7154 283.138 71.3588 282.579 72.1696 282.533C72.6433 282.64 73.1002 282.811 73.5273 283.042C73.7484 283.14 73.9866 283.195 74.2286 283.203C78.6106 282.971 82.3426 279.889 84.8585 274.735C88.3589 267.522 87.2779 259.768 82.4455 257.413C81.8124 257.095 81.1511 256.837 80.4701 256.641C79.6868 256.426 78.8755 256.331 78.0636 256.358C76.1798 256.478 74.3271 256.897 72.575 257.6L72.3369 257.683C68.4118 255.952 65.2589 255.94 62.2283 257.413C57.3959 259.775 56.3214 267.528 59.8282 274.741Z" fill="#455A64"/>
<path d="M59.9118 267.432C59.6841 266.98 59.5485 266.488 59.5129 265.984C59.3703 264.763 59.5181 263.526 59.9441 262.373C60.3701 261.22 61.0623 260.185 61.9644 259.35C62.3196 258.988 62.7442 258.701 63.2127 258.507C63.2127 258.558 62.7623 258.867 62.1253 259.517C61.3057 260.367 60.6711 261.378 60.2613 262.485C59.8516 263.593 59.6756 264.773 59.7445 265.952C59.8089 266.865 59.9697 267.412 59.9118 267.432Z" fill="#FAFAFA"/>
<path d="M60.7998 270.861C60.7097 270.861 60.5553 270.539 60.4523 270.102C60.3494 269.664 60.3429 269.285 60.4523 269.265C60.5617 269.246 60.6968 269.587 60.7998 270.025C60.9027 270.462 60.8899 270.842 60.7998 270.861Z" fill="#FAFAFA"/>
<path d="M83.0439 245.522C83.0439 245.58 82.1366 245.927 80.7725 246.745C79.9777 247.223 79.2205 247.76 78.5075 248.353C77.6455 249.092 76.847 249.901 76.1203 250.773C75.3972 251.655 74.7514 252.598 74.19 253.591C73.7484 254.408 73.3698 255.258 73.0575 256.133C72.5299 257.625 72.3754 258.61 72.3111 258.597C72.3013 258.363 72.3251 258.129 72.3819 257.902C72.4186 257.631 72.4724 257.362 72.5427 257.098C72.6264 256.789 72.6972 256.454 72.8323 256.055C73.1207 255.158 73.4845 254.286 73.9197 253.449C74.998 251.394 76.4822 249.58 78.2823 248.115C79.0148 247.521 79.7986 246.994 80.6245 246.539C80.9363 246.357 81.2586 246.193 81.5897 246.05C81.8335 245.926 82.0849 245.819 82.3425 245.728C82.5649 245.625 82.8012 245.556 83.0439 245.522Z" fill="#263238"/>
<path d="M36.4708 277.47V278.383L48.2267 283.865C48.2267 283.865 49.1919 286.774 57.7562 286.922C66.3206 287.07 86.9303 287.089 86.9303 287.089C86.9303 287.089 92.5992 287.211 96.2604 284.007L107.495 278.55L107.347 277.405L36.4708 277.47Z" fill="#E0E0E0"/>
<path d="M86.0938 286.993H58.5798V288.209H86.0938V286.993Z" fill="#E0E0E0"/>
<path d="M96.4535 283.955H96.3313H95.9645L94.5618 283.994L89.4142 284.091C85.0451 284.155 79.016 284.226 72.3627 284.232C65.7094 284.239 59.6674 284.194 55.3047 284.084C53.1234 284.033 51.3604 283.981 50.1571 283.917L48.7544 283.853H48.3876H48.2654H48.7544L50.1636 283.885C51.3797 283.93 53.1428 283.955 55.3112 283.994C59.6738 284.065 65.7029 284.097 72.3691 284.084C79.0353 284.071 85.0515 284.033 89.4142 284.001L94.5618 283.962H96.4535V283.955Z" fill="#263238"/>
<path d="M85.4505 286.993C85.4505 287.044 79.3441 287.089 71.8222 287.089C64.3002 287.089 58.1938 287.044 58.1938 286.993C58.1938 286.941 64.2938 286.902 71.8222 286.902C79.3506 286.902 85.4505 286.941 85.4505 286.993Z" fill="#263238"/>
<path d="M107.257 278.551C107.257 278.602 91.3895 278.641 71.8221 278.641C52.2547 278.641 36.3872 278.602 36.3872 278.551C36.3872 278.499 52.2483 278.46 71.8221 278.46C91.3959 278.46 107.257 278.499 107.257 278.551Z" fill="#263238"/>
<path d="M129.964 80.3543C129.819 89.0073 127.112 97.4229 122.184 104.537C117.255 111.651 110.328 117.144 102.279 120.321C94.2286 123.498 85.4174 124.216 76.9591 122.385C68.5008 120.554 60.7754 116.256 54.7599 110.035C48.7444 103.813 44.709 95.9475 43.164 87.4324C41.619 78.9172 42.6338 70.1352 46.0801 62.1968C49.5264 54.2584 55.2494 47.5203 62.5253 42.8346C69.8012 38.1489 78.3032 35.7261 86.9561 35.8725C98.5577 36.0688 109.606 40.8653 117.672 49.2071C125.737 57.5488 130.159 68.7527 129.964 80.3543Z" fill="#455A64"/>
<g opacity="0.3">
<path d="M129.964 80.3543C129.819 89.0073 127.112 97.4229 122.184 104.537C117.255 111.651 110.328 117.144 102.279 120.321C94.2286 123.498 85.4174 124.216 76.9591 122.385C68.5008 120.554 60.7754 116.256 54.7599 110.035C48.7444 103.813 44.709 95.9475 43.164 87.4324C41.619 78.9172 42.6338 70.1352 46.0801 62.1968C49.5264 54.2584 55.2494 47.5203 62.5253 42.8346C69.8012 38.1489 78.3032 35.7261 86.9561 35.8725C98.5577 36.0688 109.606 40.8653 117.672 49.2071C125.737 57.5488 130.159 68.7527 129.964 80.3543Z" fill="black"/>
</g>
<path d="M114.094 109.371C131.299 92.1655 131.299 64.27 114.094 47.0646C96.8881 29.8592 68.9927 29.8593 51.7873 47.0646C34.5819 64.27 34.5819 92.1655 51.7873 109.371C68.9927 126.576 96.8881 126.576 114.094 109.371Z" fill="#455A64"/>
<path d="M118.262 95.5792C127.848 76.0728 119.805 52.4891 100.299 42.9035C80.7928 33.3178 57.209 41.3602 47.6234 60.8665C38.0378 80.3729 46.0801 103.957 65.5865 113.542C85.0928 123.128 108.677 115.086 118.262 95.5792Z" fill="white"/>
<path d="M122.294 78.8808C122.294 78.8808 122.294 78.662 122.294 78.2373C122.294 77.8127 122.294 77.1885 122.237 76.3649C121.954 70.7477 120.47 65.2564 117.885 60.2614C115.3 55.2664 111.673 50.884 107.251 47.4096C102.445 43.63 96.8212 41.0275 90.8296 39.8104C85.7616 38.7851 80.5421 38.7588 75.464 39.7332C73.6718 40.0856 71.9048 40.5563 70.1748 41.1423C62.5787 43.7805 55.9762 48.6882 51.2604 55.2013C46.5445 61.7145 43.9429 69.519 43.8074 77.559C43.672 85.5991 46.0092 93.4867 50.5029 100.155C54.9966 106.823 61.4301 111.951 68.933 114.843C70.6346 115.482 72.3755 116.011 74.1449 116.426C75.8718 116.822 77.6241 117.097 79.3891 117.25C82.7651 117.562 86.1674 117.435 89.5106 116.87C95.5324 115.838 101.23 113.414 106.15 109.792C113.321 104.534 118.502 97.0052 120.853 88.4296C121.48 86.1124 121.898 83.7436 122.101 81.3517C122.191 80.5345 122.185 79.9039 122.224 79.4856C122.262 79.0674 122.262 78.8422 122.262 78.8422C122.262 78.8422 122.262 79.7109 122.166 81.3517C121.992 83.7431 121.593 86.1128 120.975 88.4296C118.669 97.0644 113.49 104.656 106.292 109.953C101.347 113.6 95.6179 116.039 89.562 117.076C86.1969 117.656 82.7703 117.792 79.3698 117.482C77.5924 117.326 75.8275 117.05 74.087 116.658C72.3016 116.244 70.5455 115.713 68.83 115.069C61.2488 112.171 54.7434 107.01 50.1979 100.286C45.6524 93.5628 43.2871 85.6027 43.4234 77.4879C43.5598 69.373 46.1912 61.4969 50.9601 54.9298C55.7289 48.3627 62.404 43.423 70.0783 40.782C71.824 40.2231 73.6035 39.776 75.4061 39.4436C80.9808 38.3618 86.7234 38.4974 92.2408 39.8412C97.7581 41.185 102.92 43.7053 107.373 47.2294C111.337 50.374 114.666 54.246 117.179 58.6378C120.289 64.0502 122.044 70.1342 122.294 76.3713C122.333 78.0508 122.294 78.8808 122.294 78.8808Z" fill="#263238"/>
<path d="M64.7441 130.885L66.8546 118.588L73.7589 121.098L68.5083 132.101C68.3153 132.512 67.9869 132.844 67.5781 133.042C67.1693 133.24 66.7049 133.292 66.2626 133.188C65.7615 133.074 65.3238 132.77 65.0409 132.341C64.7579 131.912 64.6516 131.39 64.7441 130.885Z" fill="#455A64"/>
<path d="M125.351 114.168L118.344 103.872L113.1 109.02L122.417 116.844C122.765 117.136 123.202 117.3 123.656 117.309C124.11 117.319 124.554 117.173 124.913 116.896C125.326 116.587 125.602 116.129 125.684 115.62C125.765 115.111 125.646 114.59 125.351 114.168Z" fill="#455A64"/>
<path d="M70.5082 28.4098L68.5404 29.0375L71.3442 37.8283L73.312 37.2006L70.5082 28.4098Z" fill="#455A64"/>
<path d="M70.2819 24.8003L66.6281 25.965C65.9069 26.1949 65.5086 26.9659 65.7385 27.687L66.0453 28.6495C66.2752 29.3707 67.0462 29.769 67.7674 29.5391L71.4212 28.3744C72.1424 28.1446 72.5407 27.3736 72.3108 26.6524L72.004 25.6899C71.7741 24.9687 71.0031 24.5704 70.2819 24.8003Z" fill="#455A64"/>
<path d="M82.1367 69.1003C81.667 67.6654 83.1984 64.7506 83.089 62.0609C82.9796 59.3713 77.787 48.2911 77.3945 47.461C77.2971 47.2255 77.1223 47.0303 76.899 46.9076C76.8618 46.8957 76.8221 46.8938 76.7838 46.9019C76.7456 46.91 76.7101 46.9279 76.6809 46.9539C76.6517 46.9798 76.6298 47.0129 76.6172 47.05C76.6047 47.087 76.602 47.1266 76.6094 47.165L80.1935 58.1873C80.2243 58.2788 80.2226 58.3781 80.1886 58.4684C80.1545 58.5587 80.0904 58.6344 80.0069 58.6828C79.9553 58.71 79.8984 58.7256 79.8401 58.7284C79.7818 58.7313 79.7237 58.7213 79.6697 58.6992C79.6157 58.6771 79.5672 58.6435 79.5276 58.6006C79.4881 58.5577 79.4584 58.5067 79.4406 58.4512L75.6314 47.6026C75.593 47.4874 75.5104 47.3921 75.4018 47.3378C75.2932 47.2835 75.1675 47.2746 75.0523 47.313C74.9371 47.3514 74.8419 47.434 74.7876 47.5426C74.7333 47.6512 74.7243 47.7769 74.7627 47.8921L78.1473 58.8308C78.1794 58.9221 78.1783 59.0219 78.1442 59.1125C78.11 59.2031 78.0451 59.2788 77.9607 59.3263C77.9096 59.3535 77.8531 59.369 77.7952 59.3718C77.7374 59.3746 77.6797 59.3646 77.6262 59.3425C77.5726 59.3203 77.5247 59.2866 77.4858 59.2438C77.4468 59.2009 77.4178 59.15 77.4009 59.0946L73.6496 48.246C73.6022 48.1372 73.516 48.05 73.4078 48.0014C73.2995 47.9529 73.177 47.9465 73.0643 47.9836C72.9516 48.0206 72.8567 48.0984 72.7984 48.2017C72.74 48.305 72.7223 48.4263 72.7487 48.542L76.1076 59.4807C76.1384 59.5721 76.1366 59.6714 76.1026 59.7617C76.0686 59.852 76.0044 59.9278 75.921 59.9761C75.8694 60.0034 75.8124 60.0189 75.7542 60.0218C75.6959 60.0246 75.6377 60.0146 75.5837 59.9925C75.5298 59.9705 75.4813 59.9368 75.4417 59.8939C75.4021 59.8511 75.3724 59.8001 75.3547 59.7445L71.7707 48.7157C71.7558 48.671 71.7284 48.6314 71.6916 48.6019C71.6548 48.5724 71.6102 48.5542 71.5633 48.5494C71.5164 48.5447 71.469 48.5536 71.4271 48.5751C71.3851 48.5966 71.3502 48.6298 71.3267 48.6707C71.2115 48.902 71.1841 49.1671 71.2495 49.4171C71.4168 50.3115 73.7268 62.3247 75.2196 64.5704C76.7124 66.816 79.6594 68.2702 80.1291 69.718C80.5538 71.0049 88.6935 99.1109 90.1091 103.988C90.1362 104.082 90.182 104.17 90.2437 104.246C90.3054 104.322 90.3818 104.384 90.4683 104.43C90.5548 104.476 90.6497 104.503 90.7472 104.511C90.8446 104.52 90.9428 104.508 91.0356 104.477L93.9955 103.519C94.0895 103.489 94.1764 103.441 94.2511 103.376C94.3257 103.312 94.3866 103.233 94.4299 103.145C94.4732 103.056 94.4981 102.96 94.5031 102.862C94.5081 102.763 94.493 102.665 94.4588 102.573C92.6958 97.824 82.5614 70.4065 82.1367 69.1003Z" fill="#E0E0E0"/>
<path d="M106.678 50.9165C106.678 50.9165 102.663 49.7775 97.5731 55.4206C92.4834 61.0637 85.5856 70.4838 85.4118 71.0501C84.9871 72.4013 86.1261 73.0834 86.6987 74.4411C87.0333 75.2389 87.2264 75.1231 85.8236 77.0921C84.5689 78.8551 72.1181 93.0368 69.5765 95.9324C69.5227 95.9992 69.4829 96.076 69.4592 96.1584C69.4356 96.2408 69.4287 96.3271 69.4389 96.4122C69.4491 96.4974 69.4762 96.5796 69.5186 96.6541C69.561 96.7286 69.6179 96.7939 69.6859 96.8461L73.4114 99.51C73.5505 99.603 73.7203 99.6382 73.8848 99.6082C74.0494 99.5782 74.1958 99.4852 74.293 99.3491L90.257 75.1875C90.257 75.1875 106.71 53.0463 106.929 52.6216C107.148 52.1969 107.752 51.4505 106.678 50.9165Z" fill="#E0E0E0"/>
<path d="M97.2964 13.8793C97.9038 12.8115 98.8477 11.975 99.9807 11.5003C101.114 11.0257 102.372 10.9397 103.559 11.2558C104.746 11.5718 105.795 12.2722 106.542 13.2474C107.289 14.2226 107.692 15.4177 107.688 16.6461L97.2964 13.8793Z" fill="#455A64"/>
<path d="M76.9697 25.2877C76.9697 25.2877 84.9743 9.37509 103.081 14.4584C121.188 19.5416 120.19 36.8248 120.19 36.8248L76.9697 25.2877Z" fill="#455A64"/>
<path d="M120.506 37.0564C119.862 39.3536 109.638 38.6007 97.6182 35.3706C85.5985 32.1405 76.3521 27.6492 76.9698 25.3585C77.5875 23.0678 87.8313 23.8142 99.8574 27.0443C111.884 30.2745 121.123 34.7593 120.506 37.0564Z" fill="#263238"/>
<path d="M96.4664 26.1885L94.1371 36.2328L99.9089 37.4232L102.496 27.7907L96.4664 26.1885Z" fill="#455A64"/>
<g opacity="0.3">
<path d="M76.9762 25.8474C76.9762 25.8474 87.9856 26.6582 91.5632 27.3338C95.1408 28.0094 107.457 31.1945 111.439 32.7967C115.422 34.3989 119.476 37.9443 119.476 37.9443L120.506 37.0628C120.506 37.0628 120.911 35.8724 118.492 34.4311C110.073 29.7779 100.909 26.6252 91.4088 25.1139C77.6389 23.0034 77.0148 24.7343 76.8604 25.6029" fill="black"/>
</g>
<path d="M110.513 17.7078C110.481 17.7593 109.773 17.2381 108.55 16.556C106.956 15.6699 105.274 14.9519 103.531 14.4133C101.79 13.8667 99.9874 13.5424 98.1651 13.4482C96.7688 13.3903 95.9001 13.5254 95.8937 13.4482C96.0862 13.3764 96.2874 13.331 96.4921 13.313C96.7306 13.2733 96.9712 13.2475 97.2128 13.2358C97.5314 13.2054 97.8514 13.1925 98.1715 13.1972C100.026 13.228 101.867 13.5293 103.634 14.0916C105.402 14.6345 107.097 15.393 108.679 16.3501C109.161 16.6389 109.626 16.9569 110.069 17.3024C110.233 17.4182 110.383 17.5544 110.513 17.7078Z" fill="#263238"/>
<g opacity="0.3">
<path d="M98.6154 14.2267C95.1532 13.937 91.6749 14.5472 88.5181 15.9982C85.3613 17.4492 82.6333 19.6917 80.5988 22.5079L85.6563 23.0549C88.0885 18.1196 93.1075 14.4648 98.6154 14.2267Z" fill="white"/>
</g>
<g opacity="0.3">
<path d="M104.065 12.3672C103.291 12.1041 102.476 11.982 101.659 12.0068C100.852 12.1403 100.076 12.4194 99.3683 12.8305C99.3361 12.8305 99.5163 12.5602 99.9023 12.29C100.417 11.9454 101.009 11.7335 101.625 11.6728C102.241 11.6122 102.863 11.7048 103.435 11.9425C103.866 12.1355 104.085 12.3286 104.065 12.3672Z" fill="white"/>
</g>
<g opacity="0.3">
<path d="M43.5166 93.4163C43.4519 93.2992 43.3981 93.1764 43.3557 93.0496L42.9504 91.975C42.727 91.413 42.5337 90.8395 42.3713 90.257C42.1782 89.5749 41.908 88.8092 41.7278 87.9341C41.5476 87.059 41.2903 86.1131 41.1294 85.0772C40.9685 84.0412 40.8077 82.9281 40.679 81.7505C40.4657 79.1962 40.4657 76.6285 40.679 74.0742C40.9199 71.52 41.3762 68.9908 42.0431 66.5136C42.3713 65.3811 42.6865 64.3001 43.0597 63.2963C43.433 62.2925 43.7933 61.4046 44.1472 60.581C44.5011 59.7573 44.8743 59.0495 45.1831 58.4125C45.492 57.7755 45.7944 57.2414 46.0518 56.8168L46.6438 55.8258C46.7068 55.7101 46.78 55.6003 46.8625 55.4977C46.8242 55.6261 46.7701 55.7492 46.7017 55.8644L46.1676 56.8747C45.9295 57.3122 45.64 57.8463 45.3504 58.4962C45.0609 59.1461 44.707 59.8474 44.366 60.6775C44.0249 61.5075 43.6453 62.3955 43.3236 63.3864C43.0018 64.3773 42.6801 65.439 42.3391 66.6037C41.0165 71.53 40.5679 76.65 41.0136 81.7312C41.1358 82.8959 41.2388 84.0091 41.4318 85.0321C41.6249 86.0552 41.7921 87.0204 41.9852 87.8826C42.1782 88.7449 42.397 89.5234 42.5772 90.2055C42.7573 90.8876 42.9375 91.4924 43.0984 91.9428L43.4458 93.0303C43.4862 93.1553 43.51 93.2851 43.5166 93.4163Z" fill="white"/>
</g>
<path d="M103.834 39.4436C103.695 39.4057 103.561 39.3517 103.435 39.2827L102.348 38.7229L101.556 38.3368L100.584 37.925L99.4713 37.4553L98.1844 36.992C93.5108 35.3341 88.6111 34.401 83.6553 34.2252C82.3686 34.1709 81.0799 34.1838 79.7946 34.2638C77.5375 34.3351 75.2953 34.6566 73.1091 35.2225C71.352 35.642 69.6204 36.1619 67.9229 36.7797C66.7754 37.1786 65.6499 37.6382 64.5512 38.1567C63.7919 38.5234 63.3865 38.7486 63.3737 38.7229C63.461 38.6506 63.5559 38.588 63.6568 38.5363C63.8434 38.4205 64.1201 38.2467 64.4997 38.0537C65.5651 37.4886 66.6655 36.9921 67.7942 36.5673C69.492 35.9182 71.2284 35.3745 72.9933 34.9394C73.9971 34.682 75.0695 34.4675 76.2105 34.2959C77.382 34.0933 78.5673 33.9815 79.756 33.9613C81.0647 33.8752 82.3771 33.8601 83.6874 33.9163C88.6746 34.0874 93.6018 35.0585 98.2809 36.7925L99.5678 37.2816L100.681 37.7835L101.64 38.2146C101.936 38.3626 102.193 38.5106 102.431 38.6328L103.506 39.2184C103.62 39.2858 103.73 39.361 103.834 39.4436Z" fill="#263238"/>
<path d="M71.1529 28.7109C70.7219 29.0223 70.2312 29.2414 69.7116 29.3543C69.2264 29.5636 68.702 29.6667 68.1737 29.6567C68.6037 29.3435 69.0948 29.1242 69.615 29.0133C70.1002 28.804 70.6246 28.7009 71.1529 28.7109Z" fill="#263238"/>
<path d="M29.1098 38.8002C28.4576 37.7652 28.1646 36.5442 28.2761 35.3259C28.3876 34.1077 28.8973 32.9601 29.7264 32.0606C30.5556 31.1612 31.658 30.5599 32.8631 30.3499C34.0683 30.1398 35.3091 30.3327 36.3936 30.8986L29.1098 38.8002Z" fill="#455A64"/>
<path d="M29.7854 62.1253C29.7854 62.1253 19.3808 47.654 32.3142 33.9614C45.2475 20.2687 60.0662 29.2127 60.0662 29.2127L29.7854 62.1253Z" fill="#455A64"/>
<path d="M60.2529 29.2192C62.0031 30.8342 56.6045 39.5144 48.201 48.6064C39.7975 57.6984 31.5678 63.7661 29.824 62.1511C28.0803 60.536 33.4982 51.8558 41.863 42.7639C50.2279 33.6719 58.5091 27.6041 60.2529 29.2192Z" fill="#263238"/>
<path d="M39.6238 45.2733L47.4289 52.0038L51.1737 47.4482L43.8448 40.6791L39.6238 45.2733Z" fill="#455A64"/>
<g opacity="0.3">
<path d="M30.2808 62.3698C30.2808 62.3698 36.1169 52.9947 38.3755 50.1442C40.634 47.2937 49.179 37.8672 52.4542 35.0874C55.7294 32.3077 60.6132 30.2229 60.6132 30.2229L60.4909 29.5151L60.3107 29.2449C60.3107 29.2449 59.4549 28.2862 56.701 29.9463C54.2945 31.394 44.5912 38.0602 36.3293 49.2498C28.0674 60.4395 29.3028 61.8229 29.9977 62.3569" fill="black"/>
</g>
<path d="M38.6457 28.891C38.6457 28.9425 37.8864 29.3285 36.7154 30.0942C35.1878 31.0933 33.7688 32.2493 32.4814 33.5432C31.1873 34.8297 30.0629 36.2763 29.1355 37.8478C28.4341 39.0575 28.1446 39.8812 28.0867 39.8619C28.1148 39.6585 28.1689 39.4595 28.2475 39.2699C28.3223 39.0502 28.4104 38.8353 28.5113 38.6264C28.6337 38.3321 28.7711 38.0443 28.9232 37.7642C29.8068 36.1356 30.9256 34.6462 32.2434 33.3437C33.5442 32.0295 35.0032 30.8818 36.5867 29.9269C37.064 29.6324 37.5606 29.3701 38.073 29.1419C38.2516 29.0326 38.4443 28.9481 38.6457 28.891Z" fill="#263238"/>
<path d="M54.6483 44.1279C54.6483 44.173 53.9341 44.7714 52.7823 45.8653C51.2888 47.2547 49.8874 48.7399 48.587 50.3115C47.2925 51.8884 46.1364 53.5741 45.1317 55.3497C44.3595 56.7139 43.9735 57.6083 43.922 57.5825C43.9696 57.3602 44.043 57.1443 44.1408 56.9391C44.3693 56.3591 44.6292 55.792 44.9193 55.2404C45.876 53.4117 47.0188 51.6867 48.3296 50.0927C49.6371 48.5044 51.0748 47.0279 52.6279 45.6787C53.2199 45.1639 53.7218 44.7649 54.0757 44.5076C54.2487 44.356 54.4413 44.2283 54.6483 44.1279Z" fill="#263238"/>
<g opacity="0.3">
<path d="M30.6091 37.0436C28.7409 39.9764 27.6626 43.3424 27.4789 46.8148C27.2951 50.2873 28.0121 53.7483 29.5602 56.8619L32.3979 52.6344C29.1613 48.1753 28.2605 42.0175 30.6091 37.0436Z" fill="white"/>
</g>
<g opacity="0.3">
<path d="M30.6797 31.928C30.0885 32.4932 29.6007 33.1573 29.2384 33.8906C28.9853 34.6688 28.872 35.4857 28.9038 36.3035C28.8652 36.3035 28.7365 36.0526 28.6786 35.5828C28.611 34.9664 28.6973 34.3428 28.9297 33.7679C29.1622 33.1929 29.5335 32.6846 30.0105 32.2884C30.3773 31.9988 30.654 31.8959 30.6797 31.928Z" fill="white"/>
</g>
<path d="M117.063 82.4713C116.143 82.3555 115.416 82.1238 115.435 81.9565C115.455 81.7892 116.22 81.7249 117.14 81.815C118.061 81.905 118.788 82.1431 118.768 82.3362C118.749 82.5292 117.983 82.5871 117.063 82.4713Z" fill="#263238"/>
<path d="M104.065 105.352C103.493 104.619 103.145 103.943 103.28 103.834C103.416 103.724 103.995 104.226 104.567 104.941C105.14 105.655 105.5 106.337 105.352 106.459C105.204 106.581 104.632 106.079 104.065 105.352Z" fill="#263238"/>
<path d="M78.6877 112.34C78.8035 111.42 79.0352 110.693 79.2089 110.712C79.3826 110.732 79.4406 111.491 79.344 112.411C79.2475 113.331 79.0159 114.058 78.8229 114.039C78.6298 114.02 78.5719 113.254 78.6877 112.34Z" fill="#263238"/>
<path d="M55.813 99.3361C56.5401 98.7699 57.2222 98.416 57.3252 98.5511C57.4281 98.6862 56.9391 99.2653 56.2184 99.838C55.4977 100.411 54.8221 100.771 54.6999 100.623C54.5776 100.475 55.0795 99.9281 55.813 99.3361Z" fill="#263238"/>
<path d="M48.8252 73.9648C49.7453 74.0806 50.4724 74.3123 50.4531 74.4796C50.4338 74.6469 49.6681 74.7112 48.7479 74.6147C47.8278 74.5182 47.1007 74.2865 47.12 74.0999C47.1393 73.9133 47.905 73.849 48.8252 73.9648Z" fill="#263238"/>
<path d="M61.8099 51.0837C62.3826 51.8172 62.7301 52.4929 62.595 52.6023C62.4598 52.7116 61.8807 52.2098 61.3081 51.4955C60.7354 50.7813 60.375 50.0928 60.523 49.977C60.671 49.8611 61.2566 50.3823 61.8099 51.0837Z" fill="#263238"/>
<path d="M87.2006 44.0957C87.0848 45.0159 86.8532 45.743 86.6794 45.7237C86.5057 45.7044 86.4478 44.9451 86.5443 44.025C86.6408 43.1048 86.8725 42.3713 87.0655 42.397C87.2585 42.4228 87.3164 43.182 87.2006 44.0957Z" fill="#263238"/>
<path d="M110.069 57.1C109.342 57.6662 108.66 58.0137 108.557 57.885C108.454 57.7563 108.943 57.1644 109.664 56.5981C110.384 56.0319 111.06 55.6587 111.182 55.8131C111.304 55.9675 110.809 56.5338 110.069 57.1Z" fill="#263238"/>
<path d="M28.4277 25.5966C28.3744 25.6901 28.3095 25.7766 28.2347 25.8539L27.6298 26.5746C27.3045 26.9277 26.9974 27.2971 26.7097 27.6813C26.3686 28.1318 25.944 28.6208 25.5643 29.2128L24.9209 30.1329C24.7085 30.4546 24.5155 30.8085 24.2774 31.1624C23.827 31.8702 23.4474 32.6745 22.9905 33.5046C22.1301 35.3433 21.4367 37.2556 20.9186 39.2184C20.4564 41.1947 20.17 43.208 20.0628 45.2347C20.0628 46.1677 19.992 47.0557 20.0628 47.8922C20.0628 48.304 20.0628 48.7094 20.1143 49.0954C20.1658 49.4815 20.1915 49.8483 20.2237 50.2022C20.2752 50.91 20.4103 51.5341 20.4939 52.0939C20.562 52.5707 20.6566 53.0433 20.777 53.5095L20.9701 54.4039C20.9999 54.5086 21.015 54.6168 21.0151 54.7256C20.9634 54.631 20.9265 54.529 20.9057 54.4232L20.6484 53.5417C20.5049 53.0775 20.391 52.6047 20.3073 52.1261C20.1693 51.4884 20.0641 50.8442 19.992 50.1957C19.947 49.8418 19.902 49.4686 19.8569 49.0826C19.8119 48.6965 19.8054 48.2911 19.7797 47.8664C19.7154 47.0299 19.7797 46.1291 19.7797 45.1832C19.8682 43.1382 20.1527 41.1063 20.6291 39.1155C21.1549 37.1232 21.8658 35.1844 22.7524 33.3244C23.19 32.4879 23.5889 31.6836 24.0393 30.9758C24.2581 30.6219 24.4576 30.268 24.6828 29.9463L25.3263 29.0326C25.7252 28.4406 26.1627 27.958 26.5166 27.5205C26.8197 27.142 27.1441 26.781 27.4883 26.4395C27.7521 26.1821 27.9644 25.9633 28.1317 25.796C28.2212 25.7168 28.3207 25.6497 28.4277 25.5966Z" fill="#263238"/>
<path d="M18.4799 35.3448C18.57 35.3899 17.9523 36.6961 17.4633 38.3884C16.9743 40.0807 16.8198 41.5156 16.6911 41.5091C16.6282 40.4175 16.7813 39.3242 17.1416 38.2919C17.3923 37.232 17.8469 36.2311 18.4799 35.3448Z" fill="#263238"/>
<path d="M127.21 31.5742C127.098 31.25 127.017 30.9161 126.966 30.5769C126.902 30.2551 126.824 29.8626 126.696 29.4122C126.567 28.9618 126.464 28.4406 126.277 27.8808C126.091 27.321 125.917 26.7097 125.634 26.0663C125.351 25.4228 125.106 24.7408 124.797 24.033C124.087 22.5073 123.261 21.0381 122.327 19.6382C121.372 18.2555 120.316 16.9457 119.167 15.7196C118.614 15.1726 118.106 14.6386 117.584 14.1881C117.063 13.7377 116.581 13.313 116.124 12.9463C115.667 12.5795 115.236 12.3028 114.837 11.9875C114.438 11.6722 114.129 11.4856 113.852 11.3055C113.556 11.1345 113.276 10.9363 113.016 10.7135C113.328 10.8517 113.629 11.013 113.917 11.1961C114.269 11.3925 114.61 11.6073 114.94 11.8395C115.326 12.1098 115.783 12.3929 116.227 12.7661C116.671 13.1393 117.211 13.519 117.726 13.9887C118.241 14.4584 118.781 14.9667 119.341 15.5137C120.519 16.7385 121.595 18.0576 122.558 19.458C123.5 20.8738 124.326 22.3628 125.029 23.9107C125.332 24.6314 125.634 25.3134 125.846 25.9762C126.059 26.6389 126.271 27.2631 126.425 27.8229C126.58 28.3827 126.702 28.9168 126.805 29.3736C126.908 29.8305 126.972 30.2358 127.017 30.564C127.109 30.8951 127.173 31.2329 127.21 31.5742Z" fill="#263238"/>
<path d="M127.616 24.8051C127.433 23.8756 127.179 22.9614 126.857 22.0705C126.43 21.2187 125.942 20.3993 125.396 19.6189C126.21 20.1934 126.828 21.0043 127.165 21.9418C127.603 22.8283 127.76 23.8271 127.616 24.8051Z" fill="#263238"/>
<path d="M59.3521 121.252C59.2277 121.232 59.1065 121.195 58.9917 121.143L57.9687 120.77C57.4298 120.584 56.9014 120.369 56.3858 120.126C55.7745 119.843 55.0989 119.547 54.3331 119.129L53.1685 118.485C52.7631 118.267 52.3642 117.996 51.9395 117.739C51.0837 117.231 50.2279 116.6 49.3142 115.957C45.4036 113.056 42.0544 109.467 39.4308 105.365C38.8517 104.407 38.279 103.512 37.835 102.618C37.6034 102.18 37.3653 101.762 37.1916 101.331C37.0178 100.9 36.8184 100.507 36.6382 100.121C36.2714 99.3619 36.0269 98.6348 35.7824 98.0107C35.5695 97.4781 35.3848 96.9347 35.2291 96.3828L34.9202 95.3339C34.882 95.2143 34.854 95.0916 34.8365 94.9672C34.9027 95.0751 34.9526 95.1922 34.9845 95.3146L35.3513 96.3377C35.4993 96.7881 35.6923 97.3286 35.9562 97.9399C36.22 98.5512 36.4774 99.2719 36.857 100.025C37.0372 100.404 37.2238 100.803 37.4232 101.215C37.6227 101.627 37.8672 102.039 38.0989 102.502C38.5493 103.377 39.1284 104.265 39.7075 105.211C41.0338 107.209 42.5139 109.1 44.1344 110.867C45.7923 112.615 47.5867 114.229 49.5008 115.693C50.4017 116.336 51.2446 116.98 52.0746 117.488C52.4929 117.752 52.8854 118.022 53.2843 118.254L54.4361 118.897C55.1568 119.328 55.8517 119.637 56.4501 119.94C57.0485 120.242 57.5697 120.474 58.0073 120.654L58.9982 121.091C59.1212 121.133 59.2397 121.187 59.3521 121.252Z" fill="#263238"/>
<path d="M44.6942 118.672C43.3128 117.546 42.0019 116.336 40.7691 115.049C39.4592 113.84 38.2257 112.551 37.0757 111.188C38.4604 112.311 39.7715 113.521 41.0007 114.811C42.3107 116.02 43.5442 117.31 44.6942 118.672Z" fill="#263238"/>
<path d="M130.659 59.2297C130.737 59.3447 130.801 59.4677 130.852 59.5965L131.341 60.6775C131.56 61.1472 131.811 61.7263 132.056 62.4148C132.3 63.1033 132.628 63.8755 132.886 64.757L133.323 66.1404C133.471 66.623 133.587 67.1313 133.729 67.659C134.025 68.7014 134.237 69.8403 134.482 71.0371C135.442 76.2533 135.581 81.5876 134.893 86.8467C134.707 88.05 134.552 89.2017 134.314 90.257C134.198 90.7911 134.115 91.3058 133.986 91.7949C133.857 92.2839 133.742 92.7472 133.626 93.1976C133.413 94.092 133.137 94.8834 132.918 95.5784C132.699 96.2733 132.487 96.8653 132.274 97.3479L131.843 98.4546C131.798 98.5846 131.74 98.7096 131.67 98.8278C131.69 98.6909 131.727 98.557 131.779 98.4288L132.152 97.3092C132.326 96.8202 132.525 96.2282 132.718 95.5269C132.912 94.8255 133.182 94.0341 133.362 93.1332C133.471 92.6893 133.587 92.2195 133.703 91.7369C133.819 91.2544 133.902 90.7332 134.012 90.2055C134.237 89.1503 134.379 88.0049 134.552 86.8081C134.864 84.195 134.993 81.5633 134.938 78.9322C134.855 76.3026 134.59 73.6819 134.147 71.0886C133.909 69.8982 133.709 68.7657 133.426 67.7233C133.291 67.2021 133.182 66.6938 133.04 66.2112C132.899 65.7286 132.764 65.2718 132.628 64.8278C132.384 63.9462 132.081 63.1677 131.85 62.4792C131.618 61.7907 131.387 61.1923 131.206 60.729C131.026 60.2657 130.891 59.9118 130.775 59.6287C130.72 59.5011 130.681 59.367 130.659 59.2297Z" fill="#263238"/>
<path d="M138.381 70.2393C138.48 70.4562 138.549 70.6856 138.587 70.9213C138.696 71.3589 138.831 72.0088 138.966 72.8066C139.664 77.0084 139.653 81.2973 138.934 85.4955C138.799 86.2998 138.664 86.9433 138.548 87.3873C138.504 87.6193 138.435 87.8458 138.342 88.0629C138.284 88.0629 138.484 87.0655 138.703 85.4891C138.988 83.3969 139.136 81.2883 139.146 79.1768C139.148 77.0681 139.01 74.9616 138.735 72.871C138.497 71.2366 138.304 70.2521 138.381 70.2393Z" fill="#263238"/>
<path d="M64.3259 30.8728C64.3259 30.8728 64.0041 30.6862 63.6824 30.1972C63.2815 29.553 63.0945 28.7985 63.1483 28.0416C63.1991 27.2818 63.4872 26.557 63.972 25.9697C64.3387 25.5321 64.6604 25.3262 64.6862 25.3906C64.7119 25.4549 64.461 25.6608 64.1586 26.1113C63.7571 26.6874 63.5204 27.3622 63.4739 28.0628C63.4274 28.7635 63.5729 29.4636 63.8947 30.0878C64.1393 30.5704 64.3838 30.8342 64.3259 30.8728Z" fill="#263238"/>
<path d="M73.8683 29.6052C74.0842 28.9068 74.2181 28.1855 74.2672 27.4561C74.2096 26.7241 74.0693 26.001 73.849 25.3005C73.8876 25.3005 74.0678 25.4743 74.2479 25.8539C74.4832 26.3529 74.6041 26.898 74.6018 27.4497C74.6115 28.0027 74.4949 28.5507 74.2608 29.0519C74.0806 29.4379 73.9005 29.631 73.8683 29.6052Z" fill="#263238"/>
<path d="M52.7631 32.6552C52.5513 32.8728 52.3185 33.0689 52.0681 33.2407C51.6113 33.5946 50.955 34.1222 50.1378 34.785C48.0627 36.5199 46.0803 38.3627 44.1987 40.3058C41.9917 42.5772 40.1064 44.7456 38.7551 46.3285L37.1658 48.2074C36.9736 48.4431 36.758 48.6586 36.5223 48.8508C36.6683 48.5848 36.8385 48.3328 37.0307 48.098C37.3781 47.6347 37.8929 46.9655 38.5428 46.1676C39.8297 44.5461 41.7086 42.3455 43.9285 40.0677C45.8144 38.1106 47.8285 36.2813 49.9576 34.5919C50.7812 33.9485 51.4569 33.4466 51.9395 33.1249C52.198 32.9418 52.4739 32.7845 52.7631 32.6552Z" fill="#263238"/>
<path d="M110.301 30.4674C110.079 30.4318 109.863 30.3691 109.657 30.2808L107.907 29.6824C106.421 29.1676 104.374 28.4791 102.116 27.7906C99.8573 27.1021 97.7339 26.5681 96.2025 26.2206C94.6711 25.8732 93.7316 25.6866 93.7381 25.6351C93.9667 25.6192 94.1965 25.6366 94.4201 25.6866C94.8577 25.738 95.4818 25.841 96.254 25.989C97.7983 26.2785 99.9152 26.7869 102.206 27.4689C104.497 28.151 106.549 28.8909 107.997 29.4572C108.731 29.7403 109.316 29.9848 109.721 30.1585C109.925 30.2407 110.119 30.3442 110.301 30.4674Z" fill="#263238"/>
<path d="M63.4379 67.9356C63.6724 67.3938 64.0253 66.9114 64.4707 66.5239C64.9161 66.1364 65.4427 65.8537 66.0117 65.6964C67.2472 65.3018 68 65.5313 68.2703 66.3849C68.4491 66.9354 68.4824 67.5229 68.3668 68.0901C68.2462 68.6503 68.0046 69.1773 67.659 69.6344C66.9015 70.5684 65.9735 71.3501 64.9243 71.9379C65.4326 74.5568 65.5678 76.5 65.349 77.7676C66.8461 77.7933 67.8499 77.7933 68.3603 77.7676C68.8849 77.7379 69.4037 77.6427 69.9046 77.4845C70.1339 77.4324 70.3408 77.3092 70.4957 77.1323C70.6506 76.9555 70.7455 76.7341 70.7669 76.5C70.8248 76.0174 70.8955 75.76 70.9856 75.7343C71.0757 75.7085 71.2816 75.7343 71.3524 75.9788C71.4609 76.3091 71.4986 76.6586 71.4631 77.0045C71.4277 77.3504 71.3198 77.6849 71.1465 77.9864C70.8498 78.5779 70.3319 79.0287 69.7052 79.2411C69.1346 79.4358 68.5304 79.5124 67.9292 79.4663L66.8611 79.3762L65.9345 79.254L64.9629 79.1317C64.7646 79.5206 64.4869 79.8636 64.1477 80.1385C63.8086 80.4133 63.4155 80.614 62.994 80.7275C62.8061 80.7879 62.6082 80.8104 62.4116 80.7939C62.215 80.7773 62.0237 80.7219 61.8486 80.631C61.6706 80.55 61.5117 80.4325 61.382 80.2862C61.2523 80.1399 61.1548 79.968 61.0958 79.7816C60.8255 78.9451 61.173 78.3724 62.1253 78.07C62.7154 77.9118 63.3225 77.8254 63.9334 77.8126C63.8463 76.1045 63.6312 74.4053 63.2899 72.7294C63.1355 72.7937 62.9167 72.8709 62.6465 72.961C62.3762 73.0511 62.2282 73.0447 62.1961 72.961C62.1124 72.6843 62.4342 72.3883 63.1741 72.0666C62.8485 70.6941 62.9403 69.2556 63.4379 67.9356ZM63.7532 79.003C63.1742 78.9124 62.5859 78.8973 62.003 78.958C61.9602 78.9653 61.9198 78.9826 61.8849 79.0085C61.85 79.0344 61.8217 79.0681 61.8023 79.107C61.7829 79.1458 61.7729 79.1887 61.7731 79.2321C61.7733 79.2755 61.7838 79.3183 61.8036 79.3569C61.8375 79.4606 61.8954 79.5548 61.9726 79.6319C62.0497 79.709 62.1439 79.7669 62.2475 79.8009C62.5014 79.8912 62.7787 79.8912 63.0326 79.8009C63.2007 79.7262 63.3509 79.6164 63.473 79.4787C63.5951 79.3411 63.6863 79.1789 63.7404 79.003H63.7532ZM66.771 69.4928C66.9902 69.1728 67.1312 68.8058 67.1826 68.4213C67.234 68.0368 67.1944 67.6457 67.067 67.2793C66.8161 66.4814 66.4236 66.1726 65.8766 66.3463C64.6884 66.7281 64.3238 68.3732 64.7828 71.2816C65.574 70.8457 66.2543 70.2337 66.771 69.4928Z" fill="#263238"/>
<path d="M71.2302 75.9916L70.5867 73.4822C70.0848 71.9122 69.8854 71.0306 69.9883 70.8376C70.1598 70.5254 70.3511 70.2245 70.561 69.9368C70.8441 69.5314 71.0693 69.2933 71.2044 69.2483C71.3396 69.2032 71.494 69.1904 71.5519 69.2483C71.6443 69.3391 71.7071 69.4557 71.7321 69.5829C71.9345 70.2448 72.0002 70.941 71.9251 71.629C72.0791 72.7892 72.3221 73.9358 72.6522 75.0586C72.9289 75.9209 73.2056 76.3134 73.4887 76.2233C73.7718 76.1332 74.1322 75.6957 74.396 74.9364C74.7088 73.946 74.8863 72.9179 74.9236 71.88C74.6965 71.0707 74.5499 70.2409 74.4861 69.4027C74.5968 69.1159 74.7302 68.8383 74.885 68.5726C75.0093 68.265 75.2368 68.0102 75.5284 67.852C75.7408 67.7876 75.9403 68.0321 76.114 68.5855C76.1921 68.8806 76.2438 69.1821 76.2684 69.4863C76.3191 69.8212 76.3191 70.1617 76.2684 70.4966C76.2362 70.9598 76.5644 72.2532 77.24 74.3573C77.3687 74.7562 77.4781 74.9364 77.5618 74.9106C77.8063 74.8141 78.0508 74.3959 78.3017 73.6237C78.578 72.7241 78.7655 71.7995 78.8615 70.8633C78.8675 70.2855 78.981 69.7138 79.1961 69.1775C79.2926 69.1775 79.357 69.1775 79.3956 69.3126C79.5388 70.0262 79.5388 70.7611 79.3956 71.4746C79.0224 74.3058 78.4433 75.8501 77.6454 76.1075C77.1956 76.2847 76.6991 76.3051 76.2362 76.1654C76.1011 76.0946 75.9467 75.7986 75.7794 75.271C75.6121 74.7433 75.4834 74.19 75.3225 73.5465C75.2259 74.4837 74.9962 75.4024 74.6405 76.2748C74.5264 76.5728 74.3487 76.8423 74.1198 77.0645C73.8908 77.2868 73.6162 77.4564 73.315 77.5617C73.1115 77.6612 72.8854 77.7053 72.6594 77.6895C72.4335 77.6737 72.2157 77.5985 72.0281 77.4716C71.6383 77.0558 71.3634 76.5458 71.2302 75.9916Z" fill="#263238"/>
<path d="M81.21 73.6044L81.4546 74.2479C81.5832 74.6768 81.5318 74.9214 81.3001 74.9814C80.9557 75.0881 80.5987 75.1487 80.2384 75.1616C79.8845 75.1616 79.6786 75.0844 79.6272 74.9171C79.5757 74.7498 79.4277 74.1578 79.196 73.1411C78.9644 72.1245 78.7649 71.3652 78.6041 70.8698L78.1923 69.5828C77.9956 69.1615 77.9284 68.6912 77.9992 68.2316C78.1754 67.925 78.3687 67.6285 78.5783 67.3436C78.8679 66.9447 79.0931 66.7002 79.2604 66.7002C79.4277 66.7002 79.5435 66.6423 79.6079 66.7002C79.6953 66.7835 79.7558 66.891 79.7816 67.009C80.0257 67.7641 80.1133 68.5611 80.039 69.3512C80.232 70.207 80.38 70.799 80.4829 71.1207C80.4829 71.0177 80.6631 70.4193 80.9334 69.3319C81.1228 68.492 81.3832 67.6697 81.7119 66.8739C81.8535 66.4514 82.1565 66.102 82.5549 65.9023C82.8586 65.8016 83.1889 65.8177 83.4814 65.9473C83.6246 66.0014 83.7536 66.0875 83.8584 66.199C83.9633 66.3105 84.0412 66.4445 84.0863 66.5908C84.3706 67.5517 84.6048 68.5268 84.7876 69.5121C85.0515 70.799 85.2316 71.6226 85.341 71.9508C85.4504 72.2789 85.5405 72.4333 85.6306 72.4076C85.8751 72.3111 86.1196 71.8928 86.3641 71.1207C86.6314 70.2329 86.8124 69.3214 86.9046 68.3989C87.0333 67.305 87.1491 66.7452 87.2456 66.7131C87.3421 66.6809 87.4065 66.7131 87.4451 66.8417C87.5808 67.556 87.5808 68.2895 87.4451 69.0037C87.0719 71.8435 86.4885 73.3878 85.6949 73.6366C85.2441 73.8185 84.7448 73.8412 84.2793 73.7009C84.1463 73.6323 84.0112 73.3814 83.8739 72.9481C83.7324 72.517 83.5522 71.7963 83.3206 70.7925C83.0889 69.7888 82.8959 69.0488 82.7415 68.5662C82.587 68.0836 82.4262 67.8648 82.2589 67.9227C82.0916 67.9806 81.802 68.6177 81.4031 69.8531C81.1082 70.5843 80.9302 71.3573 80.8755 72.1438C80.9483 72.6387 81.0601 73.1271 81.21 73.6044Z" fill="#263238"/>
<path d="M90.2763 66.134L90.0961 64.9565C90.047 64.7947 89.9421 64.6556 89.8001 64.564C89.7357 64.5154 89.6603 64.4835 89.5806 64.4712C89.5009 64.4588 89.4194 64.4664 89.3433 64.4932C88.7963 64.6669 88.4553 65.2203 88.3202 66.1597C88.1786 67.0055 88.2314 67.8725 88.4746 68.6949C88.6477 69.344 89.0107 69.9265 89.517 70.3679C89.695 70.5342 89.9128 70.6518 90.1496 70.7093C90.3863 70.7668 90.6338 70.7622 90.8683 70.6961C91.292 70.5695 91.6742 70.3317 91.975 70.0076C92.277 69.6574 92.5105 69.2536 92.6635 68.8172C93.029 67.7642 93.2667 66.671 93.3713 65.5613C93.3713 65.2589 93.4356 65.0401 93.4614 64.9178C93.4871 64.7956 93.545 64.6991 93.6222 64.6733C93.6995 64.6476 93.7638 64.6733 93.8024 64.8085C93.965 65.44 93.9804 66.1004 93.8474 66.7388C93.7252 67.5174 93.6094 68.1287 93.5 68.5598C93.367 69.0419 93.197 69.513 92.9917 69.969C92.7765 70.4721 92.4535 70.922 92.0455 71.2866C91.6374 71.6513 91.1543 71.922 90.6302 72.0795C90.2709 72.2191 89.8824 72.2663 89.5002 72.2168C89.118 72.1674 88.7543 72.0228 88.4424 71.7964C87.8498 71.3825 87.4091 70.7858 87.1877 70.0976C86.6558 68.4247 86.6129 67.037 87.059 65.9345C87.2529 65.4124 87.5654 64.9425 87.9718 64.5617C88.3783 64.1809 88.8676 63.8998 89.4012 63.7403C89.7967 63.5882 90.2346 63.5882 90.6302 63.7403C90.7803 63.8043 90.9153 63.8993 91.0262 64.019C91.1371 64.1388 91.2214 64.2806 91.2736 64.4353C91.4513 64.8722 91.4873 65.3538 91.3766 65.8123C91.3321 65.965 91.2498 66.104 91.1373 66.2164C91.0249 66.3289 90.8858 66.4112 90.7331 66.4557C90.5337 66.5136 90.3664 66.4107 90.2763 66.134Z" fill="#263238"/>
<path d="M95.7842 68.9587L96.0287 69.6022C96.1574 70.014 96.106 70.2456 95.8679 70.3293C95.5273 70.4427 95.1715 70.5034 94.8126 70.5094C94.4587 70.5094 94.2528 70.4387 94.2013 70.2714C94.1499 70.1041 94.0019 69.5121 93.7702 68.4954C93.5386 67.4788 93.3327 66.7195 93.1783 66.2176L92.7664 64.9307C91.5696 61.1729 91.4753 58.567 92.4833 57.1128C92.684 56.8123 92.978 56.5862 93.3198 56.4693C93.4678 56.4178 93.6608 56.5336 93.9118 56.8103C94.2074 57.1551 94.4267 57.5586 94.5552 57.9943C94.9497 59.2035 95.1156 60.4757 95.0443 61.7456C95.0094 62.7429 94.845 63.7313 94.5552 64.6862C94.6582 65.0594 94.8319 65.6385 95.0764 66.4106C95.1086 66.3077 95.2566 65.7093 95.5269 64.6218C95.7132 63.7811 95.9738 62.9586 96.3054 62.1639C96.5628 61.6169 96.8395 61.2888 97.1484 61.1922C97.4521 61.0915 97.7824 61.1076 98.0749 61.2373C98.2174 61.2926 98.3457 61.379 98.4504 61.4904C98.555 61.6017 98.6334 61.7351 98.6798 61.8807C98.9651 62.8392 99.1992 63.8122 99.3811 64.7956C99.645 66.0825 99.8251 66.9125 99.9281 67.2407C100.031 67.5688 100.134 67.7233 100.218 67.6975C100.469 67.601 100.713 67.1763 100.958 66.4106C101.233 65.5107 101.42 64.5862 101.517 63.6502C101.646 62.5564 101.762 61.9966 101.858 61.9644C101.955 61.9322 102.019 61.9644 102.058 62.0931C102.197 62.8071 102.197 63.5411 102.058 64.2551C101.685 67.0948 101.103 68.6391 100.314 68.8879C99.8633 69.0698 99.364 69.0925 98.8985 68.9523C98.7613 68.8836 98.6261 68.6327 98.4932 68.1994C98.3516 67.7619 98.165 67.0477 97.9398 66.0439C97.7146 65.0401 97.5151 64.3001 97.3607 63.8175C97.2063 63.3349 97.0454 63.1162 96.8781 63.1741C96.7108 63.232 96.4213 63.8754 96.0223 65.1044C95.7275 65.8356 95.5494 66.6086 95.4947 67.3951C95.5472 67.9235 95.6441 68.4465 95.7842 68.9587ZM94.092 58.7085C93.8989 58.0651 93.7188 57.8077 93.5579 57.8592C93.2941 57.9428 93.2941 58.8436 93.5579 60.5488C93.7059 61.4561 93.9247 62.4791 94.2335 63.6567C94.5465 62.0166 94.4982 60.328 94.092 58.7085Z" fill="#263238"/>
<path d="M64.2294 87.9985L60.1049 89.2854L59.1461 86.274L71.1722 82.4133L72.1374 85.4247L68.0322 86.7116L71.3524 97.1291L67.5496 98.3452L64.2294 87.9985Z" fill="#263238"/>
<path d="M72.5942 82.0079L76.3906 80.7982L80.676 94.2271L76.8796 95.4432L72.5942 82.0079Z" fill="#263238"/>
<path d="M95.5076 89.4978L93.1976 82.4198L91.5954 89.3176L89.9031 89.8517L84.6847 85.3475L86.9046 92.2453L83.3914 93.3649L79.1124 79.9361L82.2396 78.9387L89.427 85.1866L91.5632 75.966L94.6904 74.9686L99.008 88.3846L95.5076 89.4978Z" fill="#263238"/>
<path d="M111.53 81.1586L112.469 84.0927L101.704 87.5288L97.4187 74.0999L107.952 70.7411L108.891 73.6752L102.116 75.8372L102.837 78.1022L108.808 76.1718L109.715 79.0095L103.744 80.9398L104.529 83.3978L111.53 81.1586Z" fill="#263238"/>
<path d="M212.339 152.569C216.927 129.713 223.176 107.223 231.038 85.2767L244.686 67.7941C250.56 66.237 257.021 68.8301 261.126 73.3085C265.231 77.787 267.232 83.8611 267.895 89.9032C268.558 95.9452 268.004 102.039 267.599 108.106C266.685 121.915 266.563 135.974 262.483 149.197C260.888 154.384 258.43 159.698 253.823 162.562C248.913 165.612 242.665 165.226 236.951 164.383C230.094 163.371 223.322 161.842 216.695 159.808C215.074 159.312 213.311 158.662 212.494 157.176C211.734 155.799 212.03 154.113 212.339 152.569Z" fill="#263238"/>
<path d="M211.522 48.69C220.26 47.7763 227.647 51.592 234.628 56.9326C241.61 62.2733 246.629 69.9818 249.273 78.366C252.059 87.1877 252.252 96.936 249.112 105.642C245.972 114.348 239.396 121.902 230.89 125.589C219.308 130.582 205.023 127.667 195.449 119.418C185.874 111.169 180.926 98.1843 181.254 85.5791C181.479 76.8732 184.124 68.1223 189.439 61.2244C194.754 54.3266 202.842 49.4364 211.522 48.7222" fill="#263238"/>
<path d="M234.255 79.6723C233.206 76.2813 233.933 72.5943 233.657 69.081C233.052 61.2888 227.222 54.7063 220.228 51.2317C213.716 48.0144 205.499 48.0916 197.27 50.1764C191.633 51.6113 186.234 54.391 182.258 58.6442C179.639 61.5 177.742 64.941 176.724 68.6798C175.707 72.4185 175.598 76.3465 176.409 80.1355L216.271 76.9183C219.771 80.2192 223.349 83.5716 227.737 85.5663C228.994 86.2208 230.4 86.5378 231.817 86.4864C232.52 86.4444 233.196 86.2022 233.766 85.7884C234.336 85.3745 234.776 84.8063 235.034 84.1507C235.471 82.6707 234.68 81.1393 234.255 79.6723Z" fill="#263238"/>
<path d="M189.574 167.89C189.574 167.89 191.916 141.238 191.91 141.302C191.903 141.366 177.914 138.613 175.463 120.197C174.247 111.041 175.083 96.0996 176.158 83.8933C177.129 72.9096 184.761 59.5901 195.7 61.0315L229.712 70.5481C231.316 70.7548 232.782 71.5574 233.821 72.7961C234.859 74.0348 235.393 75.619 235.317 77.2336L229.455 143.432L227.402 170.534L189.574 167.89Z" fill="#FFBF9D"/>
<path d="M183.017 99.6129C182.996 100.226 183.214 100.823 183.627 101.277C184.039 101.731 184.612 102.007 185.224 102.045C185.523 102.077 185.825 102.049 186.112 101.962C186.4 101.875 186.667 101.731 186.898 101.539C187.129 101.347 187.319 101.111 187.457 100.844C187.595 100.577 187.678 100.286 187.701 99.9861C187.723 99.3731 187.504 98.776 187.092 98.3217C186.68 97.8675 186.107 97.592 185.494 97.5538C185.196 97.5219 184.894 97.5503 184.606 97.6372C184.319 97.7241 184.052 97.8678 183.821 98.0598C183.59 98.2518 183.399 98.4882 183.261 98.7549C183.123 99.0217 183.04 99.3134 183.017 99.6129Z" fill="#263238"/>
<path d="M179.208 91.7564C179.491 92.0652 181.306 90.7976 183.841 90.862C186.376 90.9263 188.19 92.2454 188.474 91.943C188.615 91.8143 188.332 91.248 187.534 90.6561C186.46 89.8668 185.167 89.4306 183.834 89.4078C182.518 89.3685 181.224 89.7518 180.141 90.5016C179.349 91.0679 179.066 91.6148 179.208 91.7564Z" fill="#263238"/>
<path d="M205.847 99.6129C205.825 100.226 206.044 100.823 206.456 101.277C206.868 101.731 207.442 102.007 208.054 102.045C208.352 102.077 208.654 102.049 208.942 101.962C209.229 101.875 209.497 101.731 209.728 101.539C209.959 101.347 210.149 101.111 210.287 100.844C210.425 100.577 210.508 100.286 210.531 99.9861C210.552 99.3741 210.335 98.7779 209.924 98.3239C209.513 97.8698 208.942 97.5936 208.33 97.5538C208.031 97.5219 207.729 97.5503 207.441 97.6371C207.153 97.7239 206.886 97.8675 206.654 98.0594C206.423 98.2514 206.232 98.4877 206.093 98.7545C205.955 99.0213 205.871 99.3132 205.847 99.6129Z" fill="#263238"/>
<path d="M203.556 91.5053C203.846 91.8206 205.66 90.5466 208.189 90.6174C210.718 90.6881 212.545 92.0008 212.822 91.6984C212.963 91.5632 212.68 91.0034 211.882 90.4115C210.807 89.6245 209.515 89.1905 208.183 89.1696C206.867 89.1316 205.574 89.5124 204.489 90.257C203.698 90.8168 203.421 91.3638 203.556 91.5053Z" fill="#263238"/>
<path d="M194.419 111.394C194.419 111.246 192.868 110.938 190.327 110.545C189.683 110.461 189.04 110.32 188.975 109.902C188.911 109.483 189.123 108.743 189.452 107.971C190.095 106.421 190.777 104.799 191.491 103.1C194.322 96.1575 196.388 90.4436 196.105 90.3342C195.822 90.2248 193.306 95.7585 190.475 102.695C189.793 104.407 189.136 106.041 188.544 107.598C188.28 108.332 187.836 109.155 188.145 110.127C188.232 110.357 188.371 110.565 188.55 110.733C188.73 110.902 188.946 111.027 189.181 111.098C189.536 111.208 189.904 111.268 190.275 111.279C192.81 111.51 194.4 111.51 194.419 111.394Z" fill="#263238"/>
<path d="M191.91 141.302C200.543 141.652 209.103 139.598 216.638 135.37C216.638 135.37 209.663 148.824 191.35 146.649L191.91 141.302Z" fill="#FF9A6C"/>
<path d="M203.041 81.268C203.273 81.9629 205.808 81.6991 208.768 82.1302C211.728 82.5613 214.109 83.4171 214.521 82.8251C214.701 82.5356 214.302 81.8792 213.349 81.1907C212.079 80.3388 210.631 79.7886 209.115 79.5823C207.6 79.376 206.057 79.519 204.605 80.0004C203.505 80.4379 202.938 80.9655 203.041 81.268Z" fill="#263238"/>
<path d="M180.205 80.7018C180.636 81.2873 182.393 80.7404 184.491 80.7597C186.588 80.779 188.351 81.2487 188.776 80.6567C188.963 80.3672 188.699 79.7881 187.933 79.2218C186.908 78.5434 185.704 78.1849 184.475 78.1917C183.246 78.1986 182.046 78.5706 181.029 79.2604C180.289 79.8331 180.031 80.4187 180.205 80.7018Z" fill="#263238"/>
<path d="M240.889 74.7498C237.987 64.017 223.297 48.7093 212.185 49.0117L194.027 58.8373C194.47 61.8798 195.727 64.7464 197.663 67.1347C199.6 69.523 202.144 71.3447 205.03 72.4077C208.118 73.5015 211.87 73.9262 213.613 76.6995C215.357 79.4728 214.102 83.4815 215.75 86.3899C218.021 90.4243 224.726 90.5337 226.379 94.8641C227.1 96.7495 226.579 98.9501 227.338 100.829C228.342 103.332 234.416 106.71 236.99 106.015C239.564 105.32 239.795 100.938 240.735 98.6863C242.343 94.8255 241.842 92.7794 241.468 90.5723C240.6 85.3282 242.273 79.8717 240.889 74.7498Z" fill="#263238"/>
<path d="M229.346 107.83C229.384 106.466 231.044 103.281 232.396 103.107C236.012 102.637 242.498 103.107 242.324 112.237C242.092 124.746 229.584 121.928 229.571 121.574C229.558 121.22 229.217 112.546 229.346 107.83Z" fill="#FFBF9D"/>
<path d="M233.477 116.902C233.535 116.864 233.695 117.063 234.062 117.237C234.576 117.469 235.16 117.492 235.69 117.301C237.016 116.838 238.167 114.766 238.264 112.508C238.317 111.437 238.128 110.368 237.711 109.38C237.601 108.988 237.398 108.628 237.119 108.331C236.84 108.034 236.493 107.809 236.108 107.675C235.861 107.609 235.598 107.63 235.364 107.734C235.129 107.838 234.938 108.02 234.821 108.248C234.648 108.595 234.725 108.846 234.654 108.891C234.583 108.936 234.39 108.679 234.5 108.164C234.578 107.857 234.757 107.585 235.008 107.392C235.357 107.139 235.791 107.033 236.218 107.096C237.183 107.18 238.032 108.081 238.457 109.078C238.972 110.17 239.211 111.372 239.152 112.578C239.023 115.094 237.691 117.43 235.87 117.919C235.532 118.01 235.179 118.025 234.835 117.961C234.49 117.898 234.165 117.758 233.882 117.552C233.496 117.211 233.438 116.928 233.477 116.902Z" fill="#FF9A6C"/>
<path d="M197.894 55.2855C196.42 60.2915 188.281 66.3078 184.645 70.0398C177.696 77.1693 176.28 79.5887 175.244 96.4214C172.567 90.4051 170.592 84.5497 171.248 77.9929C171.905 71.4361 174.749 65.0145 179.613 60.5747C184.478 56.1348 191.44 53.8956 197.887 55.2533" fill="#263238"/>
<path d="M242.704 110.667C243.184 110.227 243.605 109.728 243.958 109.181C244.425 108.586 244.855 107.962 245.245 107.315L246.738 104.677C248.804 100.687 250.438 94.5102 250.335 87.6317C250.248 84.4018 249.819 81.1901 249.055 78.0507C248.398 75.4992 247.482 73.0218 246.32 70.6575C245.812 69.6537 245.271 68.785 244.808 68.0257C244.344 67.2665 243.836 66.6745 243.437 66.1919C243.028 65.6835 242.552 65.2332 242.022 64.8535C241.861 64.9886 243.907 66.9061 245.689 70.9599C246.734 73.3167 247.563 75.7632 248.167 78.2695C248.869 81.3462 249.272 84.4838 249.37 87.6382C249.46 94.3494 247.993 100.372 246.153 104.368L244.814 107.025C244.435 107.817 243.965 108.415 243.662 108.956C243.267 109.48 242.944 110.056 242.704 110.667Z" fill="#455A64"/>
<path d="M202.314 117.173C202.194 116.599 201.976 116.051 201.671 115.551C201.518 115.302 201.306 115.095 201.053 114.949C200.8 114.803 200.515 114.722 200.223 114.715C199.8 114.764 199.397 114.922 199.052 115.171L194.361 117.945L193.949 119.09C194.885 120.551 196.106 121.807 197.54 122.783C197.951 123.11 198.451 123.307 198.975 123.35C199.64 123.276 200.26 122.976 200.731 122.5C201.429 122.026 202.004 121.393 202.411 120.654C202.913 119.586 202.617 118.324 202.314 117.173Z" fill="#FF9A6C"/>
<path d="M198.788 123.736C198.737 123.62 199.882 123.427 201.072 122.224C201.755 121.527 202.226 120.65 202.43 119.695C202.654 118.529 202.472 117.321 201.915 116.272C201.771 115.999 201.601 115.74 201.407 115.5C201.242 115.275 201.037 115.083 200.802 114.933C200.708 114.871 200.6 114.833 200.488 114.822C200.376 114.811 200.263 114.827 200.159 114.869C199.91 114.979 199.671 115.111 199.444 115.262C198.453 115.866 197.559 116.394 196.806 116.838C195.294 117.713 194.329 118.221 194.284 118.125C194.239 118.028 195.108 117.398 196.555 116.413C197.276 115.924 198.145 115.352 199.129 114.721C199.389 114.536 199.667 114.379 199.959 114.251C200.147 114.178 200.348 114.149 200.549 114.164C200.749 114.18 200.943 114.24 201.117 114.341C201.426 114.53 201.697 114.774 201.915 115.062C202.138 115.334 202.334 115.627 202.501 115.937C203.131 117.12 203.316 118.49 203.022 119.798C202.777 120.858 202.208 121.816 201.394 122.539C200.864 123.022 200.236 123.387 199.554 123.607C199.078 123.768 198.794 123.768 198.788 123.736Z" fill="#263238"/>
<path d="M265.373 288.556L256.229 265.012C256.229 265.012 256.873 240.709 259.105 229.622C261.338 218.536 256.351 156.867 256.351 156.867L228.992 149.532C228.992 149.532 222.345 160.767 210.287 159.653C196.131 158.366 191.189 149.532 191.189 149.532L174.324 152.254C174.324 152.254 163.829 189.748 159.325 198.511C154.821 207.275 154.467 234.281 154.467 234.281C154.467 234.281 159.344 249.383 160.548 254.434C160.723 255.165 160.662 255.933 160.374 256.628L149.036 288.556H265.373Z" fill="#455A64"/>
<g opacity="0.3">
<path d="M245.348 226.971C245.599 230.337 244.898 235.542 245.528 238.856L250.959 240.021C253.022 236.022 254.384 231.7 254.987 227.242C254.987 227.242 245.271 226.045 245.348 226.971Z" fill="black"/>
</g>
<g opacity="0.3">
<path d="M237.646 248.334C236.923 247.546 236.011 246.957 234.995 246.622C233.907 246.47 232.799 246.603 231.778 247.009L215.788 251.828L204.386 248.875C206.644 253.341 210.373 256.893 214.944 258.93C219.516 260.968 224.65 261.366 229.481 260.058C231.45 259.524 233.47 258.7 235.458 259.138C237.337 259.549 238.779 260.984 240.246 262.22C244.75 266.003 251.577 266.222 257.426 266.724C251.828 259.376 244.415 254.64 237.646 248.334Z" fill="black"/>
</g>
<path d="M246.719 235.394L257.876 237.46L255.946 196.086L256.326 156.835C256.326 156.835 270.43 161.339 277.45 174.594C284.47 187.849 285.809 206.098 286.561 215.943C287.43 227.293 288.17 255.225 287.089 261.982C286.008 268.738 278.338 275.745 265.373 271.582C258.822 269.478 235.677 249.743 235.677 249.743L246.719 235.394Z" fill="#455A64"/>
<path d="M174.324 152.234C174.324 152.234 150.89 156.636 146.128 165.856C141.366 175.077 118.756 226.064 121.677 240.748C124.598 255.431 141.984 261.982 147.852 256.133C153.721 250.284 159.332 233.979 159.332 233.979L174.324 152.234Z" fill="#455A64"/>
<path d="M260.283 268.841L260.154 268.764L259.787 268.506L258.397 267.49L253.25 263.629L235.574 250.432L235.446 250.329L235.549 250.2L241.668 242.479C243.65 239.995 245.573 237.582 247.407 235.272L247.472 235.195H247.575L257.085 237.273H257.027C259.983 236.866 262.992 237.112 265.842 237.994C268.045 238.66 270.123 239.684 271.994 241.024C273.198 241.886 274.303 242.878 275.288 243.984C275.636 244.364 275.861 244.686 276.028 244.892L276.208 245.13C276.23 245.156 276.249 245.184 276.266 245.213C276.266 245.213 276.266 245.213 276.189 245.142L275.989 244.924C275.816 244.724 275.571 244.415 275.224 244.049C272.647 241.317 269.389 239.323 265.784 238.27C262.966 237.426 259.997 237.207 257.085 237.627H257.033L247.517 235.581L247.678 235.523L241.944 242.73C239.821 245.4 237.756 247.993 235.812 250.451V250.226L253.391 263.539L258.5 267.451L259.865 268.513L260.212 268.789C260.251 268.802 260.289 268.834 260.283 268.841Z" fill="#263238"/>
<path d="M257.909 199.148C257.935 199.276 257.952 199.405 257.96 199.534C257.96 199.824 258.018 200.178 258.056 200.641C258.127 201.651 258.224 203.035 258.346 204.727C258.565 208.17 258.842 212.938 258.944 218.207C259.047 223.477 258.893 228.265 258.603 231.72C258.539 232.582 258.449 233.354 258.378 234.036C258.307 234.718 258.23 235.323 258.159 235.787L257.986 236.887C257.972 237.016 257.946 237.143 257.909 237.267C257.893 237.138 257.893 237.009 257.909 236.88C257.909 236.591 257.973 236.237 258.011 235.774C258.05 235.31 258.127 234.706 258.179 234.024C258.23 233.341 258.307 232.563 258.352 231.701C258.584 228.258 258.7 223.49 258.597 218.22C258.494 212.95 258.256 208.195 258.095 204.746C258.018 203.054 257.96 201.664 257.915 200.661C257.915 200.204 257.915 199.837 257.883 199.547C257.872 199.414 257.881 199.28 257.909 199.148Z" fill="#263238"/>
<path d="M158.746 186.247C158.754 186.307 158.754 186.368 158.746 186.427L158.617 186.942C158.482 187.412 158.308 188.068 158.077 188.872C157.845 189.677 157.549 190.758 157.24 191.967C156.932 193.177 156.545 194.541 156.198 196.092C155.318 199.671 154.629 203.295 154.132 206.947C154.017 207.983 153.856 209.038 153.766 210.119C153.676 211.2 153.605 212.313 153.521 213.439C153.438 214.566 153.463 215.724 153.438 216.888C153.412 218.053 153.489 219.243 153.508 220.44C153.732 224.957 154.267 229.452 155.111 233.895L155.754 236.868C155.953 237.833 156.146 238.798 156.397 239.667C156.867 241.455 157.24 243.141 157.684 244.653C158.128 246.165 158.502 247.536 158.849 248.739C159.196 249.943 159.537 250.959 159.801 251.809L160.393 253.739C160.451 253.945 160.496 254.112 160.535 254.241C160.556 254.299 160.569 254.359 160.573 254.421C160.546 254.367 160.522 254.311 160.503 254.254L160.329 253.758C160.168 253.295 159.949 252.651 159.685 251.828C159.422 251.004 159.042 249.962 158.682 248.778C158.321 247.594 157.916 246.204 157.472 244.698C157.028 243.193 156.616 241.481 156.14 239.712C155.889 238.817 155.696 237.878 155.497 236.913C155.297 235.947 155.072 234.982 154.853 233.933C153.986 229.489 153.435 224.989 153.206 220.466C153.206 219.256 153.122 218.066 153.135 216.895C153.148 215.724 153.193 214.566 153.225 213.433C153.257 212.301 153.399 211.187 153.483 210.094C153.566 209 153.74 207.951 153.862 206.915C154.371 203.253 155.085 199.623 155.999 196.041C156.365 194.509 156.758 193.132 157.092 191.929C157.427 190.726 157.736 189.683 157.987 188.84C158.238 187.997 158.437 187.367 158.585 186.91C158.65 186.704 158.701 186.537 158.746 186.408C158.741 186.355 158.741 186.301 158.746 186.247Z" fill="#263238"/>
<path d="M156.108 191.536C155.412 190.213 154.814 188.841 154.319 187.431C153.719 186.061 153.222 184.648 152.833 183.204C153.534 184.525 154.134 185.897 154.628 187.309C155.231 188.677 155.726 190.091 156.108 191.536Z" fill="#263238"/>
<path d="M262.355 189.104C261.681 190.865 260.903 192.583 260.025 194.252C259.247 195.971 258.369 197.642 257.394 199.258C258.068 197.497 258.845 195.778 259.723 194.11C260.501 192.391 261.38 190.72 262.355 189.104Z" fill="#263238"/>
<path d="M175.489 152.234L203.994 191.536L244.917 153.425L228.992 149.513H191.189L175.489 152.234Z" fill="#FFBF9D"/>
<g opacity="0.3">
<path d="M153.644 185.256C153.644 193.994 152.929 203.563 150.954 212.075L151.552 221.727C151.906 229.957 149.815 235.787 146.141 243.154C149.558 241.558 151.803 238.071 152.768 234.423C153.734 230.774 153.586 226.926 153.36 223.162C153.026 217.532 152.968 212.056 154.004 206.51C154.602 203.292 155.632 197.122 156.449 194.13C156.443 194.104 156.887 192.785 153.644 185.256Z" fill="black"/>
</g>
<g opacity="0.3">
<path d="M279.297 244.93C278.518 240.735 274.561 237.711 270.404 236.745C266.248 235.78 262.136 236.514 257.941 237.26C267.29 236.848 273.088 241.069 277.122 246.268C277.351 246.664 277.725 246.954 278.164 247.079C278.402 247.087 278.635 247.019 278.831 246.884C279.026 246.75 279.174 246.557 279.252 246.333C279.396 245.878 279.412 245.393 279.297 244.93Z" fill="black"/>
</g>
<path d="M207.513 220.756C207.407 220.153 207.464 219.533 207.678 218.959C207.891 218.386 208.255 217.88 208.729 217.493C209.697 216.728 210.907 216.335 212.14 216.387C213.218 216.386 214.274 216.694 215.183 217.275C215.699 217.595 216.13 218.034 216.443 218.554C216.755 219.074 216.939 219.662 216.979 220.267C217.019 220.873 216.915 221.479 216.674 222.036C216.433 222.593 216.064 223.085 215.595 223.471C214.56 224.359 213.225 224.819 211.863 224.758C210.721 224.767 209.62 224.336 208.787 223.555C208.002 222.744 207.41 221.624 207.5 220.762" fill="#455A64"/>
<path d="M195.738 223.825C191.131 224.539 186.698 219.321 185.668 216.007C185.591 215.84 185.556 215.657 185.565 215.473C185.574 215.289 185.627 215.111 185.72 214.952C185.87 214.823 186.05 214.734 186.243 214.693C186.437 214.653 186.637 214.662 186.826 214.72C189.089 215.088 191.175 216.17 192.778 217.808C194.382 219.446 195.419 221.555 195.738 223.825Z" fill="#455A64"/>
<path d="M190.636 221.193C190.529 220.59 190.586 219.97 190.8 219.397C191.014 218.823 191.377 218.317 191.852 217.931C192.817 217.167 194.025 216.774 195.256 216.824C196.335 216.819 197.392 217.127 198.299 217.712C198.817 218.032 199.251 218.471 199.565 218.993C199.879 219.514 200.064 220.103 200.104 220.711C200.144 221.318 200.039 221.926 199.796 222.485C199.554 223.043 199.182 223.536 198.711 223.921C197.675 224.808 196.341 225.268 194.979 225.208C193.837 225.219 192.735 224.788 191.903 224.005C191.112 223.188 190.526 222.075 190.616 221.212" fill="#455A64"/>
<path d="M237.247 221.193C237.138 220.591 237.193 219.97 237.406 219.396C237.618 218.823 237.982 218.316 238.457 217.931C239.424 217.165 240.634 216.772 241.867 216.824C242.946 216.82 244.003 217.128 244.911 217.712C245.429 218.032 245.863 218.471 246.176 218.993C246.49 219.514 246.675 220.103 246.715 220.711C246.756 221.318 246.65 221.926 246.408 222.485C246.166 223.043 245.794 223.536 245.323 223.921C244.287 224.808 242.953 225.268 241.59 225.208C240.447 225.219 239.343 224.788 238.508 224.005C237.723 223.188 237.131 222.075 237.221 221.212" fill="#455A64"/>
<g opacity="0.3">
<path d="M207.513 220.756C207.407 220.153 207.464 219.533 207.678 218.959C207.891 218.386 208.255 217.88 208.729 217.493C209.697 216.728 210.907 216.335 212.14 216.387C213.218 216.386 214.274 216.694 215.183 217.275C215.699 217.595 216.13 218.034 216.443 218.554C216.755 219.074 216.939 219.662 216.979 220.267C217.019 220.873 216.915 221.479 216.674 222.036C216.433 222.593 216.064 223.085 215.595 223.471C214.56 224.359 213.225 224.819 211.863 224.758C210.721 224.767 209.62 224.336 208.787 223.555C208.002 222.744 207.41 221.624 207.5 220.762" fill="black"/>
</g>
<g opacity="0.3">
<path d="M190.636 221.193C190.529 220.59 190.586 219.97 190.8 219.397C191.014 218.823 191.377 218.317 191.852 217.931C192.817 217.167 194.025 216.774 195.256 216.824C196.335 216.819 197.392 217.127 198.299 217.712C198.817 218.032 199.251 218.471 199.565 218.993C199.879 219.514 200.064 220.103 200.104 220.711C200.144 221.318 200.039 221.926 199.796 222.485C199.554 223.043 199.182 223.536 198.711 223.921C197.675 224.808 196.341 225.268 194.979 225.208C193.837 225.219 192.735 224.788 191.903 224.005C191.112 223.188 190.526 222.075 190.616 221.212" fill="black"/>
</g>
<g opacity="0.3">
<path d="M237.247 221.193C237.138 220.591 237.193 219.97 237.406 219.396C237.618 218.823 237.982 218.316 238.457 217.931C239.424 217.165 240.634 216.772 241.867 216.824C242.946 216.82 244.003 217.128 244.911 217.712C245.429 218.032 245.863 218.471 246.176 218.993C246.49 219.514 246.675 220.103 246.715 220.711C246.756 221.318 246.65 221.926 246.408 222.485C246.166 223.043 245.794 223.536 245.323 223.921C244.287 224.808 242.953 225.268 241.59 225.208C240.447 225.219 239.343 224.788 238.508 224.005C237.723 223.188 237.131 222.075 237.221 221.212" fill="black"/>
</g>
<path d="M214.308 222.725C214.405 220.337 216.123 217.455 217.57 215.557C219.037 213.638 221.059 212.218 223.361 211.49C223.519 211.429 223.693 211.429 223.85 211.49C223.925 211.537 223.99 211.599 224.04 211.672C224.089 211.745 224.124 211.828 224.14 211.915C224.595 213.326 224.67 214.832 224.356 216.281C224.043 217.73 223.352 219.07 222.355 220.167C221.357 221.264 220.088 222.078 218.675 222.527C217.262 222.976 215.756 223.044 214.308 222.725Z" fill="#455A64"/>
<path d="M231.128 219.012C232.06 217.985 232.898 216.876 233.631 215.698C234.361 214.51 234.747 213.142 234.744 211.747C234.754 211.645 234.74 211.541 234.704 211.444C234.669 211.347 234.612 211.26 234.538 211.187C234.451 211.138 234.355 211.107 234.255 211.097C234.155 211.087 234.054 211.098 233.959 211.13C231.35 211.651 228.971 212.979 227.157 214.926C225.344 216.872 224.187 219.339 223.85 221.978L223.703 222.654C225.861 223.991 228.453 224.439 230.935 223.902C232.938 223.594 234.859 222.887 236.584 221.824C238.321 220.744 239.581 219.044 240.111 217.069C238.562 216.714 236.955 216.705 235.403 217.041C233.851 217.377 232.391 218.049 231.128 219.012Z" fill="#455A64"/>
<path d="M202.636 214.308C200.538 212.056 197.585 210.782 194.606 210.004C194.386 211.519 194.469 213.063 194.85 214.546C195.231 216.029 195.903 217.421 196.825 218.643C197.748 219.865 198.904 220.892 200.226 221.664C201.548 222.437 203.01 222.939 204.528 223.143L204.714 222.821C205.815 219.945 204.734 216.56 202.636 214.308Z" fill="#455A64"/>
<path d="M243.823 223.767C243.913 221.38 245.631 218.497 247.079 216.592C248.55 214.679 250.571 213.26 252.87 212.526C253.028 212.465 253.202 212.465 253.359 212.526C253.433 212.574 253.496 212.636 253.545 212.709C253.593 212.782 253.627 212.864 253.642 212.95C254.102 214.36 254.182 215.867 253.873 217.317C253.564 218.767 252.878 220.11 251.884 221.211C250.889 222.311 249.622 223.129 248.21 223.582C246.798 224.036 245.292 224.108 243.843 223.793" fill="#455A64"/>
<path d="M186.067 221.502C186.067 221.502 192.321 240.13 197.726 243.026C203.131 245.921 215.196 248.662 221.315 248.591C227.435 248.521 231.122 248.373 236.044 245.638L236.192 245.554C242.189 242.176 246.848 236.847 249.396 230.452L253.256 220.801L186.067 221.502Z" fill="#E0E0E0"/>
<path d="M248.919 232.01C248.32 232.548 247.635 232.983 246.893 233.296C246.028 233.684 245.111 233.939 244.171 234.056C242.921 234.217 241.652 234.125 240.439 233.785C239.094 233.425 237.736 232.672 236.147 232.499C235.328 232.444 234.506 232.569 233.74 232.865C232.936 233.142 232.145 233.547 231.302 233.921C230.443 234.334 229.521 234.599 228.574 234.706C227.582 234.773 226.586 234.662 225.633 234.377C223.703 233.863 221.837 232.897 219.784 232.55C218.782 232.375 217.752 232.439 216.779 232.737C215.833 233.068 214.925 233.499 214.07 234.024C213.225 234.526 212.346 234.969 211.438 235.349C210.549 235.723 209.581 235.871 208.62 235.78C206.735 235.523 205.274 234.448 203.723 234.075C202.261 233.787 200.753 233.818 199.303 234.165C198.085 234.437 196.852 234.63 195.609 234.744C194.664 234.819 193.712 234.728 192.798 234.474C192.221 234.309 191.681 234.033 191.208 233.663C191.04 233.54 190.889 233.395 190.758 233.232C191.356 233.76 192.067 234.143 192.836 234.352C193.738 234.575 194.671 234.644 195.597 234.558C196.829 234.418 198.052 234.203 199.258 233.914C200.733 233.548 202.27 233.508 203.762 233.798C205.377 234.178 206.857 235.24 208.633 235.458C209.542 235.542 210.457 235.398 211.297 235.04C212.182 234.669 213.042 234.239 213.871 233.753C214.745 233.225 215.675 232.793 216.644 232.466C217.667 232.152 218.749 232.084 219.803 232.267C221.927 232.634 223.78 233.599 225.678 234.107C227.484 234.69 229.447 234.537 231.141 233.682C231.971 233.322 232.775 232.917 233.605 232.634C234.411 232.326 235.274 232.201 236.134 232.267C237.801 232.447 239.158 233.219 240.464 233.586C241.648 233.931 242.888 234.036 244.113 233.895C245.038 233.795 245.944 233.561 246.803 233.2C247.364 232.967 247.902 232.682 248.411 232.351C248.739 232.125 248.913 232.003 248.919 232.01Z" fill="#263238"/>
<path d="M248.92 229.854C248.312 230.395 247.618 230.83 246.867 231.141C245.992 231.53 245.064 231.788 244.113 231.907C242.85 232.069 241.568 231.975 240.342 231.63C238.985 231.27 237.608 230.517 235.999 230.343C235.171 230.292 234.342 230.417 233.567 230.71C232.75 230.993 231.952 231.398 231.096 231.765C230.229 232.181 229.298 232.447 228.342 232.55C227.338 232.616 226.33 232.507 225.363 232.228C223.432 231.707 221.502 230.748 219.456 230.395C218.44 230.223 217.399 230.287 216.412 230.581C215.454 230.912 214.533 231.343 213.665 231.868C212.81 232.37 211.922 232.813 211.007 233.194C210.107 233.568 209.127 233.714 208.157 233.618C206.226 233.361 204.772 232.286 203.202 231.919C201.723 231.626 200.198 231.655 198.73 232.003C197.502 232.275 196.258 232.468 195.005 232.582C194.049 232.656 193.087 232.567 192.161 232.318C191.578 232.151 191.033 231.876 190.552 231.508C190.383 231.383 190.23 231.238 190.095 231.077C190.704 231.601 191.423 231.981 192.199 232.19C193.112 232.416 194.056 232.486 194.992 232.396C196.235 232.256 197.468 232.042 198.685 231.752C200.186 231.383 201.748 231.341 203.267 231.63C204.901 232.01 206.4 233.071 208.195 233.29C209.114 233.376 210.04 233.234 210.891 232.878C211.793 232.497 212.667 232.056 213.51 231.559C214.397 231.031 215.337 230.6 216.316 230.272C217.358 229.954 218.46 229.886 219.533 230.073C221.676 230.44 223.561 231.405 225.479 231.913C227.303 232.504 229.287 232.351 230.999 231.488C231.842 231.128 232.653 230.723 233.496 230.44C234.317 230.132 235.195 230.007 236.07 230.073C237.756 230.253 239.126 231.025 240.452 231.392C241.648 231.739 242.901 231.846 244.139 231.707C245.074 231.604 245.99 231.37 246.86 231.012C247.411 230.782 247.941 230.505 248.443 230.182C248.594 230.062 248.753 229.952 248.92 229.854Z" fill="#263238"/>
<path d="M224.983 248.566C224.983 248.566 215.711 242.775 213.536 243.476C212.918 243.689 212.379 244.085 211.992 244.611C211.605 245.138 211.387 245.77 211.368 246.423C209.692 244.844 207.903 243.39 206.014 242.073C204.933 241.378 203.608 240.87 202.404 241.43L202.038 241.88L202.198 242.684C202.198 242.684 196.69 241.063 199.194 244.306C201.697 247.549 212.603 254.209 214.392 255.045C216.181 255.882 224.462 258.346 228.29 256.043C230.663 255.401 232.814 254.119 234.506 252.336C237.157 249.415 241.063 244.66 241.063 244.66L240.806 239.898L230.176 247.8L224.983 248.566Z" fill="#FFBF9D"/>
<path d="M247.813 237.099C247.723 236.442 247.449 235.824 247.021 235.317C246.564 234.847 245.451 234.442 244.949 234.873C243.695 235.761 242.228 238.367 242.228 238.367C241.385 238.952 240.297 239.01 239.532 239.686C239.122 239.992 238.786 240.385 238.546 240.837C238.307 241.289 238.171 241.788 238.148 242.298C238.216 242.905 238.458 243.479 238.847 243.95C239.236 244.421 239.753 244.768 240.336 244.949C241.51 245.291 242.748 245.357 243.952 245.142C245.239 244.988 246.648 244.705 247.459 243.695C248.072 242.767 248.341 241.654 248.218 240.548C248.189 239.389 248.054 238.234 247.813 237.099Z" fill="#FFBF9D"/>
<path d="M208.742 250.85C208.212 250.553 207.723 250.187 207.288 249.762C206.192 248.789 205.204 247.699 204.341 246.513C203.474 245.33 202.744 244.052 202.166 242.704C202.053 242.457 202.01 242.182 202.044 241.912C202.076 241.702 202.19 241.513 202.359 241.385C202.655 241.179 202.874 241.301 202.855 241.314C202.701 241.321 202.555 241.382 202.443 241.488C202.317 241.605 202.241 241.766 202.231 241.938C202.222 242.173 202.275 242.406 202.385 242.614C203.018 243.909 203.763 245.147 204.611 246.314C205.463 247.483 206.413 248.579 207.449 249.589C207.904 249.984 208.336 250.405 208.742 250.85Z" fill="#FF9A6C"/>
<path d="M227.943 255.534C227.685 255.571 227.424 255.582 227.164 255.566C226.859 255.568 226.554 255.553 226.251 255.521C225.897 255.489 225.485 255.47 225.041 255.393C223.998 255.238 222.969 254.999 221.965 254.678C220.734 254.277 219.541 253.767 218.4 253.153C217.264 252.523 216.187 251.791 215.183 250.966C214.374 250.288 213.62 249.546 212.931 248.746C212.662 248.444 212.408 248.128 212.172 247.8C211.981 247.56 211.805 247.308 211.644 247.047C211.488 246.839 211.358 246.612 211.258 246.371C211.31 246.371 211.902 247.272 213.105 248.591C213.811 249.356 214.57 250.07 215.376 250.728C216.371 251.524 217.43 252.237 218.542 252.857C219.665 253.459 220.833 253.971 222.036 254.389C223.025 254.715 224.035 254.971 225.06 255.155C226.836 255.463 227.949 255.463 227.943 255.534Z" fill="#FF9A6C"/>
<path d="M242.781 245.348C242.649 245.415 242.504 245.452 242.356 245.458C241.958 245.511 241.553 245.496 241.159 245.413C240.568 245.31 240.01 245.068 239.532 244.705C238.939 244.241 238.519 243.59 238.341 242.858C238.152 242.124 238.236 241.346 238.579 240.671C238.875 240.127 239.322 239.68 239.866 239.384C240.221 239.184 240.613 239.059 241.018 239.017C241.301 239.017 241.455 239.017 241.455 239.017C240.941 239.117 240.445 239.3 239.988 239.557C239.517 239.856 239.135 240.276 238.882 240.773C238.585 241.386 238.517 242.084 238.689 242.742C238.855 243.403 239.227 243.993 239.75 244.428C240.186 244.783 240.693 245.04 241.237 245.181C241.745 245.283 242.262 245.339 242.781 245.348Z" fill="#FF9A6C"/>
<g opacity="0.6">
<path d="M201.684 238.779C201.218 237.308 200.511 235.925 199.592 234.686L194.174 226.45C193.848 225.854 193.38 225.348 192.81 224.977C192.283 224.687 190.745 223.973 190.423 225.26C190.357 225.564 190.38 225.881 190.488 226.174C192.267 231.284 195.313 235.86 199.341 239.474C199.946 240.014 200.886 240.555 201.478 239.847C201.593 239.697 201.672 239.523 201.707 239.337C201.743 239.152 201.735 238.961 201.684 238.779Z" fill="white"/>
</g>
<path d="M128.433 136.824C127.236 134.951 126.007 133.04 124.264 131.676C123.975 131.401 123.634 131.187 123.262 131.044C122.89 130.902 122.493 130.834 122.095 130.846C121.755 130.903 121.432 131.041 121.155 131.246C120.878 131.452 120.653 131.721 120.499 132.03C120.197 132.654 120.06 133.345 120.1 134.038C120.158 136.444 121.458 138.651 122.938 140.556C124.418 142.46 126.155 144.204 127.281 146.347H134.501L128.433 136.824Z" fill="#FF9A6C"/>
<path d="M174.575 140.324C172.368 138.58 169.53 137.828 166.731 137.538C166.738 138.937 167.022 140.322 167.569 141.61C168.115 142.899 168.911 144.066 169.912 145.045C170.913 146.023 172.098 146.792 173.399 147.309C174.7 147.825 176.091 148.078 177.49 148.052L177.612 147.737C178.211 144.97 176.776 142.074 174.575 140.324Z" fill="#455A64"/>
<path d="M169.788 140.221C170.267 140.473 170.712 140.785 171.113 141.148C171.898 141.791 172.941 142.666 174.035 143.721C175.128 144.777 176.055 145.813 176.692 146.578C177.06 146.971 177.384 147.402 177.657 147.865C177.24 147.522 176.857 147.141 176.512 146.726C175.836 146.006 174.884 145.015 173.803 143.96C172.722 142.904 171.699 141.978 170.959 141.315C170.54 140.982 170.148 140.616 169.788 140.221Z" fill="#263238"/>
<path d="M184.356 139.494C184.162 136.701 182.805 134.108 181.138 131.85C180.115 132.796 179.289 133.936 178.71 135.204C178.13 136.472 177.807 137.842 177.761 139.235C177.714 140.628 177.944 142.017 178.438 143.32C178.931 144.624 179.679 145.817 180.636 146.829L180.958 146.707C183.377 145.304 184.555 142.293 184.356 139.494Z" fill="#455A64"/>
<path d="M181.492 134.855C181.521 135.397 181.493 135.94 181.408 136.476C181.312 137.589 181.196 138.908 181.067 140.337C180.939 141.765 180.849 143.11 180.759 144.23C180.748 144.773 180.688 145.313 180.578 145.845C180.5 145.306 180.483 144.76 180.527 144.217C180.527 143.22 180.604 141.83 180.733 140.305C180.861 138.78 181.029 137.403 181.177 136.412C181.226 135.883 181.332 135.361 181.492 134.855Z" fill="#263238"/>
<path d="M178.886 148.592C181.079 148.592 182.856 146.815 182.856 144.622C182.856 142.43 181.079 140.652 178.886 140.652C176.693 140.652 174.916 142.43 174.916 144.622C174.916 146.815 176.693 148.592 178.886 148.592Z" fill="#455A64"/>
<g opacity="0.3">
<path d="M178.886 148.592C181.079 148.592 182.856 146.815 182.856 144.622C182.856 142.43 181.079 140.652 178.886 140.652C176.693 140.652 174.916 142.43 174.916 144.622C174.916 146.815 176.693 148.592 178.886 148.592Z" fill="black"/>
</g>
<path d="M163.128 149.86C159.39 149.86 155.561 146.81 152.974 144.204L152.884 144.114C152.785 144.016 152.675 143.93 152.556 143.857C152.231 143.661 151.861 143.553 151.482 143.541C134.623 142.75 112.231 136.785 112.006 136.727C111.789 136.669 111.604 136.527 111.492 136.333C111.38 136.139 111.349 135.908 111.407 135.691C111.465 135.475 111.607 135.29 111.801 135.178C111.996 135.065 112.227 135.035 112.443 135.093C112.668 135.157 134.887 141.071 151.559 141.849C152.241 141.872 152.907 142.071 153.489 142.428C153.712 142.568 153.917 142.735 154.1 142.924L154.197 143.02C157.626 146.476 160.915 148.303 163.43 148.168C167.729 147.936 178.558 144.725 178.667 144.693C178.773 144.661 178.885 144.649 178.995 144.66C179.106 144.671 179.213 144.704 179.31 144.757C179.408 144.809 179.494 144.881 179.564 144.967C179.633 145.054 179.685 145.153 179.716 145.259C179.78 145.474 179.757 145.706 179.651 145.904C179.545 146.102 179.365 146.249 179.15 146.315C178.7 146.45 168.018 149.609 163.521 149.854L163.128 149.86Z" fill="#E0E0E0"/>
<path d="M163.128 149.86H163.501C163.746 149.828 164.112 149.808 164.589 149.744C165.547 149.622 166.944 149.365 168.726 148.972C170.508 148.579 172.683 148.033 175.161 147.351C176.409 147.009 177.767 146.63 179.15 146.205C179.304 146.14 179.431 146.025 179.511 145.878C179.59 145.731 179.617 145.562 179.587 145.397C179.557 145.233 179.472 145.084 179.346 144.974C179.219 144.865 179.059 144.802 178.893 144.796C178.71 144.807 178.53 144.846 178.358 144.912L177.786 145.079L176.621 145.414C173.468 146.289 170.006 147.241 166.217 147.955C165.249 148.139 164.271 148.266 163.289 148.335C162.255 148.334 161.233 148.115 160.29 147.692C158.357 146.8 156.586 145.591 155.053 144.114C154.229 143.4 153.573 142.467 152.517 142.184C151.993 142.043 151.452 141.972 150.909 141.971L149.217 141.862C146.958 141.707 144.654 141.463 142.319 141.18C137.641 140.588 132.834 139.777 127.931 138.799C123.028 137.821 118.279 136.753 113.711 135.582L112.855 135.363L112.43 135.254C112.312 135.225 112.188 135.225 112.07 135.254C111.954 135.276 111.846 135.328 111.757 135.405C111.667 135.481 111.599 135.58 111.559 135.691C111.519 135.802 111.508 135.921 111.527 136.037C111.547 136.153 111.597 136.262 111.671 136.354C111.813 136.553 112.051 136.592 112.347 136.669L113.177 136.882L114.83 137.3C117.031 137.84 119.187 138.346 121.297 138.818C128.763 140.522 136.309 141.849 143.908 142.795C145.53 143.001 147.08 143.123 148.547 143.258L150.684 143.4C151.038 143.432 151.359 143.438 151.713 143.477C152.057 143.521 152.385 143.652 152.665 143.857C152.918 144.055 153.156 144.27 153.38 144.5L154.023 145.143C154.467 145.549 154.898 145.935 155.31 146.289C156.088 146.936 156.909 147.529 157.768 148.065C158.952 148.822 160.258 149.369 161.629 149.68C162.107 149.768 162.591 149.828 163.077 149.86H162.703C162.339 149.851 161.975 149.814 161.616 149.751C160.231 149.459 158.909 148.926 157.71 148.174C156.84 147.645 156.008 147.056 155.22 146.411C154.782 146.064 154.345 145.678 153.901 145.272L153.257 144.629C153.044 144.396 152.811 144.181 152.562 143.985C152.307 143.799 152.008 143.682 151.694 143.644C151.379 143.612 151.05 143.599 150.677 143.58L148.534 143.445C147.067 143.322 145.51 143.2 143.889 143.007C136.274 142.093 128.712 140.785 121.233 139.089C119.122 138.625 116.965 138.123 114.76 137.583L113.106 137.171L112.27 136.952C112.122 136.914 112.006 136.894 111.838 136.836C111.677 136.774 111.534 136.67 111.427 136.534C111.317 136.399 111.244 136.237 111.215 136.065C111.186 135.893 111.202 135.716 111.262 135.553C111.321 135.389 111.422 135.243 111.555 135.13C111.688 135.016 111.847 134.939 112.019 134.906C112.186 134.878 112.358 134.889 112.52 134.938L112.945 135.048L113.794 135.266C118.357 136.418 123.112 137.486 128.008 138.484C132.905 139.481 137.699 140.273 142.364 140.865C144.7 141.154 146.997 141.399 149.249 141.559L150.928 141.669C151.5 141.671 152.068 141.747 152.62 141.894C152.897 141.978 153.163 142.094 153.412 142.241C153.656 142.389 153.862 142.589 154.094 142.763C154.499 143.136 154.866 143.528 155.271 143.889C156.778 145.346 158.518 146.54 160.419 147.421C161.322 147.834 162.302 148.053 163.295 148.065C164.265 147.999 165.229 147.876 166.184 147.698C169.961 146.997 173.423 146.064 176.576 145.201L177.741 144.873L178.313 144.706C178.507 144.633 178.711 144.592 178.918 144.584C179.133 144.596 179.338 144.68 179.499 144.822C179.66 144.965 179.769 145.157 179.808 145.369C179.846 145.581 179.813 145.799 179.712 145.989C179.611 146.18 179.45 146.33 179.253 146.417C177.818 146.849 176.492 147.203 175.231 147.544C172.715 148.187 170.541 148.74 168.745 149.114C166.95 149.487 165.528 149.725 164.595 149.821C164.112 149.873 163.746 149.886 163.501 149.905C163.376 149.897 163.251 149.882 163.128 149.86Z" fill="#263238"/>
<path d="M114.309 151.7C114.309 151.7 115.133 138.188 116.741 136.837C118.35 135.485 124.862 133.877 125.718 134.263C126.573 134.649 131.509 136.566 131.682 137.383C131.763 137.651 131.782 137.934 131.736 138.21C131.691 138.486 131.583 138.748 131.421 138.976C131.259 139.203 131.047 139.391 130.801 139.525C130.555 139.658 130.282 139.733 130.003 139.745L126.142 139.044L122.282 141.128L121.825 144.854C121.825 144.854 125.756 141.714 127.075 140.787C128.394 139.861 131.663 139.899 131.792 142.319C131.792 142.319 136.875 142.93 137.029 145.864C137.029 145.864 141.534 149.126 141.785 150.799C142.036 152.472 139.809 155.818 139.809 155.818C139.809 155.818 146.675 162.459 146.488 164.717C146.302 166.976 146.99 174.086 146.99 174.086L131.374 176.016L131.033 169.582C131.033 169.582 115.326 154.873 114.309 151.7Z" fill="#FFBF9D"/>
<path d="M139.578 151.16C139.451 151.877 139.143 152.549 138.682 153.112C138.221 153.676 137.624 154.111 136.946 154.377C136.894 154.293 137.705 153.792 138.426 152.897C139.147 152.003 139.488 151.128 139.578 151.16Z" fill="#FF9A6C"/>
<path d="M140.671 152.505C140.749 152.562 140.369 152.974 139.745 152.949C139.121 152.923 138.773 152.479 138.85 152.427C138.928 152.376 139.269 152.601 139.758 152.614C140.247 152.627 140.614 152.434 140.671 152.505Z" fill="#FF9A6C"/>
<path d="M136.888 146.038C136.888 146.096 136.354 146.289 135.543 146.771C134.494 147.397 133.571 148.213 132.821 149.178C132.253 149.911 131.798 150.724 131.47 151.591V151.655H131.419C130.676 151.987 129.905 152.252 129.115 152.447C129.812 152.035 130.544 151.686 131.303 151.404L131.226 151.488C131.525 150.573 131.982 149.717 132.577 148.959C133.349 147.958 134.328 147.136 135.447 146.546C135.893 146.291 136.381 146.119 136.888 146.038Z" fill="#FF9A6C"/>
<path d="M124.019 149.969C124.019 149.969 124.083 149.815 124.308 149.628C124.639 149.382 125.012 149.199 125.409 149.088C125.967 148.94 126.494 148.694 126.966 148.361C127.495 147.877 127.987 147.354 128.439 146.797C129.463 145.633 130.37 144.597 131.09 143.857C131.442 143.431 131.836 143.043 132.268 142.698C131.981 143.161 131.647 143.592 131.271 143.985C130.627 144.764 129.713 145.832 128.697 146.99C128.233 147.563 127.72 148.095 127.165 148.58C126.657 148.923 126.086 149.163 125.486 149.287C125.103 149.374 124.735 149.514 124.392 149.706C124.154 149.873 124.038 149.989 124.019 149.969Z" fill="#FF9A6C"/>
<path d="M121.754 144.809C121.471 145.765 120.949 146.633 120.236 147.331C119.523 148.028 118.643 148.531 117.681 148.792C118.504 148.293 119.281 147.723 120.004 147.087C120.652 146.38 121.238 145.617 121.754 144.809Z" fill="#FF9A6C"/>
<path d="M139.977 155.909C139.977 155.96 139.745 155.909 139.397 155.909C138.945 155.902 138.5 156.02 138.111 156.25L137.872 156.391V156.114V156.031C137.866 155.557 137.784 155.088 137.628 154.641C137.499 154.306 137.345 154.133 137.377 154.094C137.409 154.055 137.634 154.184 137.84 154.532C138.079 154.988 138.205 155.496 138.207 156.012V156.095L137.95 155.96C138.389 155.7 138.905 155.6 139.41 155.677C139.796 155.709 139.996 155.851 139.977 155.909Z" fill="#FF9A6C"/>
<path d="M129.179 173.925C129.179 173.925 119.528 228.239 120.306 233.966C121.085 239.692 122.732 262.548 139.726 260.038C156.719 257.529 153.772 233.766 153.18 229.211C152.588 224.655 148.592 194.232 148.592 194.232L147.306 172.953L129.179 173.925Z" fill="#455A64"/>
<path d="M151.552 220.048C151.506 219.893 151.476 219.733 151.462 219.572C151.424 219.224 151.359 218.774 151.288 218.208C151.14 217.017 150.947 215.299 150.729 213.169C150.291 208.91 149.783 203.022 149.268 196.51C148.753 189.999 148.277 184.111 147.897 179.851C147.711 177.747 147.556 176.036 147.447 174.807C147.404 174.236 147.365 173.779 147.331 173.436C147.323 173.275 147.323 173.114 147.331 172.953C147.378 173.106 147.408 173.264 147.421 173.423C147.464 173.771 147.522 174.228 147.595 174.794C147.743 175.978 147.936 177.702 148.155 179.832C148.592 184.085 149.101 189.979 149.622 196.485C150.143 202.99 150.606 208.884 150.967 213.176C151.153 215.28 151.308 216.998 151.417 218.22C151.462 218.793 151.501 219.25 151.533 219.597C151.547 219.747 151.553 219.897 151.552 220.048Z" fill="#263238"/>
<g opacity="0.6">
<path d="M185.411 237.222H159.113V288.563H185.411V237.222Z" fill="white"/>
</g>
<path d="M180.07 285.242H164.524C163.613 285.242 162.739 284.88 162.095 284.236C161.45 283.592 161.088 282.718 161.088 281.806V250.876L168.366 252.079C170.296 252.394 172.263 252.42 174.202 252.156L183.506 250.869V281.793C183.508 282.246 183.42 282.694 183.248 283.112C183.076 283.531 182.824 283.911 182.504 284.231C182.185 284.552 181.806 284.806 181.388 284.98C180.97 285.153 180.522 285.242 180.07 285.242Z" fill="#EBEBEB"/>
<path d="M185.353 237.511C185.032 237.65 184.7 237.764 184.362 237.852C183.453 238.137 182.529 238.373 181.595 238.56C180.214 238.853 178.818 239.068 177.413 239.204C175.689 239.368 173.957 239.435 172.226 239.403C169.076 239.334 165.94 238.954 162.864 238.271C161.693 238.007 160.747 237.762 160.104 237.563C159.765 237.478 159.434 237.366 159.113 237.228C159.459 237.266 159.802 237.335 160.136 237.434C160.779 237.595 161.738 237.807 162.916 238.039C165.981 238.657 169.094 239.008 172.22 239.088C173.938 239.121 175.656 239.063 177.368 238.914C178.944 238.766 180.36 238.567 181.537 238.335C182.715 238.103 183.667 237.904 184.317 237.736C184.655 237.63 185.001 237.555 185.353 237.511Z" fill="#263238"/>
<path d="M161.133 241.99C161.223 241.99 161.301 250.824 161.301 261.724C161.301 272.624 161.223 281.459 161.133 281.459C161.043 281.459 160.966 272.624 160.966 261.724C160.966 250.824 161.037 241.99 161.133 241.99Z" fill="#263238"/>
<path d="M178.674 285.448C178.674 285.538 175.521 285.616 171.634 285.616C167.748 285.616 164.595 285.538 164.595 285.448C164.595 285.358 167.741 285.281 171.634 285.281C175.527 285.281 178.674 285.358 178.674 285.448Z" fill="#263238"/>
<path d="M161.14 251.004C163.241 253.3 166.098 254.764 169.189 255.129C174.305 255.721 179.227 253.25 183.783 250.85C176.261 251.912 168.443 252.954 161.204 250.67" fill="white"/>
<g opacity="0.6">
<path d="M173.578 263.526C171.255 265.07 169.395 267.264 167.047 268.77C164.698 270.276 161.468 270.977 159.209 269.33V272.875C161.468 274.522 164.698 273.828 167.047 272.315C169.395 270.803 171.255 268.622 173.578 267.071C175.304 265.938 177.25 265.18 179.289 264.848C181.327 264.515 183.413 264.615 185.411 265.141V261.595C183.413 261.068 181.327 260.967 179.288 261.3C177.25 261.632 175.304 262.391 173.578 263.526Z" fill="white"/>
</g>
</svg>
