<svg width="1440" height="269" viewBox="0 0 1440 269" fill="none" xmlns="http://www.w3.org/2000/svg">
<path fill-rule="evenodd" clip-rule="evenodd" d="M-138 0L-58.2082 49.8731C24.9082 96.4213 184.492 192.843 347.4 192.843C510.308 192.843 669.892 96.4213 832.8 73.1472C995.708 49.8731 1155.29 96.4213 1318.2 156.269C1481.11 219.442 1640.69 292.589 1803.6 302.563C1966.51 315.863 2126.09 265.99 2209.21 242.716L2289 219.442V655H2209.21C2126.09 655 1966.51 655 1803.6 655C1640.69 655 1481.11 655 1318.2 655C1155.29 655 995.708 655 832.8 655C669.892 655 510.308 655 347.4 655C184.492 655 24.9082 655 -58.2082 655H-138V0Z" fill="#FF725E"/>
</svg>
